G04*
G04 #@! TF.GenerationSoftware,Altium Limited,Altium Designer,24.5.2 (23)*
G04*
G04 Layer_Physical_Order=1*
G04 Layer_Color=255*
%FSLAX25Y25*%
%MOIN*%
G70*
G04*
G04 #@! TF.SameCoordinates,8E9D75CF-4B50-47A3-925C-4D640FB52603*
G04*
G04*
G04 #@! TF.FilePolarity,Positive*
G04*
G01*
G75*
%ADD14C,0.06000*%
%ADD16C,0.00600*%
%ADD18R,0.10630X0.11614*%
%ADD19R,0.04724X0.02362*%
%ADD20R,0.06791X0.02559*%
%ADD21R,0.06102X0.02559*%
%ADD22R,0.06004X0.02559*%
%ADD23R,0.10669X0.13386*%
%ADD24R,0.06575X0.07165*%
%ADD25R,0.09449X0.13386*%
%ADD26R,0.02756X0.06299*%
%ADD27R,0.04331X0.02165*%
%ADD28R,0.02756X0.02756*%
%ADD29R,0.09843X0.07087*%
%ADD30R,0.07284X0.04134*%
%ADD31R,0.04724X0.02559*%
%ADD32R,0.04134X0.07284*%
%ADD33R,0.02559X0.04724*%
%ADD34R,0.02362X0.04724*%
%ADD35R,0.02559X0.06004*%
%ADD36R,0.13386X0.10669*%
%ADD37R,0.02165X0.04331*%
%ADD38R,0.06299X0.02756*%
%ADD75C,0.11811*%
%ADD79C,0.01500*%
%ADD80C,0.01200*%
%ADD81C,0.00800*%
%ADD82C,0.02000*%
%ADD83C,0.00537*%
%ADD84C,0.00539*%
%ADD85C,0.02400*%
%ADD86C,0.01600*%
%ADD87C,0.12000*%
%ADD88C,0.04000*%
%ADD89C,0.06102*%
%ADD90R,0.06102X0.06102*%
%ADD91C,0.06496*%
%ADD92R,0.06496X0.06496*%
%ADD93R,0.05906X0.05906*%
%ADD94C,0.05906*%
%ADD95C,0.05512*%
%ADD96C,0.08268*%
%ADD97C,0.09449*%
%ADD98C,0.10500*%
%ADD99R,0.10500X0.10500*%
%ADD100C,0.09000*%
%ADD101R,0.06890X0.06890*%
%ADD102C,0.06890*%
%ADD103C,0.10039*%
%ADD104C,0.31496*%
%ADD105C,0.05000*%
%ADD106C,0.01772*%
%ADD107C,0.01772*%
%ADD108C,0.03000*%
G36*
X362500Y200000D02*
Y195500D01*
X362000Y195000D01*
X344000D01*
X342500Y196500D01*
X338500D01*
X337500Y195500D01*
Y190885D01*
X330614Y184000D01*
X324500D01*
X323780Y183280D01*
X323220D01*
Y182720D01*
X323122Y182622D01*
X323000D01*
X322571Y182536D01*
X322207Y182293D01*
X322207Y182293D01*
X321737Y181823D01*
X321494Y181459D01*
X321408Y181030D01*
X321408Y181030D01*
Y174727D01*
X321408Y174727D01*
X321494Y174298D01*
X321737Y173934D01*
X322434Y173237D01*
X322434Y173237D01*
X322798Y172994D01*
X323000Y172953D01*
Y154500D01*
X318500Y150000D01*
Y144000D01*
X316000Y141500D01*
X310500D01*
X309500Y142500D01*
Y160000D01*
X312500Y163000D01*
Y179350D01*
X312823D01*
Y184761D01*
X321500Y191786D01*
Y198202D01*
X321924Y198626D01*
X326520D01*
X330000Y202000D01*
X360500Y202000D01*
X362500Y200000D01*
D02*
G37*
G36*
X387000Y205500D02*
Y184500D01*
X386000Y183500D01*
X379500D01*
X378000Y185000D01*
Y196500D01*
X376500Y198000D01*
X366000D01*
X365500Y198500D01*
Y206500D01*
X366500Y207500D01*
X385000D01*
X387000Y205500D01*
D02*
G37*
G36*
X520500Y175000D02*
Y150000D01*
X511500Y141000D01*
X466112D01*
X465806Y141306D01*
X465500Y141433D01*
X453500D01*
X453194Y141306D01*
X453067Y141000D01*
Y134451D01*
Y132179D01*
X451323D01*
Y131671D01*
X448323D01*
Y132179D01*
X446421D01*
Y128821D01*
X448323D01*
Y129329D01*
X451323D01*
Y128821D01*
X453067D01*
Y128067D01*
X453000Y128000D01*
X452247D01*
X451526Y127279D01*
X446321D01*
Y123721D01*
X447444D01*
X447598Y123351D01*
X446526Y122280D01*
X446321D01*
Y121982D01*
X445362D01*
Y122232D01*
X439638D01*
Y121504D01*
X439581Y121448D01*
X439327Y120833D01*
Y120167D01*
X439581Y119552D01*
X439638Y119496D01*
Y118673D01*
X445362D01*
Y118923D01*
X446321D01*
Y118720D01*
X446500D01*
Y117280D01*
X446321D01*
Y113721D01*
X446500D01*
Y108000D01*
X445998Y107498D01*
X445628Y107651D01*
Y108000D01*
X445120D01*
Y111000D01*
X445628D01*
Y112065D01*
X442663D01*
Y111000D01*
X443171D01*
Y108000D01*
X442663D01*
Y106935D01*
X444468D01*
X444682Y106535D01*
X444659Y106500D01*
X430500D01*
X430130Y106870D01*
X429977Y106500D01*
X428567D01*
Y104500D01*
Y98933D01*
Y80567D01*
X423500Y75500D01*
Y49000D01*
X420500Y46000D01*
X407000D01*
X405500Y47500D01*
Y98000D01*
X405870Y98370D01*
X405500Y98523D01*
Y104000D01*
X408000Y106500D01*
X397000D01*
X396000Y107500D01*
Y137500D01*
X397194Y138694D01*
X397500Y138567D01*
X405181D01*
X405321Y138225D01*
X405321Y138167D01*
Y136323D01*
X405829D01*
Y133323D01*
X405321D01*
Y131421D01*
X408679D01*
Y133323D01*
X408171D01*
Y136323D01*
X408679D01*
Y138167D01*
X408679Y138225D01*
X408819Y138567D01*
X409433D01*
X409500Y138500D01*
Y130862D01*
X409268D01*
Y125138D01*
X409996D01*
X410052Y125082D01*
X410667Y124827D01*
X411333D01*
X411948Y125082D01*
X412004Y125138D01*
X412827D01*
Y125500D01*
X415173D01*
Y125138D01*
X418732D01*
Y125500D01*
X422000D01*
Y126500D01*
X424000Y128500D01*
X426772Y131272D01*
X427309D01*
X427337Y131253D01*
X428000Y131121D01*
X428663Y131253D01*
X428691Y131272D01*
X430665D01*
Y134437D01*
X429902D01*
X429737Y134837D01*
X449400Y154500D01*
X459851D01*
X459981Y154369D01*
X460731Y153937D01*
X461567Y153713D01*
X462433D01*
X463269Y153937D01*
X464018Y154369D01*
X464149Y154500D01*
X477621D01*
X477731Y154437D01*
X478567Y154213D01*
X479433D01*
X480269Y154437D01*
X480379Y154500D01*
X482000D01*
X488000Y160500D01*
Y173500D01*
X492500Y178000D01*
X517500D01*
X520500Y175000D01*
D02*
G37*
G36*
X355851Y162851D02*
X356149Y162652D01*
X356500Y162582D01*
X357720D01*
Y159238D01*
X357720Y159221D01*
X357820Y157662D01*
X357820Y157621D01*
Y154321D01*
X359772D01*
Y154829D01*
X362772D01*
Y154321D01*
X364723D01*
Y157621D01*
X364723Y157662D01*
X364823Y159221D01*
X366225Y159716D01*
X368675D01*
X374170Y154222D01*
X373508Y152622D01*
X355472D01*
X354173Y153667D01*
Y154333D01*
X353919Y154948D01*
X353448Y155419D01*
X352833Y155673D01*
X352167D01*
X351780Y157151D01*
Y158121D01*
X351780Y158280D01*
Y159721D01*
X351780Y159880D01*
Y163120D01*
X351780Y163279D01*
Y164720D01*
X351780Y164955D01*
X353380Y165323D01*
X355851Y162851D01*
D02*
G37*
G36*
X820520Y192598D02*
X820643Y191984D01*
X820991Y191463D01*
X821512Y191115D01*
X822126Y190993D01*
X828394D01*
Y0D01*
X800109D01*
X799987Y614D01*
X799639Y1135D01*
X799118Y1483D01*
X798504Y1606D01*
X783433D01*
Y11500D01*
X783306Y11806D01*
X780862Y14250D01*
X780556Y14377D01*
X780250Y14250D01*
X780000Y14000D01*
X763568Y13910D01*
X763260Y14648D01*
X764306Y15694D01*
X764433Y16000D01*
Y17958D01*
X764306Y18264D01*
X764284Y18274D01*
Y25726D01*
X764306Y25736D01*
X764433Y26042D01*
Y29451D01*
X764371Y29600D01*
X764314Y29750D01*
X764040Y30037D01*
X764035Y30039D01*
X764033Y30044D01*
X763884Y30105D01*
X763827Y30131D01*
Y34869D01*
X763884Y34894D01*
X764033Y34956D01*
X764035Y34961D01*
X764040Y34964D01*
X764314Y35250D01*
X764371Y35400D01*
X764433Y35549D01*
Y36500D01*
X764306Y36806D01*
X762806Y38306D01*
X762500Y38433D01*
X759179D01*
X758433Y39179D01*
Y41226D01*
X761945D01*
Y48230D01*
X758386D01*
Y48230D01*
X757586Y48026D01*
X756806Y48806D01*
X756500Y48933D01*
X753500D01*
X753194Y48806D01*
X752420Y48033D01*
X751945Y48230D01*
X751945D01*
D01*
X748386D01*
Y43188D01*
X747687Y42490D01*
D01*
X747122Y41924D01*
X746362Y41827D01*
X746362Y41827D01*
D01*
X741685D01*
X741169Y42627D01*
X741287Y43067D01*
Y43933D01*
X741472Y44173D01*
X746362D01*
Y47732D01*
X740638D01*
Y47227D01*
X740453D01*
X739965Y47130D01*
X739552Y46854D01*
X739263Y46565D01*
X738433Y46787D01*
X737567D01*
X736731Y46563D01*
X735982Y46131D01*
X735369Y45518D01*
X734937Y44769D01*
X734713Y43933D01*
Y43067D01*
X734937Y42231D01*
X735369Y41482D01*
X735982Y40869D01*
X736731Y40437D01*
X737567Y40213D01*
X738433D01*
X739038Y40375D01*
X739269Y40437D01*
X739838Y40765D01*
X740404Y40551D01*
X740638Y40357D01*
Y38268D01*
X746362D01*
Y38773D01*
X747047D01*
X747535Y38870D01*
X747948Y39146D01*
X749153Y40350D01*
X750028Y41226D01*
X751567D01*
Y39679D01*
X749194Y37306D01*
X749067Y37000D01*
Y26182D01*
X748325Y26042D01*
X748325D01*
D01*
X748317D01*
X748267Y26042D01*
X747358D01*
Y25534D01*
X744358D01*
Y26042D01*
X743391D01*
Y23500D01*
X743899D01*
Y20500D01*
X743391D01*
Y17958D01*
X744358D01*
Y18466D01*
X747358D01*
Y17958D01*
X748267D01*
X748316Y17958D01*
X748325D01*
D01*
X748325D01*
X749067Y17818D01*
Y16000D01*
X749194Y15694D01*
X750313Y14575D01*
X750008Y13835D01*
X748796Y13829D01*
D01*
X734339Y13749D01*
X689567Y13503D01*
X689000Y14067D01*
Y14290D01*
X688937Y14443D01*
X688937Y14443D01*
X688873Y14596D01*
X688873Y14596D01*
X688873Y14596D01*
X688873Y14596D01*
X688590Y14879D01*
X688590Y14879D01*
X688590Y14879D01*
X688589Y14879D01*
X688438Y14942D01*
X688438Y14942D01*
X688284Y15005D01*
X688283Y15005D01*
X688283Y15005D01*
X688283Y15005D01*
X688283Y15005D01*
X687624Y15004D01*
X684176Y14997D01*
X684022Y14933D01*
X683871Y14871D01*
X683000Y14000D01*
X666569Y13910D01*
X666260Y14648D01*
X667306Y15694D01*
X667433Y16000D01*
Y17958D01*
X667306Y18264D01*
X667283Y18274D01*
Y25726D01*
X667306Y25736D01*
X667433Y26042D01*
Y29451D01*
X667371Y29600D01*
X667313Y29750D01*
X667040Y30037D01*
X667035Y30039D01*
X667033Y30044D01*
X666884Y30105D01*
X666827Y30131D01*
Y34869D01*
X666884Y34894D01*
X667033Y34956D01*
X667035Y34961D01*
X667040Y34964D01*
X667313Y35250D01*
X667371Y35400D01*
X667433Y35549D01*
Y36500D01*
X667306Y36806D01*
X665806Y38306D01*
X665500Y38433D01*
X662179D01*
X661433Y39179D01*
Y41226D01*
X664945D01*
Y48230D01*
X661386D01*
D01*
X661386Y48230D01*
D01*
X661386Y48230D01*
Y48230D01*
X660586Y48201D01*
X660012Y48775D01*
X659481Y49306D01*
X659174Y49433D01*
X656800D01*
X656494Y49306D01*
X655279Y48091D01*
X654945Y48230D01*
Y48230D01*
X651386D01*
Y43188D01*
X650886Y42688D01*
X650122Y41924D01*
X649362Y41827D01*
X649362Y41827D01*
D01*
X644685D01*
X644169Y42627D01*
X644287Y43067D01*
Y43933D01*
X644472Y44173D01*
X649362D01*
Y47732D01*
X643638D01*
Y47227D01*
X643453D01*
X642965Y47130D01*
X642552Y46854D01*
X642263Y46565D01*
X641433Y46787D01*
X640567D01*
X639731Y46563D01*
X638981Y46131D01*
X638369Y45518D01*
X637937Y44769D01*
X637713Y43933D01*
Y43067D01*
X637937Y42231D01*
X638369Y41482D01*
X638981Y40869D01*
X639731Y40437D01*
X640567Y40213D01*
X641433D01*
X642038Y40375D01*
X642269Y40437D01*
X642838Y40765D01*
X643404Y40551D01*
X643638Y40357D01*
Y38268D01*
X649362D01*
Y38773D01*
X650047D01*
X650535Y38870D01*
X650948Y39146D01*
X650982Y39179D01*
X653028Y41226D01*
X654567D01*
Y39679D01*
X652194Y37306D01*
X652067Y37000D01*
Y26182D01*
X651325Y26042D01*
X651325D01*
D01*
X651317D01*
X651267Y26042D01*
X650358D01*
Y25534D01*
X647358D01*
Y26042D01*
X646391D01*
Y23500D01*
X646899D01*
Y20500D01*
X646391D01*
Y17958D01*
X647358D01*
Y18466D01*
X650358D01*
Y17958D01*
X651267D01*
X651316Y17958D01*
X651325D01*
D01*
X651325D01*
X652067Y17818D01*
Y16000D01*
X652194Y15694D01*
X652375Y15513D01*
X653312Y14575D01*
X653008Y13835D01*
X651796Y13829D01*
D01*
X637338Y13749D01*
X592567Y13503D01*
X592000Y14067D01*
Y14153D01*
X591967Y14233D01*
X591966Y14233D01*
X591938Y14261D01*
X591931Y14301D01*
X591931Y14301D01*
X591867Y14400D01*
X591827Y14427D01*
X591809Y14472D01*
X591809Y14472D01*
X591590Y14691D01*
X591590Y14691D01*
X591589Y14691D01*
X591284Y14817D01*
X591283Y14817D01*
X591283Y14817D01*
X584983Y14805D01*
X584830Y14741D01*
X584678Y14678D01*
X584000Y14000D01*
X567568Y13910D01*
X567260Y14648D01*
X568306Y15694D01*
X568433Y16000D01*
Y17958D01*
X568306Y18264D01*
X568284Y18274D01*
Y25726D01*
X568306Y25736D01*
X568433Y26042D01*
Y29451D01*
X568371Y29600D01*
X568314Y29750D01*
X568040Y30037D01*
X568035Y30039D01*
X568033Y30044D01*
X567884Y30105D01*
X567827Y30131D01*
Y34869D01*
X567884Y34894D01*
X568033Y34956D01*
X568035Y34961D01*
X568040Y34964D01*
X568314Y35250D01*
X568371Y35400D01*
X568433Y35549D01*
Y36500D01*
X568306Y36806D01*
X566806Y38306D01*
X566500Y38433D01*
X563179D01*
X562433Y39179D01*
Y41226D01*
X565945D01*
Y48230D01*
X562386D01*
Y48230D01*
X561586Y48026D01*
X560961Y48652D01*
X560306Y49306D01*
X560000Y49433D01*
X558000D01*
X557694Y49306D01*
X556420Y48033D01*
X555945Y48230D01*
Y48230D01*
X552386D01*
Y43188D01*
X551886Y42688D01*
X551122Y41924D01*
X550362Y41827D01*
X550362Y41827D01*
D01*
X545685D01*
X545169Y42627D01*
X545287Y43067D01*
Y43933D01*
X545472Y44173D01*
X550362D01*
Y47732D01*
X544638D01*
Y47227D01*
X544453D01*
X543965Y47130D01*
X543552Y46854D01*
X543263Y46565D01*
X542433Y46787D01*
X541567D01*
X540731Y46563D01*
X539982Y46131D01*
X539369Y45518D01*
X538937Y44769D01*
X538713Y43933D01*
Y43067D01*
X538937Y42231D01*
X539369Y41482D01*
X539982Y40869D01*
X540731Y40437D01*
X541567Y40213D01*
X542433D01*
X543038Y40375D01*
X543269Y40437D01*
X543838Y40765D01*
X544404Y40551D01*
X544638Y40357D01*
Y39379D01*
D01*
Y38268D01*
X550362D01*
Y38773D01*
X551047D01*
X551535Y38870D01*
X551948Y39146D01*
X554028Y41226D01*
X555567D01*
Y39679D01*
X555278Y39390D01*
D01*
X555067Y39179D01*
X553194Y37306D01*
X553067Y37000D01*
Y26182D01*
X552325Y26042D01*
X552325D01*
D01*
X552317D01*
X552267Y26042D01*
X551358D01*
Y25534D01*
X548358D01*
Y26042D01*
X547391D01*
Y23500D01*
X547899D01*
Y20500D01*
X547391D01*
Y17958D01*
X548358D01*
Y18466D01*
X551358D01*
Y17958D01*
X552267D01*
X552317Y17958D01*
X552325D01*
D01*
X552325D01*
X553067Y17818D01*
Y16000D01*
X553194Y15694D01*
X554313Y14575D01*
X554008Y13835D01*
X552796Y13829D01*
D01*
X538339Y13749D01*
X493567Y13503D01*
X493000Y14067D01*
Y14153D01*
X492967Y14233D01*
X492956Y14243D01*
X492955Y14257D01*
X492955Y14258D01*
X492840Y14358D01*
X492732Y14467D01*
X492732Y14467D01*
X492717Y14467D01*
X492706Y14476D01*
X492337Y14602D01*
X492336Y14602D01*
X492264Y14597D01*
X492196Y14625D01*
X487294Y14615D01*
X487142Y14552D01*
X486988Y14488D01*
X486066Y13566D01*
X486000Y13500D01*
X469568Y13410D01*
X469260Y14148D01*
X470306Y15194D01*
X470433Y15500D01*
Y17458D01*
X470306Y17764D01*
X470284Y17774D01*
Y25226D01*
X470306Y25236D01*
X470433Y25542D01*
Y28951D01*
X470371Y29100D01*
X470314Y29250D01*
X470040Y29537D01*
X470035Y29539D01*
X470033Y29544D01*
X469884Y29605D01*
X469827Y29631D01*
Y34369D01*
X469884Y34394D01*
X470033Y34456D01*
X470035Y34461D01*
X470040Y34464D01*
X470314Y34750D01*
X470371Y34900D01*
X470433Y35049D01*
Y36000D01*
X470306Y36306D01*
X468806Y37806D01*
X468500Y37933D01*
X465179D01*
X463433Y39679D01*
Y40671D01*
X463586Y40821D01*
X464386Y40726D01*
Y40726D01*
X467945D01*
Y47730D01*
X464386D01*
Y46515D01*
X463586Y46179D01*
X463433Y46329D01*
Y47500D01*
X463306Y47806D01*
X462806Y48306D01*
X462652Y48370D01*
X462811Y49170D01*
X470758D01*
Y53405D01*
X470250D01*
Y56405D01*
X470758D01*
Y60639D01*
X465165D01*
Y60131D01*
X462165D01*
Y60639D01*
X458185D01*
X457878Y61379D01*
X458686Y62186D01*
X459486Y62180D01*
X459667Y62180D01*
X462845D01*
Y64082D01*
X462337D01*
Y67082D01*
X462845D01*
Y68984D01*
X459800D01*
X459486Y68984D01*
X459000Y69582D01*
Y72958D01*
X459358D01*
Y73466D01*
X462358D01*
Y72958D01*
X463325D01*
Y75500D01*
X462817D01*
Y78500D01*
X463325D01*
Y81042D01*
X462358D01*
Y80534D01*
X459358D01*
Y81042D01*
X458433D01*
Y85000D01*
X458306Y85306D01*
X457751Y85861D01*
X458015Y86485D01*
X457850Y86650D01*
X458181Y87450D01*
X458410Y87450D01*
X461333D01*
Y89500D01*
X460825D01*
Y92500D01*
X461333D01*
Y94550D01*
X457777D01*
Y92500D01*
X458285D01*
Y89500D01*
X457777D01*
Y88092D01*
X457777Y87854D01*
X457421Y87707D01*
X456977Y87523D01*
X456812Y87688D01*
X456188Y87424D01*
X453933Y89679D01*
Y98000D01*
X453806Y98306D01*
X452306Y99806D01*
X452000Y99933D01*
X446572D01*
X445000Y100000D01*
Y104619D01*
X445000Y105779D01*
X445331Y106304D01*
X445406Y106389D01*
X446108Y107062D01*
X446164Y107098D01*
X446195Y107130D01*
X446304Y107192D01*
X446672Y107559D01*
X447295Y107485D01*
X448272Y107069D01*
Y106835D01*
X451437D01*
Y112165D01*
X451437D01*
X451545Y113721D01*
X453325D01*
Y117280D01*
X453325D01*
Y118720D01*
X453325D01*
Y122280D01*
X453325Y122280D01*
Y123721D01*
X453325D01*
X453325Y123880D01*
Y127279D01*
X453325D01*
X453500Y128067D01*
Y128821D01*
X453373Y129127D01*
Y129127D01*
X453325Y129147D01*
Y131853D01*
X453373Y131873D01*
X453500Y132179D01*
Y133251D01*
D01*
Y134451D01*
X453773Y134738D01*
X453900Y134738D01*
X457132D01*
Y136000D01*
X456624D01*
Y139000D01*
X457132D01*
Y140262D01*
X453900D01*
X453773Y140262D01*
X453500Y140549D01*
Y141000D01*
X465500D01*
X465561Y140939D01*
D01*
X465806Y140694D01*
X466112Y140567D01*
X511500D01*
X511806Y140694D01*
X520806Y149694D01*
X520933Y150000D01*
Y175000D01*
X520806Y175306D01*
X517806Y178306D01*
X517500Y178433D01*
X492500D01*
X492194Y178306D01*
X487694Y173806D01*
X487567Y173500D01*
Y160679D01*
X483840Y156952D01*
X482287Y157662D01*
Y157933D01*
X482063Y158769D01*
X481631Y159519D01*
X481018Y160131D01*
X480269Y160563D01*
X479433Y160787D01*
X478567D01*
X477731Y160563D01*
X476981Y160131D01*
X476369Y159519D01*
X475937Y158769D01*
X475713Y157933D01*
Y157067D01*
X475856Y156533D01*
X475390Y155584D01*
X474839Y154933D01*
X466449D01*
X466234Y155057D01*
X465278Y156533D01*
X465287Y156567D01*
Y157433D01*
X465063Y158269D01*
X464631Y159019D01*
X464018Y159631D01*
X463269Y160063D01*
X462433Y160287D01*
X461567D01*
X460731Y160063D01*
X459981Y159631D01*
X459369Y159019D01*
X458937Y158269D01*
X458713Y157433D01*
Y156567D01*
X458722Y156533D01*
X457766Y155057D01*
X457551Y154933D01*
X449400D01*
X449093Y154806D01*
X429431Y135143D01*
X428176Y135345D01*
X427835Y135471D01*
X427257Y136048D01*
X426695Y136424D01*
X426032Y136556D01*
X423779D01*
Y138325D01*
X420221D01*
Y138325D01*
X418780D01*
Y138325D01*
X415379D01*
X415220Y138325D01*
X413779D01*
X413621Y138325D01*
X411411D01*
X411126Y138358D01*
X409739Y138873D01*
X409433Y139000D01*
X408819D01*
X408738Y138967D01*
X408651Y138966D01*
X408651Y138966D01*
X408591Y138906D01*
X408513Y138873D01*
X408513Y138873D01*
X408479Y138793D01*
X408418Y138730D01*
X408418Y138730D01*
X408279Y138388D01*
X408216Y138325D01*
X405784D01*
X405722Y138388D01*
X405721Y138388D01*
X405582Y138730D01*
X405521Y138793D01*
X405487Y138873D01*
X405409Y138906D01*
X405349Y138966D01*
X405349Y138966D01*
X405262Y138967D01*
X405181Y139000D01*
X405181Y139000D01*
X397500D01*
X396686Y139814D01*
X396629Y139783D01*
X396028Y139709D01*
X394665Y140948D01*
Y142728D01*
X389335D01*
Y139563D01*
X391780D01*
X395567Y135776D01*
Y107500D01*
X395694Y107194D01*
X396694Y106194D01*
X397000Y106067D01*
X404864D01*
X405477Y104589D01*
X405194Y104306D01*
X405067Y104000D01*
Y98523D01*
X405100Y98443D01*
Y98357D01*
X405161Y98296D01*
X405175Y98261D01*
X405067Y98000D01*
Y92514D01*
X404227Y91262D01*
D01*
D01*
X403700Y91262D01*
X400868D01*
Y90000D01*
X401376D01*
Y87000D01*
X400868D01*
Y85738D01*
X403569Y85738D01*
X403851Y85250D01*
X403569Y84762D01*
X400868D01*
Y84138D01*
D01*
Y83500D01*
X401376D01*
Y80500D01*
X400868D01*
Y79238D01*
X404227Y79238D01*
D01*
D01*
X405067Y77986D01*
Y77834D01*
X404325Y76542D01*
D01*
D01*
X403700Y76542D01*
X403358D01*
Y76034D01*
X400358D01*
Y76542D01*
X399391D01*
Y74000D01*
X399899D01*
Y71000D01*
X399391D01*
Y68458D01*
X400358D01*
Y68966D01*
X403358D01*
Y68458D01*
X403467D01*
X404152Y68458D01*
X404325D01*
D01*
D01*
X405067Y67166D01*
Y47500D01*
X405194Y47194D01*
X406694Y45694D01*
X407000Y45567D01*
X420500D01*
X420806Y45694D01*
X423806Y48694D01*
X423933Y49000D01*
Y49094D01*
X425175Y49958D01*
X425500Y49958D01*
D01*
X426142D01*
Y50466D01*
X429142D01*
Y49958D01*
X430109D01*
Y52500D01*
X429601D01*
Y55500D01*
X430109D01*
Y58042D01*
X429142D01*
Y57534D01*
X426142D01*
Y58042D01*
X425500D01*
D01*
X425175Y58042D01*
X423933Y58906D01*
Y59279D01*
X424273Y60738D01*
X425394Y60738D01*
D01*
X427632D01*
Y62000D01*
X427124D01*
Y65000D01*
X427632D01*
Y66262D01*
X424500D01*
Y68238D01*
X427679D01*
Y69500D01*
X427171D01*
Y72500D01*
X427679D01*
Y73762D01*
X425394D01*
X425394Y73762D01*
X424321D01*
X423933Y75202D01*
Y75321D01*
X427089Y78477D01*
X428694Y78194D01*
X429000Y78067D01*
X436567D01*
Y68000D01*
X436694Y67694D01*
X442694Y61694D01*
X443000Y61567D01*
X453485D01*
X454160Y61567D01*
X454160Y61567D01*
X454261Y61609D01*
X454370Y61621D01*
X454370Y61621D01*
X454695Y61801D01*
X455206Y61803D01*
X455962Y61673D01*
X456332Y61538D01*
X456572Y60639D01*
X456572Y60480D01*
Y60079D01*
Y60077D01*
Y56405D01*
X457081D01*
Y53405D01*
X456572D01*
Y49170D01*
X459189D01*
X459348Y48370D01*
X459194Y48306D01*
X458708Y47820D01*
X458048Y47742D01*
X457926Y47730D01*
X457838Y47730D01*
X456188D01*
D01*
X454386D01*
Y42688D01*
X453122Y41424D01*
X452362Y41327D01*
X452362Y41327D01*
D01*
X447685D01*
X447169Y42127D01*
X447287Y42567D01*
Y43433D01*
X447472Y43673D01*
X452362D01*
Y47232D01*
X446638D01*
Y46727D01*
X446453D01*
X445965Y46630D01*
X445552Y46354D01*
X445263Y46065D01*
X444433Y46287D01*
X443567D01*
X442731Y46063D01*
X441982Y45631D01*
X441369Y45019D01*
X440937Y44269D01*
X440713Y43433D01*
Y42567D01*
X440937Y41731D01*
X441369Y40982D01*
X441982Y40369D01*
X442731Y39937D01*
X443567Y39713D01*
X444433D01*
X445038Y39875D01*
X445269Y39937D01*
X445838Y40265D01*
X446404Y40051D01*
X446638Y39857D01*
Y38879D01*
D01*
Y37768D01*
X452362D01*
Y38273D01*
X453047D01*
X453535Y38370D01*
X453948Y38646D01*
X456028Y40726D01*
X457767D01*
X457945Y40726D01*
X457967Y40710D01*
X458061Y39673D01*
X455194Y36806D01*
X455067Y36500D01*
Y25682D01*
X454325Y25542D01*
X454325D01*
D01*
X454317D01*
X454267Y25542D01*
X453358D01*
Y25034D01*
X450358D01*
Y25542D01*
X449391D01*
Y23000D01*
X449899D01*
Y20000D01*
X449391D01*
Y17458D01*
X450358D01*
Y17966D01*
X453358D01*
Y17458D01*
X454267D01*
X454317Y17458D01*
X454325D01*
D01*
X454325D01*
X455067Y17318D01*
Y15500D01*
X455194Y15194D01*
X456313Y14075D01*
X456008Y13335D01*
X454796Y13329D01*
D01*
X440339Y13249D01*
X395567Y13003D01*
X395000Y13567D01*
Y13934D01*
D01*
X394936Y14086D01*
X394873Y14239D01*
X394873Y14239D01*
X394873Y14240D01*
X394804Y14308D01*
X379933Y29179D01*
Y34000D01*
X379806Y34306D01*
X370362Y43750D01*
X372306Y45694D01*
X372433Y46000D01*
Y47958D01*
X372306Y48264D01*
X372284Y48274D01*
Y55726D01*
X372306Y55736D01*
X372433Y56042D01*
Y59451D01*
X372371Y59600D01*
X372313Y59750D01*
X372040Y60036D01*
X372035Y60039D01*
X372033Y60044D01*
X371884Y60105D01*
X371827Y60131D01*
Y64869D01*
X371884Y64894D01*
X372033Y64956D01*
X372035Y64961D01*
X372040Y64964D01*
X372313Y65250D01*
X372371Y65400D01*
X372433Y65549D01*
Y66500D01*
X372306Y66806D01*
X370806Y68306D01*
X370500Y68433D01*
X367179D01*
X366433Y69179D01*
Y71226D01*
X369945D01*
Y78230D01*
X366386D01*
D01*
X366386Y78230D01*
D01*
X366386Y78230D01*
Y78230D01*
X365586Y78201D01*
X364981Y78806D01*
X364674Y78933D01*
X361500Y78933D01*
X361500Y78933D01*
D01*
D01*
X361194Y78806D01*
X360707Y78320D01*
X360048Y78242D01*
X359926Y78230D01*
X359828Y78230D01*
X356386D01*
Y73188D01*
X355865Y72667D01*
X355122Y71924D01*
X354362Y71827D01*
X354362Y71827D01*
D01*
X349685D01*
X349169Y72627D01*
X349287Y73067D01*
Y73933D01*
X349472Y74173D01*
X354362D01*
Y77732D01*
X348638D01*
Y77227D01*
X348453D01*
X347965Y77130D01*
X347552Y76854D01*
X347263Y76565D01*
X346433Y76787D01*
X345567D01*
X344731Y76563D01*
X343982Y76131D01*
X343369Y75519D01*
X342937Y74769D01*
X342713Y73933D01*
Y73067D01*
X342937Y72231D01*
X343369Y71482D01*
X343982Y70869D01*
X344731Y70437D01*
X345567Y70213D01*
X346433D01*
X347038Y70375D01*
X347269Y70437D01*
X347838Y70765D01*
X348404Y70551D01*
X348638Y70357D01*
Y69379D01*
D01*
Y68268D01*
X354362D01*
Y68773D01*
X355047D01*
X355535Y68870D01*
X355948Y69146D01*
X357385Y70583D01*
X358028Y71226D01*
X359767D01*
X359945Y71226D01*
X359967Y71210D01*
X360061Y70173D01*
X357194Y67306D01*
X357067Y67000D01*
Y56182D01*
X356325Y56042D01*
X356325D01*
D01*
X356317D01*
X356267Y56042D01*
X355358D01*
Y55534D01*
X352358D01*
Y56042D01*
X351391D01*
Y53500D01*
X351899D01*
Y50500D01*
X351391D01*
Y47958D01*
X352358D01*
Y48466D01*
X355358D01*
Y47958D01*
X356267D01*
X356316Y47958D01*
X356325D01*
D01*
X356325D01*
X357067Y47818D01*
Y46000D01*
X357194Y45694D01*
X358313Y44575D01*
X359194Y43694D01*
X359500Y43567D01*
X359522D01*
X359567Y43500D01*
Y15000D01*
X359694Y14694D01*
X371304Y3084D01*
X370692Y1606D01*
X363307D01*
X362693Y1483D01*
X362172Y1135D01*
X361824Y614D01*
X361701Y0D01*
X331291D01*
X331168Y614D01*
X330820Y1135D01*
X330299Y1483D01*
X329685Y1606D01*
X271933D01*
Y144321D01*
X292306Y164694D01*
X292433Y165000D01*
Y191000D01*
X292306Y191306D01*
X274413Y209200D01*
X275025Y210678D01*
X302004D01*
X302177Y209150D01*
X302177Y209078D01*
Y203250D01*
X302177Y201850D01*
X302177Y200250D01*
Y194350D01*
X302177D01*
X302177Y194150D01*
X302177Y194150D01*
Y188250D01*
X302177Y186850D01*
X302177Y185250D01*
Y180500D01*
X302177Y179350D01*
X302738Y177983D01*
Y175773D01*
X304000D01*
Y176281D01*
X307000D01*
Y175773D01*
X308262D01*
Y178084D01*
X308996Y179238D01*
X309772Y179350D01*
X312067D01*
Y169269D01*
X310681Y168752D01*
X310467Y168752D01*
X309542D01*
X308362Y169768D01*
Y173327D01*
X306285D01*
X306085Y173460D01*
X305500Y173577D01*
X304915Y173460D01*
X304715Y173327D01*
X302638D01*
Y169768D01*
X303971D01*
Y169390D01*
X304087Y168805D01*
X304419Y168308D01*
X305016Y167711D01*
X305082Y167552D01*
X305552Y167081D01*
X305711Y167016D01*
X307319Y165408D01*
Y163028D01*
X309653D01*
X310315Y161428D01*
X309194Y160306D01*
X309067Y160000D01*
Y151875D01*
X307825Y151010D01*
X307467Y151010D01*
X306858D01*
Y150502D01*
X303858D01*
Y151010D01*
X302891D01*
Y148469D01*
X303399D01*
Y145469D01*
X302891D01*
Y142927D01*
X303858D01*
Y143435D01*
X306858D01*
Y142927D01*
X307589D01*
X308174Y142758D01*
X309158Y142281D01*
X309194Y142194D01*
X310194Y141194D01*
X310500Y141067D01*
X316000D01*
X316306Y141194D01*
X318806Y143694D01*
X318933Y144000D01*
Y149821D01*
X323306Y154194D01*
X323433Y154500D01*
Y154720D01*
X330323D01*
Y154720D01*
X330571Y154703D01*
X331878Y154000D01*
X331964Y153571D01*
X332207Y153207D01*
X334325Y151089D01*
X334345Y150289D01*
X334239Y149713D01*
X334018Y149243D01*
X333401Y148887D01*
X332613Y148099D01*
X332056Y147134D01*
X331832Y146298D01*
X330232Y146509D01*
Y149732D01*
X321768D01*
Y141268D01*
X330232D01*
Y144491D01*
X331832Y144702D01*
X332056Y143866D01*
X332613Y142901D01*
X333401Y142113D01*
X334366Y141556D01*
X335443Y141268D01*
X336557D01*
X337634Y141556D01*
X338599Y142113D01*
X339387Y142901D01*
X339944Y143866D01*
X340232Y144943D01*
Y146057D01*
X339944Y147134D01*
X339387Y148099D01*
X338707Y148778D01*
X338753Y149260D01*
X339215Y150378D01*
X344690D01*
X344901Y148778D01*
X344855Y148766D01*
X345258Y148363D01*
X343137Y146242D01*
X342734Y146645D01*
X342549Y145954D01*
Y145046D01*
X342734Y144355D01*
X343137Y144758D01*
X345258Y142637D01*
X344855Y142234D01*
X345546Y142049D01*
X346454D01*
X347145Y142234D01*
X346742Y142637D01*
X348863Y144758D01*
X349266Y144355D01*
X349451Y145046D01*
Y145954D01*
X349266Y146645D01*
X348863Y146242D01*
X346742Y148363D01*
X347145Y148766D01*
X347099Y148778D01*
X347310Y150378D01*
X352785D01*
X353247Y149260D01*
X353293Y148778D01*
X352613Y148099D01*
X352056Y147134D01*
X351768Y146057D01*
Y144943D01*
X352056Y143866D01*
X352613Y142901D01*
X353401Y142113D01*
X354366Y141556D01*
X355443Y141268D01*
X356557D01*
X357634Y141556D01*
X358599Y142113D01*
X359387Y142901D01*
X359944Y143866D01*
X360232Y144943D01*
X361768D01*
X362056Y143866D01*
X362613Y142901D01*
X363401Y142113D01*
X364366Y141556D01*
X365443Y141268D01*
X366557D01*
X367634Y141556D01*
X368599Y142113D01*
X369387Y142901D01*
X369944Y143866D01*
X370232Y144943D01*
X371768D01*
X372056Y143866D01*
X372613Y142901D01*
X373401Y142113D01*
X374366Y141556D01*
X375443Y141268D01*
X376557D01*
X377634Y141556D01*
X378599Y142113D01*
X379387Y142901D01*
X379944Y143866D01*
X380232Y144943D01*
Y146057D01*
X379944Y147134D01*
X379387Y148099D01*
X378707Y148778D01*
X378753Y149260D01*
X379215Y150378D01*
X381035D01*
X385352Y146061D01*
X385716Y145818D01*
X386146Y145733D01*
X386146Y145733D01*
X389335D01*
Y145272D01*
X394665D01*
X394665Y148250D01*
X394665Y148437D01*
X395116Y149850D01*
X395589Y149850D01*
X395667Y149850D01*
X397823D01*
Y156250D01*
X397823Y157150D01*
X397823Y158750D01*
Y164250D01*
X397823Y165150D01*
X397823Y166750D01*
Y171750D01*
X397823Y173150D01*
X397823Y174615D01*
X398147Y176215D01*
X401675Y176215D01*
X402894Y174996D01*
X402827Y174833D01*
Y174167D01*
X403082Y173552D01*
X403552Y173082D01*
X404167Y172827D01*
X404833D01*
X405448Y173082D01*
X405919Y173552D01*
X406173Y174167D01*
Y174833D01*
X405919Y175448D01*
X405448Y175918D01*
X404833Y176173D01*
X404167D01*
X404004Y176106D01*
X402732Y177378D01*
X402614Y177495D01*
X402555Y177555D01*
X402555Y177555D01*
X402300Y177725D01*
X402000Y177785D01*
X401750Y177785D01*
X398072D01*
Y177785D01*
X397823D01*
X397823Y180650D01*
X397823Y182250D01*
Y188150D01*
X394067D01*
Y182250D01*
X394067Y180850D01*
X394067Y179250D01*
Y174750D01*
X394067Y173350D01*
X394067Y171750D01*
Y166750D01*
X394067Y165850D01*
X394067Y164250D01*
Y158750D01*
X394067Y157850D01*
X394067Y156250D01*
X394067Y151016D01*
X394067Y149850D01*
X393616Y148437D01*
X393143Y148437D01*
X393065Y148437D01*
X391384D01*
X390933Y149850D01*
X390933D01*
Y157150D01*
X390933Y157150D01*
Y157850D01*
X390933D01*
X390933Y158750D01*
Y164250D01*
X390933Y165150D01*
X390933Y166750D01*
Y171750D01*
X390933Y173150D01*
X390933Y174750D01*
Y179250D01*
X390933Y180650D01*
X390933Y182250D01*
Y188150D01*
X387433D01*
Y205500D01*
X387306Y205806D01*
X385306Y207806D01*
X385000Y207933D01*
X366500D01*
X366194Y207806D01*
X365194Y206806D01*
X365067Y206500D01*
Y198500D01*
X365194Y198194D01*
X365694Y197694D01*
X366000Y197567D01*
X372655D01*
X373368Y196262D01*
X373368Y195967D01*
Y195000D01*
X373876D01*
Y192000D01*
X373368D01*
Y190738D01*
X376727Y190738D01*
X377567Y189486D01*
Y185000D01*
X377694Y184694D01*
X378351Y184037D01*
X378809Y183340D01*
X378263Y181918D01*
X376500D01*
X376149Y181848D01*
X375851Y181649D01*
X374351Y180149D01*
X374152Y179851D01*
X374082Y179500D01*
Y169000D01*
Y164418D01*
X364823D01*
Y167621D01*
X364823Y167780D01*
Y169220D01*
X364823Y169379D01*
Y172620D01*
X364823Y172780D01*
Y174221D01*
X364823Y174380D01*
Y177779D01*
X364823D01*
Y179220D01*
X364823D01*
Y182780D01*
X364823D01*
Y184221D01*
X364823D01*
Y187779D01*
X357720D01*
Y186918D01*
X356000D01*
X355649Y186848D01*
X355351Y186649D01*
X353351Y184649D01*
X351854Y184879D01*
X351680Y185051D01*
Y188180D01*
X349728D01*
Y187671D01*
X346728D01*
Y188180D01*
X344777D01*
Y184880D01*
X344777Y184838D01*
X344677Y183280D01*
X344677Y183262D01*
Y179879D01*
X344677Y179720D01*
Y178279D01*
X344677Y178121D01*
Y174880D01*
X344677Y174721D01*
Y173280D01*
X344677Y173120D01*
Y169879D01*
X344677Y169720D01*
Y168280D01*
X343368Y167418D01*
X342880D01*
X333149Y177149D01*
X332851Y177348D01*
X332500Y177418D01*
X331566D01*
X330323Y178279D01*
Y179720D01*
X330323D01*
Y183280D01*
X330921Y183694D01*
X337405Y190178D01*
X338773Y190738D01*
Y190738D01*
X342132D01*
Y193993D01*
X343694Y194694D01*
X344000Y194567D01*
X362000D01*
X362306Y194694D01*
X362806Y195194D01*
X362933Y195500D01*
Y200000D01*
X362806Y200306D01*
X360806Y202306D01*
X360500Y202433D01*
X330000Y202433D01*
X329850Y202371D01*
X329699Y202311D01*
X329182Y201810D01*
X327709Y202434D01*
Y208142D01*
X322575D01*
Y202664D01*
X321925Y202178D01*
X320325Y202980D01*
Y208042D01*
X319358D01*
Y207534D01*
X316358D01*
Y208042D01*
X315391D01*
Y207308D01*
X313850Y206528D01*
X312823Y207129D01*
Y209078D01*
X312823Y209150D01*
X312996Y210678D01*
X563803D01*
X564466Y209078D01*
X554694Y199306D01*
X554567Y199000D01*
Y187000D01*
X554694Y186694D01*
X561694Y179694D01*
X562000Y179567D01*
X604692D01*
X605355Y177967D01*
X603194Y175806D01*
X603067Y175500D01*
Y161179D01*
X599812Y157924D01*
X598130Y158256D01*
X598001Y158376D01*
X597631Y159019D01*
X597018Y159631D01*
X596269Y160063D01*
X595433Y160287D01*
X594567D01*
X593731Y160063D01*
X592981Y159631D01*
X592369Y159019D01*
X591937Y158269D01*
X591713Y157433D01*
Y156567D01*
X591937Y155731D01*
X592369Y154982D01*
X592981Y154369D01*
X593624Y153999D01*
X593744Y153870D01*
X594076Y152188D01*
X579821Y137933D01*
X521000D01*
X520694Y137806D01*
X503194Y120306D01*
X503067Y120000D01*
Y98500D01*
Y93014D01*
X502227Y91762D01*
D01*
D01*
X501700Y91762D01*
X498868D01*
Y90500D01*
X499376D01*
Y87500D01*
X498868D01*
Y86238D01*
X501569Y86238D01*
X501851Y85750D01*
X501569Y85262D01*
X498868D01*
Y84638D01*
D01*
Y84000D01*
X499376D01*
Y81000D01*
X498868D01*
Y79738D01*
X502227Y79738D01*
D01*
D01*
X503067Y78486D01*
Y78334D01*
X502325Y77042D01*
D01*
D01*
X501700Y77042D01*
X501358D01*
Y76534D01*
X498358D01*
Y77042D01*
X497391D01*
Y74500D01*
X497899D01*
Y71500D01*
X497391D01*
Y68958D01*
X498358D01*
Y69466D01*
X501358D01*
Y68958D01*
X501467D01*
X502152Y68958D01*
X502325D01*
D01*
D01*
X503067Y67666D01*
Y48000D01*
X503194Y47694D01*
X504694Y46194D01*
X505000Y46067D01*
X518500D01*
X518806Y46194D01*
X521806Y49194D01*
X521933Y49500D01*
Y49594D01*
X523175Y50458D01*
X523500Y50458D01*
D01*
X524142D01*
Y50966D01*
X527142D01*
Y50458D01*
X528109D01*
Y53000D01*
X527601D01*
Y56000D01*
X528109D01*
Y58542D01*
X527142D01*
Y58034D01*
X524142D01*
Y58542D01*
X523500D01*
D01*
X523175Y58542D01*
X521933Y59406D01*
Y59779D01*
X522273Y61238D01*
X523394Y61238D01*
D01*
X525632D01*
Y62500D01*
X525124D01*
Y65500D01*
X525632D01*
Y66762D01*
X522500D01*
Y68738D01*
X525679D01*
Y70000D01*
X525171D01*
Y73000D01*
X525679D01*
Y74262D01*
X523394D01*
X523394Y74262D01*
X522321D01*
X521933Y75702D01*
Y75821D01*
X525089Y78977D01*
X526694Y78694D01*
X527000Y78567D01*
X534567D01*
Y68500D01*
X534694Y68194D01*
X540694Y62194D01*
X541000Y62067D01*
X551485D01*
X552160Y62067D01*
X552160Y62067D01*
X552261Y62109D01*
X552370Y62121D01*
X552370Y62121D01*
X552695Y62301D01*
X552734Y62350D01*
X552792Y62374D01*
X552834Y62475D01*
X552902Y62560D01*
X552902Y62560D01*
X554494Y62580D01*
X555927D01*
X555945Y62580D01*
X556623Y62623D01*
X556686Y62686D01*
X557486Y62680D01*
X557503D01*
X557503D01*
X557545Y62680D01*
X557667D01*
X557667D01*
X560845D01*
Y64582D01*
X560337D01*
Y67582D01*
X560845D01*
Y69484D01*
X557800D01*
X557486Y69484D01*
X557000Y70082D01*
Y73458D01*
X557358D01*
Y73966D01*
X560358D01*
Y73458D01*
X561325D01*
Y76000D01*
X560817D01*
Y79000D01*
X561325D01*
Y81542D01*
X560358D01*
Y81034D01*
X557358D01*
Y81542D01*
X556433D01*
Y85500D01*
X556306Y85806D01*
X555751Y86361D01*
X556015Y86985D01*
X555850Y87150D01*
X556181Y87950D01*
X556410Y87950D01*
X559333D01*
Y90000D01*
X558825D01*
Y93000D01*
X559333D01*
Y95050D01*
X555777D01*
Y93000D01*
X556285D01*
Y90000D01*
X555777D01*
Y88592D01*
X555777Y88354D01*
X555421Y88207D01*
X554977Y88023D01*
X554811Y88188D01*
X554188Y87924D01*
X551933Y90179D01*
Y98500D01*
X551806Y98806D01*
X550306Y100306D01*
X550000Y100433D01*
X537000D01*
X535933Y101636D01*
Y105000D01*
X535806Y105306D01*
X535500Y105433D01*
Y106500D01*
X527607D01*
X527212Y108100D01*
X532679Y113567D01*
X590000D01*
X590306Y113694D01*
X618306Y141694D01*
X618433Y142000D01*
X618433Y174500D01*
X618306Y174806D01*
X616499Y176613D01*
X617026Y178349D01*
X617036Y178351D01*
X637503Y157884D01*
X637437Y157769D01*
X637213Y156933D01*
Y156067D01*
X637437Y155231D01*
X637869Y154481D01*
X638482Y153869D01*
X639231Y153437D01*
X640067Y153213D01*
X640933D01*
X641769Y153437D01*
X641884Y153503D01*
X652194Y143194D01*
X652500Y143067D01*
X680821D01*
X699567Y124321D01*
Y99179D01*
X699194Y98806D01*
X699067Y98500D01*
Y93014D01*
X698227Y91762D01*
D01*
D01*
X697700Y91762D01*
X694868D01*
Y90500D01*
X695376D01*
Y87500D01*
X694868D01*
Y86238D01*
X697569Y86238D01*
X697851Y85750D01*
X697569Y85262D01*
X694868D01*
Y84000D01*
X695376D01*
Y81000D01*
X694868D01*
Y79738D01*
X698227Y79738D01*
D01*
D01*
X699067Y78486D01*
Y78334D01*
X698325Y77042D01*
D01*
D01*
X697700Y77042D01*
X697358D01*
Y76534D01*
X694358D01*
Y77042D01*
X693391D01*
Y74500D01*
X693899D01*
Y71500D01*
X693391D01*
Y68958D01*
X694358D01*
Y69466D01*
X697358D01*
Y68958D01*
X697467D01*
X698152Y68958D01*
X698325D01*
D01*
D01*
X699067Y67666D01*
Y48000D01*
X699194Y47694D01*
X700694Y46194D01*
X701000Y46067D01*
X714500D01*
X714806Y46194D01*
X717806Y49194D01*
X717933Y49500D01*
Y49594D01*
X719175Y50458D01*
X719500Y50458D01*
D01*
X720142D01*
Y50966D01*
X723142D01*
Y50458D01*
X724109D01*
Y53000D01*
X723601D01*
Y56000D01*
X724109D01*
Y58542D01*
X723142D01*
Y58034D01*
X720142D01*
Y58542D01*
X719500D01*
D01*
X719175Y58542D01*
X717933Y59406D01*
Y59779D01*
X718273Y61238D01*
X719394Y61238D01*
D01*
X721632D01*
Y62500D01*
X721124D01*
Y65500D01*
X721632D01*
Y66762D01*
X718500D01*
Y68738D01*
X721679D01*
Y70000D01*
X721171D01*
Y73000D01*
X721679D01*
Y74262D01*
X719394D01*
X719394Y74262D01*
X718321D01*
X717933Y75702D01*
Y75821D01*
X721089Y78977D01*
X722694Y78694D01*
X723000Y78567D01*
X730567D01*
Y68500D01*
X730694Y68194D01*
X736694Y62194D01*
X737000Y62067D01*
X747485D01*
X748160Y62067D01*
X748160Y62067D01*
X748261Y62109D01*
X748370Y62121D01*
X748370Y62121D01*
X748695Y62301D01*
X748734Y62350D01*
X748792Y62374D01*
X748834Y62475D01*
X748902Y62560D01*
X748902Y62560D01*
X750494Y62580D01*
X751927D01*
X751945Y62580D01*
X752623Y62623D01*
X752686Y62686D01*
X753486Y62680D01*
X753503D01*
X753503D01*
X753545Y62680D01*
X753667D01*
X753667D01*
X756845D01*
Y64582D01*
X756337D01*
Y67582D01*
X756845D01*
Y69484D01*
X753800D01*
X753486Y69484D01*
X753000Y70082D01*
Y73458D01*
X753358D01*
Y73966D01*
X756358D01*
Y73458D01*
X757325D01*
Y76000D01*
X756817D01*
Y79000D01*
X757325D01*
Y81542D01*
X756358D01*
Y81034D01*
X753358D01*
Y81542D01*
X752433D01*
Y85500D01*
X752306Y85806D01*
X751751Y86361D01*
X752015Y86985D01*
X751850Y87150D01*
X752181Y87950D01*
X752410Y87950D01*
X752425D01*
D01*
X755333D01*
Y90000D01*
X754825D01*
Y93000D01*
X755333D01*
Y95050D01*
X751777D01*
Y93000D01*
X752285D01*
Y90000D01*
X751777D01*
Y88598D01*
D01*
Y88592D01*
X751777Y88354D01*
X751421Y88207D01*
X750977Y88023D01*
X750811Y88188D01*
X750188Y87924D01*
X747933Y90179D01*
Y98500D01*
X747806Y98806D01*
X746306Y100306D01*
X746000Y100433D01*
X733000D01*
X731933Y101636D01*
Y105000D01*
X733227Y105975D01*
X748722D01*
X751677Y103020D01*
Y95850D01*
X755433D01*
Y96608D01*
Y103131D01*
X756302Y104000D01*
X756912Y104610D01*
D01*
X757028Y104726D01*
X770972D01*
X771756Y103942D01*
X771424Y103142D01*
X771075D01*
Y94858D01*
X776209D01*
Y103142D01*
X774916D01*
Y103858D01*
X774819Y104346D01*
X774543Y104759D01*
X772401Y106901D01*
X771988Y107177D01*
X771500Y107274D01*
X756500D01*
X756012Y107177D01*
X755599Y106901D01*
X753500Y104802D01*
X750151Y108151D01*
X749738Y108428D01*
X749250Y108525D01*
X723000D01*
Y147933D01*
X722873Y148239D01*
X694306Y176806D01*
X694000Y176933D01*
X657179D01*
X651433Y182679D01*
Y197000D01*
X651306Y197306D01*
X639534Y209078D01*
X640197Y210678D01*
X820520D01*
Y192598D01*
D02*
G37*
G36*
X747500Y98500D02*
Y90000D01*
X752000Y85500D01*
Y69819D01*
X751845Y69484D01*
X748486D01*
Y67582D01*
X748994D01*
Y64582D01*
X748486D01*
Y62680D01*
X748160Y62500D01*
X737000D01*
X731000Y68500D01*
Y78567D01*
X731500D01*
X731806Y78694D01*
X731933Y79000D01*
Y98933D01*
X733000Y100000D01*
X746000D01*
X747500Y98500D01*
D02*
G37*
G36*
X551500D02*
Y90000D01*
X556000Y85500D01*
Y69819D01*
X555845Y69484D01*
X552486D01*
Y67582D01*
X552994D01*
Y64582D01*
X552486D01*
Y62680D01*
X552160Y62500D01*
X541000D01*
X535000Y68500D01*
Y78567D01*
X535500D01*
X535806Y78694D01*
X535933Y79000D01*
Y98933D01*
X537000Y100000D01*
X550000D01*
X551500Y98500D01*
D02*
G37*
G36*
X453500Y98000D02*
Y89500D01*
X458000Y85000D01*
Y69319D01*
X457845Y68984D01*
X454486D01*
Y67082D01*
X454994D01*
Y64082D01*
X454486D01*
Y62180D01*
X454160Y62000D01*
X443000D01*
X437000Y68000D01*
Y78067D01*
X437500D01*
X437806Y78194D01*
X437933Y78500D01*
Y98433D01*
X439000Y99500D01*
X452000D01*
X453500Y98000D01*
D02*
G37*
G36*
X364674Y78500D02*
X366000Y77175D01*
Y69000D01*
X367000Y68000D01*
X370500D01*
X372000Y66500D01*
Y65549D01*
X371727Y65262D01*
X371600Y65262D01*
X368368D01*
Y64000D01*
X368876D01*
Y61000D01*
X368368D01*
Y59738D01*
X371600D01*
X371727Y59738D01*
X372000Y59451D01*
Y56042D01*
X371217D01*
Y55534D01*
X368217D01*
Y56042D01*
X367250D01*
Y53500D01*
X367758D01*
Y50500D01*
X367250D01*
Y47958D01*
X368217D01*
Y48466D01*
X371217D01*
Y47958D01*
X372000D01*
Y46000D01*
X370000Y44000D01*
X369500D01*
X379500Y34000D01*
Y29000D01*
X394498Y14002D01*
X394567Y13933D01*
Y13567D01*
X394567Y13567D01*
X394567Y13566D01*
X394630Y13415D01*
X394694Y13261D01*
X394694Y13261D01*
X394695Y13260D01*
X395262Y12696D01*
X395263Y12696D01*
X395263Y12695D01*
X395415Y12633D01*
X395568Y12570D01*
X395569Y12570D01*
X395570Y12570D01*
X456011Y12902D01*
X456090Y12935D01*
X456175Y12936D01*
X456236Y12997D01*
X456316Y13031D01*
X456349Y13110D01*
X456409Y13171D01*
X456713Y13911D01*
X456946Y14054D01*
X455500Y15500D01*
Y36500D01*
X459000Y40000D01*
Y47500D01*
X459500Y48000D01*
X462500D01*
X463000Y47500D01*
Y39500D01*
X465000Y37500D01*
X468500D01*
X470000Y36000D01*
Y35049D01*
X469727Y34762D01*
X469600Y34762D01*
X466368D01*
Y33500D01*
X466876D01*
Y30500D01*
X466368D01*
Y29238D01*
X469600D01*
X469727Y29238D01*
X470000Y28951D01*
Y25542D01*
X469217D01*
Y25034D01*
X466217D01*
Y25542D01*
X465250D01*
Y23000D01*
X465758D01*
Y20000D01*
X465250D01*
Y17458D01*
X466217D01*
Y17966D01*
X469217D01*
Y17458D01*
X470000D01*
Y15500D01*
X468646Y14146D01*
X468828Y14146D01*
X468860Y14068D01*
X468861Y13981D01*
X469169Y13243D01*
X469230Y13182D01*
X469264Y13102D01*
X469343Y13070D01*
X469404Y13009D01*
X469491Y13010D01*
X469571Y12977D01*
X486002Y13067D01*
X486154Y13131D01*
X486306Y13194D01*
X487294Y14182D01*
X492197Y14192D01*
X492567Y14066D01*
X492630Y13915D01*
X492694Y13761D01*
X492694Y13761D01*
X492695Y13760D01*
X493262Y13196D01*
X493262Y13196D01*
X493263Y13195D01*
X493415Y13133D01*
X493568Y13070D01*
X493569Y13070D01*
X493570Y13070D01*
X554011Y13402D01*
X554090Y13435D01*
X554175Y13436D01*
X554236Y13497D01*
X554316Y13531D01*
X554349Y13610D01*
X554409Y13671D01*
X554673Y14313D01*
X555186Y14314D01*
X553500Y16000D01*
Y37000D01*
X556000Y39500D01*
Y47000D01*
X558000Y49000D01*
X560000D01*
X562000Y47000D01*
Y39000D01*
X563000Y38000D01*
X566500D01*
X568000Y36500D01*
Y35549D01*
X567727Y35262D01*
X567600Y35262D01*
X564368D01*
Y34000D01*
X564876D01*
Y31000D01*
X564368D01*
Y29738D01*
X567600D01*
X567727Y29738D01*
X568000Y29451D01*
Y26042D01*
X567217D01*
Y25534D01*
X564217D01*
Y26042D01*
X563250D01*
Y23500D01*
X563758D01*
Y20500D01*
X563250D01*
Y17958D01*
X564217D01*
Y18466D01*
X567217D01*
Y17958D01*
X568000D01*
Y16000D01*
X566336Y14336D01*
X566921Y14337D01*
X567169Y13743D01*
X567230Y13682D01*
X567264Y13602D01*
X567343Y13570D01*
X567404Y13509D01*
X567491Y13510D01*
X567571Y13477D01*
X584002Y13567D01*
X584154Y13631D01*
X584306Y13694D01*
X584984Y14372D01*
X591284Y14384D01*
X591503Y14165D01*
X591567Y14066D01*
X591630Y13915D01*
X591694Y13761D01*
X591694Y13761D01*
X591695Y13760D01*
X592262Y13196D01*
X592263Y13196D01*
X592263Y13195D01*
X592415Y13133D01*
X592568Y13070D01*
X592569Y13070D01*
X592570Y13070D01*
X653011Y13402D01*
X653090Y13435D01*
X653175Y13436D01*
X653236Y13497D01*
X653316Y13531D01*
X653349Y13610D01*
X653409Y13671D01*
X653713Y14411D01*
X654016Y14484D01*
X652500Y16000D01*
Y37000D01*
X655000Y39500D01*
X655000Y47200D01*
X656800Y49000D01*
X659174D01*
X661000Y47175D01*
X661000Y39000D01*
X662000Y38000D01*
X665500D01*
X667000Y36500D01*
Y35549D01*
X666727Y35262D01*
X666600Y35262D01*
X663368D01*
Y34000D01*
X663876D01*
Y31000D01*
X663368D01*
Y29738D01*
X666600D01*
X666727Y29738D01*
X667000Y29451D01*
Y26042D01*
X666217D01*
Y25534D01*
X663217D01*
Y26042D01*
X662250D01*
Y23500D01*
X662758D01*
Y20500D01*
X662250D01*
Y17958D01*
X663217D01*
Y18466D01*
X666217D01*
Y17958D01*
X667000D01*
Y16000D01*
X665528Y14528D01*
X665861Y14529D01*
X665861Y14481D01*
X666169Y13743D01*
X666230Y13682D01*
X666264Y13602D01*
X666343Y13570D01*
X666404Y13509D01*
X666491Y13510D01*
X666571Y13477D01*
X683002Y13567D01*
X683154Y13631D01*
X683306Y13694D01*
X684177Y14564D01*
X688284Y14572D01*
X688567Y14290D01*
Y14067D01*
X688567Y14067D01*
X688567Y14066D01*
X688630Y13915D01*
X688694Y13761D01*
X688694Y13761D01*
X688695Y13760D01*
X689262Y13196D01*
X689262Y13196D01*
X689263Y13195D01*
X689415Y13133D01*
X689568Y13070D01*
X689569Y13070D01*
X689570Y13070D01*
X750011Y13402D01*
X750090Y13435D01*
X750175Y13436D01*
X750236Y13497D01*
X750316Y13531D01*
X750349Y13610D01*
X750409Y13671D01*
X750713Y14411D01*
X750912Y14588D01*
X749500Y16000D01*
Y37000D01*
X752000Y39500D01*
Y47000D01*
X753500Y48500D01*
X756500D01*
X758000Y47000D01*
Y39000D01*
X759000Y38000D01*
X762500D01*
X764000Y36500D01*
Y35549D01*
X763727Y35262D01*
X763600Y35262D01*
X760368D01*
Y34000D01*
X760876D01*
Y31000D01*
X760368D01*
Y29738D01*
X763600D01*
X763727Y29738D01*
X764000Y29451D01*
Y26042D01*
X763217D01*
Y25534D01*
X760217D01*
Y26042D01*
X759250D01*
Y23500D01*
X759758D01*
Y20500D01*
X759250D01*
Y17958D01*
X760217D01*
Y18466D01*
X763217D01*
Y17958D01*
X764000D01*
Y16000D01*
X762717Y14717D01*
X762781Y14717D01*
X762827Y14648D01*
X762860Y14568D01*
X762861Y14481D01*
X763169Y13743D01*
X763230Y13682D01*
X763264Y13602D01*
X763343Y13570D01*
X763404Y13509D01*
X763491Y13510D01*
X763571Y13477D01*
X780002Y13567D01*
X780154Y13631D01*
X780306Y13694D01*
X780556Y13944D01*
X783000Y11500D01*
Y1606D01*
X597717D01*
X597102Y1483D01*
X596581Y1135D01*
X596233Y614D01*
X596111Y0D01*
X565700D01*
X565578Y614D01*
X565230Y1135D01*
X564709Y1483D01*
X564094Y1606D01*
X373394D01*
X360000Y15000D01*
Y43500D01*
X360500Y44000D01*
X359500D01*
X357500Y46000D01*
Y67000D01*
X361000Y70500D01*
Y78000D01*
X361500Y78500D01*
X364674Y78500D01*
D02*
G37*
G36*
X651000Y197000D02*
Y182500D01*
X657000Y176500D01*
X694000D01*
X722567Y147933D01*
Y105000D01*
Y99433D01*
Y81067D01*
X717500Y76000D01*
Y49500D01*
X714500Y46500D01*
X701000D01*
X699500Y48000D01*
Y98500D01*
X700000Y99000D01*
Y124500D01*
X681000Y143500D01*
X652500D01*
X616000Y180000D01*
X562000D01*
X555000Y187000D01*
Y199000D01*
X566000Y210000D01*
X638000D01*
X651000Y197000D01*
D02*
G37*
G36*
X618000Y174500D02*
X618000Y142000D01*
X590000Y114000D01*
X532500D01*
X526500Y108000D01*
Y99500D01*
X526567Y99433D01*
Y81067D01*
X526500Y81000D01*
D01*
X521500Y76000D01*
Y49500D01*
X518500Y46500D01*
X505000D01*
X503500Y48000D01*
Y98500D01*
D01*
Y120000D01*
X521000Y137500D01*
X580000D01*
X596666Y154166D01*
X597018Y154369D01*
X597631Y154982D01*
X597834Y155334D01*
X603500Y161000D01*
Y175500D01*
X606500Y178500D01*
X614000D01*
X618000Y174500D01*
D02*
G37*
%LPC*%
G36*
X361841Y199581D02*
X360579D01*
Y199073D01*
X357579D01*
Y199581D01*
X356317D01*
Y196419D01*
X357579D01*
Y196927D01*
X360579D01*
Y196419D01*
X361841D01*
Y199581D01*
D02*
G37*
G36*
X325837Y197565D02*
X322872D01*
Y196500D01*
X323380D01*
Y193500D01*
X322872D01*
Y192435D01*
X325837D01*
Y193500D01*
X325329D01*
Y196500D01*
X325837D01*
Y197565D01*
D02*
G37*
G36*
X336227Y196262D02*
X332868D01*
Y195000D01*
X333376D01*
Y192000D01*
X332868D01*
Y190738D01*
X336227D01*
Y192000D01*
X335719D01*
Y195000D01*
X336227D01*
Y196262D01*
D02*
G37*
G36*
X330223Y188180D02*
X328272D01*
Y187671D01*
X325272D01*
Y188180D01*
X323320D01*
Y184820D01*
X325272D01*
Y185329D01*
X328272D01*
Y184820D01*
X330223D01*
Y188180D01*
D02*
G37*
G36*
X314321Y158809D02*
X311159D01*
Y157547D01*
X311667D01*
Y154547D01*
X311159D01*
Y153285D01*
X314321D01*
Y154547D01*
X313813D01*
Y157547D01*
X314321D01*
Y158809D01*
D02*
G37*
G36*
X315109Y151010D02*
X314142D01*
Y150502D01*
X311142D01*
Y151010D01*
X310175D01*
Y148469D01*
X310683D01*
Y145469D01*
X310175D01*
Y142927D01*
X311142D01*
Y143435D01*
X314142D01*
Y142927D01*
X315109D01*
Y145469D01*
X314601D01*
Y148469D01*
X315109D01*
Y151010D01*
D02*
G37*
G36*
X371683Y203321D02*
X370421D01*
Y202813D01*
X367421D01*
Y203321D01*
X366159D01*
Y200159D01*
X367421D01*
Y200667D01*
X370421D01*
Y200159D01*
X371683D01*
Y203321D01*
D02*
G37*
G36*
X382632Y196262D02*
X379273D01*
Y195000D01*
X379781D01*
Y192000D01*
X379273D01*
Y190738D01*
X382632D01*
Y192000D01*
X382124D01*
Y195000D01*
X382632D01*
Y196262D01*
D02*
G37*
G36*
X386180Y187680D02*
X384228D01*
Y187171D01*
X381228D01*
Y187680D01*
X379277D01*
Y184320D01*
X381228D01*
Y184829D01*
X384228D01*
Y184320D01*
X386180D01*
Y187680D01*
D02*
G37*
G36*
X512471Y174691D02*
X511458D01*
X510498Y174434D01*
X510909Y174024D01*
X508787Y171902D01*
X508377Y172313D01*
X508120Y171353D01*
Y170340D01*
X508377Y169380D01*
X508787Y169791D01*
X510909Y167669D01*
X510498Y167259D01*
X511458Y167002D01*
X512471D01*
X513431Y167259D01*
X513020Y167669D01*
X515142Y169791D01*
X515552Y169380D01*
X515809Y170340D01*
Y171353D01*
X515552Y172313D01*
X515142Y171902D01*
X513020Y174024D01*
X513431Y174434D01*
X512471Y174691D01*
D02*
G37*
G36*
X496038Y175472D02*
X494820D01*
X493644Y175157D01*
X492589Y174548D01*
X491727Y173687D01*
X491118Y172632D01*
X490803Y171456D01*
Y170237D01*
X491118Y169061D01*
X491727Y168006D01*
X492589Y167145D01*
X493644Y166536D01*
X494820Y166220D01*
X496038D01*
X497215Y166536D01*
X498270Y167145D01*
X499131Y168006D01*
X499740Y169061D01*
X500055Y170237D01*
Y171456D01*
X499740Y172632D01*
X499131Y173687D01*
X498270Y174548D01*
X497215Y175157D01*
X496038Y175472D01*
D02*
G37*
G36*
X495933Y160787D02*
X495067D01*
X494231Y160563D01*
X493481Y160131D01*
X492869Y159519D01*
X492437Y158769D01*
X492213Y157933D01*
Y157067D01*
X492437Y156231D01*
X492869Y155482D01*
X493481Y154869D01*
X494231Y154437D01*
X495067Y154213D01*
X495933D01*
X496769Y154437D01*
X497518Y154869D01*
X498131Y155482D01*
X498563Y156231D01*
X498787Y157067D01*
Y157933D01*
X498563Y158769D01*
X498131Y159519D01*
X497518Y160131D01*
X496769Y160563D01*
X495933Y160787D01*
D02*
G37*
G36*
X402762Y137727D02*
X401500D01*
Y137219D01*
X398500D01*
Y137727D01*
X397238D01*
Y134368D01*
X398500D01*
Y134876D01*
X401500D01*
Y134368D01*
X402762D01*
Y137727D01*
D02*
G37*
G36*
X451227Y140262D02*
X447868D01*
Y139000D01*
X448376D01*
Y136000D01*
X447868D01*
Y134738D01*
X451227D01*
Y136000D01*
X450719D01*
Y139000D01*
X451227D01*
Y140262D01*
D02*
G37*
G36*
X430565Y128628D02*
X429500D01*
Y128120D01*
X426500D01*
Y128628D01*
X425435D01*
Y125663D01*
X426500D01*
Y126171D01*
X429500D01*
Y125663D01*
X430565D01*
Y128628D01*
D02*
G37*
G36*
X445362Y116327D02*
X439638D01*
Y115504D01*
X439581Y115448D01*
X439327Y114833D01*
Y114167D01*
X439581Y113552D01*
X439638Y113496D01*
Y112768D01*
X445362D01*
Y113496D01*
X445419Y113552D01*
X445673Y114167D01*
Y114833D01*
X445419Y115448D01*
X445362Y115504D01*
Y116327D01*
D02*
G37*
G36*
X427798Y97707D02*
X423583D01*
Y97199D01*
X420583D01*
Y97707D01*
X416368D01*
Y93000D01*
X416876D01*
Y90000D01*
X416368D01*
Y85293D01*
X420583D01*
Y85801D01*
X423583D01*
Y85293D01*
X427798D01*
Y90000D01*
X427289D01*
Y93000D01*
X427798D01*
Y97707D01*
D02*
G37*
G36*
X410132Y91262D02*
X406773D01*
Y90000D01*
X407281D01*
Y87000D01*
X406773D01*
Y85738D01*
X410132D01*
Y87000D01*
X409624D01*
Y90000D01*
X410132D01*
Y91262D01*
D02*
G37*
G36*
Y84762D02*
X406773D01*
Y83500D01*
X407281D01*
Y80500D01*
X406773D01*
Y79238D01*
X410132D01*
Y80500D01*
X409624D01*
Y83500D01*
X410132D01*
Y84762D01*
D02*
G37*
G36*
X411609Y76542D02*
X410642D01*
Y76034D01*
X407642D01*
Y76542D01*
X406675D01*
Y74000D01*
X407183D01*
Y71000D01*
X406675D01*
Y68458D01*
X407642D01*
Y68966D01*
X410642D01*
Y68458D01*
X411609D01*
Y71000D01*
X411101D01*
Y74000D01*
X411609D01*
Y76542D01*
D02*
G37*
G36*
X421774Y73762D02*
X418415D01*
Y72500D01*
X418923D01*
Y69500D01*
X418415D01*
Y68238D01*
X421774D01*
Y69500D01*
X421266D01*
Y72500D01*
X421774D01*
Y73762D01*
D02*
G37*
G36*
X421727Y66262D02*
X418368D01*
Y65000D01*
X418876D01*
Y62000D01*
X418368D01*
Y60738D01*
X421727D01*
Y62000D01*
X421219D01*
Y65000D01*
X421727D01*
Y66262D01*
D02*
G37*
G36*
X422825Y58042D02*
X421858D01*
Y57534D01*
X418858D01*
Y58042D01*
X417891D01*
Y55500D01*
X418399D01*
Y52500D01*
X417891D01*
Y49958D01*
X418858D01*
Y50466D01*
X421858D01*
Y49958D01*
X422825D01*
Y52500D01*
X422317D01*
Y55500D01*
X422825D01*
Y58042D01*
D02*
G37*
%LPD*%
G36*
X496602Y160160D02*
X497253Y159784D01*
X497784Y159253D01*
X498160Y158602D01*
X498354Y157876D01*
Y157124D01*
X498160Y156398D01*
X497784Y155747D01*
X497253Y155216D01*
X496602Y154840D01*
X495876Y154646D01*
X495124D01*
X494398Y154840D01*
X493747Y155216D01*
X493216Y155747D01*
X492840Y156398D01*
X492646Y157124D01*
Y157876D01*
X492840Y158602D01*
X493216Y159253D01*
X493747Y159784D01*
X494398Y160160D01*
X495124Y160354D01*
X495876D01*
X496602Y160160D01*
D02*
G37*
%LPC*%
G36*
X371683Y195841D02*
X370421D01*
Y195333D01*
X367421D01*
Y195841D01*
X366159D01*
Y192679D01*
X367421D01*
Y193187D01*
X370421D01*
Y192679D01*
X371683D01*
Y195841D01*
D02*
G37*
G36*
X512471Y196345D02*
X511458D01*
X510498Y196088D01*
X510909Y195677D01*
X508787Y193556D01*
X508377Y193966D01*
X508120Y193006D01*
Y191994D01*
X508377Y191034D01*
X508787Y191444D01*
X510909Y189323D01*
X510498Y188912D01*
X511458Y188655D01*
X512471D01*
X513431Y188912D01*
X513020Y189323D01*
X515142Y191444D01*
X515552Y191034D01*
X515809Y191994D01*
Y193006D01*
X515552Y193966D01*
X515142Y193556D01*
X513020Y195677D01*
X513431Y196088D01*
X512471Y196345D01*
D02*
G37*
G36*
X495935D02*
X494923D01*
X493963Y196088D01*
X494373Y195677D01*
X492252Y193556D01*
X491842Y193966D01*
X491584Y193006D01*
Y191994D01*
X491842Y191034D01*
X492252Y191444D01*
X494373Y189323D01*
X493963Y188912D01*
X494923Y188655D01*
X495935D01*
X496895Y188912D01*
X496485Y189323D01*
X498606Y191444D01*
X499017Y191034D01*
X499274Y191994D01*
Y193006D01*
X499017Y193966D01*
X498606Y193556D01*
X496485Y195677D01*
X496895Y196088D01*
X495935Y196345D01*
D02*
G37*
G36*
X741464Y193400D02*
X740174D01*
X738928Y193066D01*
X738577Y192864D01*
X738956Y192484D01*
X736835Y190363D01*
X736455Y190742D01*
X736253Y190391D01*
X735919Y189145D01*
Y187855D01*
X736253Y186609D01*
X736455Y186258D01*
X736835Y186637D01*
X738956Y184516D01*
X738577Y184136D01*
X738928Y183934D01*
X740174Y183600D01*
X741464D01*
X742710Y183934D01*
X743061Y184136D01*
X742682Y184516D01*
X744803Y186637D01*
X745183Y186258D01*
X745385Y186609D01*
X745719Y187855D01*
Y189145D01*
X745385Y190391D01*
X745183Y190742D01*
X744803Y190363D01*
X742682Y192484D01*
X743061Y192864D01*
X742710Y193066D01*
X741464Y193400D01*
D02*
G37*
G36*
X725874D02*
X724583D01*
X723337Y193066D01*
X722986Y192864D01*
X723365Y192484D01*
X721244Y190363D01*
X720865Y190742D01*
X720662Y190391D01*
X720328Y189145D01*
Y187855D01*
X720662Y186609D01*
X720865Y186258D01*
X721244Y186637D01*
X723365Y184516D01*
X722986Y184136D01*
X723337Y183934D01*
X724583Y183600D01*
X725874D01*
X727120Y183934D01*
X727471Y184136D01*
X727091Y184516D01*
X729213Y186637D01*
X729592Y186258D01*
X729795Y186609D01*
X730128Y187855D01*
Y189145D01*
X729795Y190391D01*
X729592Y190742D01*
X729213Y190363D01*
X727091Y192484D01*
X727471Y192864D01*
X727120Y193066D01*
X725874Y193400D01*
D02*
G37*
G36*
X710283D02*
X708993D01*
X707747Y193066D01*
X707396Y192864D01*
X707775Y192484D01*
X705653Y190363D01*
X705274Y190742D01*
X705072Y190391D01*
X704738Y189145D01*
Y187855D01*
X705072Y186609D01*
X705274Y186258D01*
X705653Y186637D01*
X707775Y184516D01*
X707396Y184136D01*
X707747Y183934D01*
X708993Y183600D01*
X710283D01*
X711529Y183934D01*
X711880Y184136D01*
X711501Y184516D01*
X713622Y186637D01*
X714001Y186258D01*
X714204Y186609D01*
X714538Y187855D01*
Y189145D01*
X714204Y190391D01*
X714001Y190742D01*
X713622Y190363D01*
X711501Y192484D01*
X711880Y192864D01*
X711529Y193066D01*
X710283Y193400D01*
D02*
G37*
G36*
X694692D02*
X693402D01*
X692156Y193066D01*
X691805Y192864D01*
X692184Y192484D01*
X690063Y190363D01*
X689684Y190742D01*
X689481Y190391D01*
X689147Y189145D01*
Y187855D01*
X689481Y186609D01*
X689684Y186258D01*
X690063Y186637D01*
X692184Y184516D01*
X691805Y184136D01*
X692156Y183934D01*
X693402Y183600D01*
X694692D01*
X695938Y183934D01*
X696289Y184136D01*
X695910Y184516D01*
X698032Y186637D01*
X698411Y186258D01*
X698613Y186609D01*
X698947Y187855D01*
Y189145D01*
X698613Y190391D01*
X698411Y190742D01*
X698032Y190363D01*
X695910Y192484D01*
X696289Y192864D01*
X695938Y193066D01*
X694692Y193400D01*
D02*
G37*
G36*
X545645Y197126D02*
X544426D01*
X543250Y196811D01*
X542195Y196202D01*
X541334Y195340D01*
X540725Y194286D01*
X540410Y193109D01*
Y191891D01*
X540725Y190714D01*
X541334Y189660D01*
X542195Y188798D01*
X543250Y188189D01*
X544426Y187874D01*
X545645D01*
X546821Y188189D01*
X547876Y188798D01*
X548737Y189660D01*
X549346Y190714D01*
X549661Y191891D01*
Y193109D01*
X549346Y194286D01*
X548737Y195340D01*
X547876Y196202D01*
X546821Y196811D01*
X545645Y197126D01*
D02*
G37*
G36*
X529109D02*
X527891D01*
X526714Y196811D01*
X525660Y196202D01*
X524798Y195340D01*
X524189Y194286D01*
X523874Y193109D01*
Y191891D01*
X524189Y190714D01*
X524798Y189660D01*
X525660Y188798D01*
X526714Y188189D01*
X527891Y187874D01*
X529109D01*
X530286Y188189D01*
X531340Y188798D01*
X532202Y189660D01*
X532811Y190714D01*
X533126Y191891D01*
Y193109D01*
X532811Y194286D01*
X532202Y195340D01*
X531340Y196202D01*
X530286Y196811D01*
X529109Y197126D01*
D02*
G37*
G36*
X484000Y200433D02*
X460000D01*
X459694Y200306D01*
X455694Y196306D01*
X455567Y196000D01*
Y188179D01*
X453582Y186194D01*
X452283Y187158D01*
X452300Y187190D01*
X452821Y188906D01*
X452996Y190689D01*
X452821Y192473D01*
X452300Y194187D01*
X451455Y195768D01*
X450319Y197153D01*
X448933Y198290D01*
X447353Y199135D01*
X445638Y199655D01*
X443854Y199831D01*
X442071Y199655D01*
X440356Y199135D01*
X438775Y198290D01*
X437390Y197153D01*
X436253Y195768D01*
X435408Y194187D01*
X434888Y192473D01*
X434713Y190689D01*
X434888Y188906D01*
X435408Y187190D01*
X436253Y185610D01*
X437390Y184225D01*
X438775Y183088D01*
X438878Y183033D01*
X438477Y181433D01*
X424055D01*
X423975Y181400D01*
X423889D01*
X422637Y180881D01*
X420548Y180322D01*
X418404Y180039D01*
X416242D01*
X414098Y180322D01*
X412455Y180762D01*
X412397Y180754D01*
X412343Y180776D01*
X412239Y180733D01*
X412127Y180718D01*
X412091Y180672D01*
X412037Y180649D01*
X408194Y176806D01*
X408067Y176500D01*
Y159679D01*
X405221D01*
Y152675D01*
X408365D01*
X408473Y152414D01*
X408761Y152127D01*
X409067Y152000D01*
X412821D01*
X413127Y152127D01*
X413675Y152675D01*
X413779D01*
Y152779D01*
X414500Y153500D01*
Y164500D01*
X415373Y165373D01*
X415773Y165208D01*
Y164500D01*
X416281D01*
Y161500D01*
X415773D01*
Y160238D01*
X419132D01*
Y161500D01*
X418624D01*
Y164500D01*
X419132D01*
Y164561D01*
D01*
Y165600D01*
X419132Y165762D01*
X419434Y166000D01*
X423500D01*
X423561Y165939D01*
D01*
X423806Y165694D01*
X424112Y165567D01*
X449500D01*
X449806Y165694D01*
X456262Y172150D01*
X457494Y171568D01*
X457732Y171357D01*
Y170237D01*
X458047Y169061D01*
X458657Y168006D01*
X459518Y167145D01*
X460573Y166536D01*
X461749Y166220D01*
X462967D01*
X464144Y166536D01*
X465199Y167145D01*
X466060Y168006D01*
X466669Y169061D01*
X466984Y170237D01*
Y171456D01*
X466669Y172632D01*
X466060Y173687D01*
X465280Y174467D01*
X465306Y174835D01*
X465768Y176067D01*
X475484D01*
X475946Y174835D01*
X475972Y174467D01*
X475192Y173687D01*
X474583Y172632D01*
X474268Y171456D01*
Y170237D01*
X474583Y169061D01*
X475192Y168006D01*
X476053Y167145D01*
X477108Y166536D01*
X478285Y166220D01*
X479503D01*
X480679Y166536D01*
X481734Y167145D01*
X482595Y168006D01*
X483204Y169061D01*
X483520Y170237D01*
Y171456D01*
X483204Y172632D01*
X482595Y173687D01*
X481815Y174467D01*
X481868Y175208D01*
X482177Y176140D01*
X482306Y176194D01*
X487306Y181194D01*
X487433Y181500D01*
Y197000D01*
X487306Y197306D01*
X484306Y200306D01*
X484000Y200433D01*
D02*
G37*
G36*
X788339Y194181D02*
X786843D01*
X785398Y193794D01*
X784102Y193046D01*
X783045Y191988D01*
X782297Y190693D01*
X781910Y189248D01*
Y187752D01*
X782297Y186307D01*
X783045Y185012D01*
X784102Y183954D01*
X785398Y183206D01*
X786843Y182819D01*
X788339D01*
X789783Y183206D01*
X791079Y183954D01*
X792137Y185012D01*
X792884Y186307D01*
X793272Y187752D01*
Y189248D01*
X792884Y190693D01*
X792137Y191988D01*
X791079Y193046D01*
X789783Y193794D01*
X788339Y194181D01*
D02*
G37*
G36*
X772748D02*
X771252D01*
X769807Y193794D01*
X768512Y193046D01*
X767454Y191988D01*
X766706Y190693D01*
X766319Y189248D01*
Y187752D01*
X766706Y186307D01*
X767454Y185012D01*
X768512Y183954D01*
X769807Y183206D01*
X771252Y182819D01*
X772748D01*
X774193Y183206D01*
X775488Y183954D01*
X776546Y185012D01*
X777294Y186307D01*
X777681Y187752D01*
Y189248D01*
X777294Y190693D01*
X776546Y191988D01*
X775488Y193046D01*
X774193Y193794D01*
X772748Y194181D01*
D02*
G37*
G36*
X757157D02*
X755661D01*
X754217Y193794D01*
X752921Y193046D01*
X751863Y191988D01*
X751116Y190693D01*
X750728Y189248D01*
Y187752D01*
X751116Y186307D01*
X751863Y185012D01*
X752921Y183954D01*
X754217Y183206D01*
X755661Y182819D01*
X757157D01*
X758602Y183206D01*
X759898Y183954D01*
X760955Y185012D01*
X761703Y186307D01*
X762090Y187752D01*
Y189248D01*
X761703Y190693D01*
X760955Y191988D01*
X759898Y193046D01*
X758602Y193794D01*
X757157Y194181D01*
D02*
G37*
G36*
X679205D02*
X677709D01*
X676264Y193794D01*
X674968Y193046D01*
X673911Y191988D01*
X673163Y190693D01*
X672776Y189248D01*
Y187752D01*
X673163Y186307D01*
X673911Y185012D01*
X674968Y183954D01*
X676264Y183206D01*
X677709Y182819D01*
X679205D01*
X680649Y183206D01*
X681945Y183954D01*
X683003Y185012D01*
X683750Y186307D01*
X684138Y187752D01*
Y189248D01*
X683750Y190693D01*
X683003Y191988D01*
X681945Y193046D01*
X680649Y193794D01*
X679205Y194181D01*
D02*
G37*
G36*
X663614D02*
X662118D01*
X660673Y193794D01*
X659378Y193046D01*
X658320Y191988D01*
X657572Y190693D01*
X657185Y189248D01*
Y187752D01*
X657572Y186307D01*
X658320Y185012D01*
X659378Y183954D01*
X660673Y183206D01*
X662118Y182819D01*
X663614D01*
X665059Y183206D01*
X666355Y183954D01*
X667412Y185012D01*
X668160Y186307D01*
X668547Y187752D01*
Y189248D01*
X668160Y190693D01*
X667412Y191988D01*
X666355Y193046D01*
X665059Y193794D01*
X663614Y194181D01*
D02*
G37*
G36*
X545542Y174691D02*
X544529D01*
X543569Y174434D01*
X543980Y174024D01*
X541858Y171902D01*
X541448Y172313D01*
X541191Y171353D01*
Y170340D01*
X541448Y169380D01*
X541858Y169791D01*
X543980Y167669D01*
X543569Y167259D01*
X544529Y167002D01*
X545542D01*
X546502Y167259D01*
X546091Y167669D01*
X548213Y169791D01*
X548623Y169380D01*
X548880Y170340D01*
Y171353D01*
X548623Y172313D01*
X548213Y171902D01*
X546091Y174024D01*
X546502Y174434D01*
X545542Y174691D01*
D02*
G37*
G36*
X529006D02*
X527994D01*
X527034Y174434D01*
X527444Y174024D01*
X525323Y171902D01*
X524912Y172313D01*
X524655Y171353D01*
Y170340D01*
X524912Y169380D01*
X525323Y169791D01*
X527444Y167669D01*
X527034Y167259D01*
X527994Y167002D01*
X529006D01*
X529966Y167259D01*
X529556Y167669D01*
X531677Y169791D01*
X532088Y169380D01*
X532345Y170340D01*
Y171353D01*
X532088Y172313D01*
X531677Y171902D01*
X529556Y174024D01*
X529966Y174434D01*
X529006Y174691D01*
D02*
G37*
G36*
X814252Y184711D02*
X812718Y184560D01*
X811244Y184113D01*
X809885Y183386D01*
X808694Y182409D01*
X807716Y181218D01*
X806989Y179859D01*
X806542Y178384D01*
X806391Y176850D01*
X806542Y175317D01*
X806989Y173842D01*
X807716Y172483D01*
X808694Y171292D01*
X809885Y170314D01*
X811244Y169588D01*
X812718Y169141D01*
X814252Y168990D01*
X815786Y169141D01*
X817260Y169588D01*
X818619Y170314D01*
X819810Y171292D01*
X820788Y172483D01*
X821515Y173842D01*
X821962Y175317D01*
X822113Y176850D01*
X821962Y178384D01*
X821515Y179859D01*
X820788Y181218D01*
X819810Y182409D01*
X818619Y183386D01*
X817260Y184113D01*
X815786Y184560D01*
X814252Y184711D01*
D02*
G37*
G36*
X595251Y175472D02*
X594033D01*
X592856Y175157D01*
X591801Y174548D01*
X590940Y173687D01*
X590331Y172632D01*
X590016Y171456D01*
Y170237D01*
X590331Y169061D01*
X590940Y168006D01*
X591801Y167145D01*
X592856Y166536D01*
X594033Y166220D01*
X595251D01*
X596427Y166536D01*
X597482Y167145D01*
X598344Y168006D01*
X598952Y169061D01*
X599268Y170237D01*
Y171456D01*
X598952Y172632D01*
X598344Y173687D01*
X597482Y174548D01*
X596427Y175157D01*
X595251Y175472D01*
D02*
G37*
G36*
X578715D02*
X577497D01*
X576321Y175157D01*
X575266Y174548D01*
X574405Y173687D01*
X573796Y172632D01*
X573480Y171456D01*
Y170237D01*
X573796Y169061D01*
X574405Y168006D01*
X575266Y167145D01*
X576321Y166536D01*
X577497Y166220D01*
X578715D01*
X579892Y166536D01*
X580947Y167145D01*
X581808Y168006D01*
X582417Y169061D01*
X582732Y170237D01*
Y171456D01*
X582417Y172632D01*
X581808Y173687D01*
X580947Y174548D01*
X579892Y175157D01*
X578715Y175472D01*
D02*
G37*
G36*
X562180D02*
X560962D01*
X559785Y175157D01*
X558731Y174548D01*
X557869Y173687D01*
X557260Y172632D01*
X556945Y171456D01*
Y170237D01*
X557260Y169061D01*
X557869Y168006D01*
X558731Y167145D01*
X559785Y166536D01*
X560962Y166220D01*
X562180D01*
X563356Y166536D01*
X564411Y167145D01*
X565273Y168006D01*
X565882Y169061D01*
X566197Y170237D01*
Y171456D01*
X565882Y172632D01*
X565273Y173687D01*
X564411Y174548D01*
X563356Y175157D01*
X562180Y175472D01*
D02*
G37*
G36*
X753433Y169787D02*
X752567D01*
X751731Y169563D01*
X750982Y169131D01*
X750369Y168518D01*
X749937Y167769D01*
X749713Y166933D01*
Y166067D01*
X749937Y165231D01*
X750369Y164481D01*
X750982Y163869D01*
X751731Y163437D01*
X752567Y163213D01*
X753433D01*
X754269Y163437D01*
X755019Y163869D01*
X755631Y164481D01*
X756063Y165231D01*
X756287Y166067D01*
Y166933D01*
X756063Y167769D01*
X755631Y168518D01*
X755019Y169131D01*
X754269Y169563D01*
X753433Y169787D01*
D02*
G37*
G36*
X439933Y160787D02*
X439067D01*
X438231Y160563D01*
X437481Y160131D01*
X436869Y159519D01*
X436437Y158769D01*
X436213Y157933D01*
Y157067D01*
X436437Y156231D01*
X436869Y155482D01*
X437481Y154869D01*
X438231Y154437D01*
X439067Y154213D01*
X439933D01*
X440769Y154437D01*
X441518Y154869D01*
X442131Y155482D01*
X442563Y156231D01*
X442787Y157067D01*
Y157933D01*
X442563Y158769D01*
X442131Y159519D01*
X441518Y160131D01*
X440769Y160563D01*
X439933Y160787D01*
D02*
G37*
G36*
X306841Y158809D02*
X303679D01*
Y157547D01*
X304187D01*
Y154547D01*
X303679D01*
Y153285D01*
X306841D01*
Y154547D01*
X306333D01*
Y157547D01*
X306841D01*
Y158809D01*
D02*
G37*
G36*
X578933Y159787D02*
X578067D01*
X577231Y159563D01*
X576481Y159131D01*
X575869Y158519D01*
X575437Y157769D01*
X575213Y156933D01*
Y156067D01*
X575437Y155231D01*
X575869Y154481D01*
X576481Y153869D01*
X577231Y153437D01*
X578067Y153213D01*
X578933D01*
X579769Y153437D01*
X580518Y153869D01*
X581131Y154481D01*
X581563Y155231D01*
X581787Y156067D01*
Y156933D01*
X581563Y157769D01*
X581131Y158519D01*
X580518Y159131D01*
X579769Y159563D01*
X578933Y159787D01*
D02*
G37*
G36*
X561433D02*
X560567D01*
X559731Y159563D01*
X558982Y159131D01*
X558369Y158519D01*
X557937Y157769D01*
X557713Y156933D01*
Y156067D01*
X557937Y155231D01*
X558369Y154481D01*
X558982Y153869D01*
X559731Y153437D01*
X560567Y153213D01*
X561433D01*
X562269Y153437D01*
X563019Y153869D01*
X563631Y154481D01*
X564063Y155231D01*
X564287Y156067D01*
Y156933D01*
X564063Y157769D01*
X563631Y158519D01*
X563019Y159131D01*
X562269Y159563D01*
X561433Y159787D01*
D02*
G37*
G36*
X538433D02*
X537567D01*
X536731Y159563D01*
X535982Y159131D01*
X535369Y158519D01*
X534937Y157769D01*
X534713Y156933D01*
Y156067D01*
X534937Y155231D01*
X535369Y154481D01*
X535982Y153869D01*
X536731Y153437D01*
X537567Y153213D01*
X538433D01*
X539269Y153437D01*
X540019Y153869D01*
X540631Y154481D01*
X541063Y155231D01*
X541287Y156067D01*
Y156933D01*
X541063Y157769D01*
X540631Y158519D01*
X540019Y159131D01*
X539269Y159563D01*
X538433Y159787D01*
D02*
G37*
G36*
X423679Y159579D02*
X420321D01*
Y157677D01*
X420829D01*
Y154677D01*
X420321D01*
Y152775D01*
X423679D01*
Y154677D01*
X423171D01*
Y157677D01*
X423679D01*
Y159579D01*
D02*
G37*
G36*
X418680D02*
X415320D01*
Y157677D01*
X415829D01*
Y154677D01*
X415320D01*
Y152775D01*
X418680D01*
Y154677D01*
X418171D01*
Y157677D01*
X418680D01*
Y159579D01*
D02*
G37*
G36*
X814548Y150048D02*
X812500D01*
Y149082D01*
X808500D01*
Y150048D01*
X806452D01*
Y148000D01*
X807418D01*
Y144000D01*
X806452D01*
Y141952D01*
X808500D01*
Y142918D01*
X812500D01*
Y141952D01*
X814548D01*
Y142513D01*
Y144000D01*
X813582D01*
Y148000D01*
X814548D01*
Y150048D01*
D02*
G37*
G36*
X790000Y168933D02*
X781500D01*
X781194Y168806D01*
X780194Y167806D01*
X780067Y167500D01*
Y166029D01*
X764500D01*
X763915Y165913D01*
X763419Y165581D01*
X762336Y164499D01*
X762004Y164003D01*
X761888Y163417D01*
Y155780D01*
X759915D01*
Y152238D01*
X759915Y152220D01*
X760014Y150682D01*
X760015Y150680D01*
Y150662D01*
D01*
X760015Y150620D01*
Y150600D01*
Y147320D01*
X761917D01*
Y147829D01*
X764917D01*
Y147320D01*
X766819D01*
Y150620D01*
X766819Y150662D01*
Y150662D01*
Y150680D01*
X766821Y150682D01*
X766919Y152220D01*
X766919Y152238D01*
Y155780D01*
X764947D01*
Y162784D01*
X765133Y162971D01*
X776868D01*
Y162000D01*
X777376D01*
Y159000D01*
X776868D01*
Y157738D01*
X780067D01*
Y153500D01*
X780067Y153500D01*
X780194Y153194D01*
X780505Y152883D01*
X780584Y152850D01*
X780645Y152789D01*
X780731D01*
X780811Y152756D01*
X780811Y152756D01*
X781081Y152220D01*
X781179Y150682D01*
X781181Y150680D01*
Y150662D01*
D01*
X781181Y150620D01*
Y150600D01*
Y147320D01*
X783083D01*
Y147829D01*
X786083D01*
Y147320D01*
X787985D01*
Y150047D01*
Y150047D01*
Y150600D01*
X787985Y150680D01*
X788177Y151000D01*
X788430D01*
X789217Y151567D01*
X789500D01*
X789806Y151694D01*
X791306Y153194D01*
X791433Y153500D01*
Y167500D01*
X791306Y167806D01*
X790306Y168806D01*
X790000Y168933D01*
D02*
G37*
G36*
X787985Y145679D02*
X786083D01*
Y145171D01*
X783083D01*
Y145679D01*
X781181D01*
Y142321D01*
X783083D01*
Y142829D01*
X786083D01*
Y142321D01*
X787985D01*
Y142533D01*
Y145679D01*
D02*
G37*
G36*
X766819D02*
X764917D01*
Y145171D01*
X761917D01*
Y145679D01*
X760015D01*
Y142321D01*
X761917D01*
Y142829D01*
X764917D01*
Y142321D01*
X766819D01*
Y142379D01*
Y145679D01*
D02*
G37*
G36*
X795262Y145632D02*
X794000D01*
Y145124D01*
X791000D01*
Y145632D01*
X789738D01*
Y142273D01*
X791000D01*
Y142781D01*
X794000D01*
Y142273D01*
X795262D01*
Y142533D01*
Y145632D01*
D02*
G37*
G36*
X402762Y143632D02*
X401500D01*
Y143124D01*
X398500D01*
Y143632D01*
X397238D01*
Y140273D01*
X398500D01*
Y140781D01*
X401500D01*
Y140273D01*
X402762D01*
Y140600D01*
Y143632D01*
D02*
G37*
G36*
X319042Y138609D02*
X316500D01*
Y138101D01*
X313500D01*
Y138609D01*
X310958D01*
Y137642D01*
X311466D01*
Y134642D01*
X310958D01*
Y133675D01*
X313500D01*
Y134183D01*
X316500D01*
Y133675D01*
X319042D01*
Y134642D01*
X318534D01*
Y137642D01*
X319042D01*
Y138609D01*
D02*
G37*
G36*
X474433Y137787D02*
X473567D01*
X472731Y137563D01*
X471981Y137131D01*
X471784Y136933D01*
X469500D01*
X469194Y136806D01*
X467694Y135306D01*
X467567Y135000D01*
Y132280D01*
X467675Y132018D01*
Y128982D01*
X467567Y128720D01*
Y123835D01*
X467567Y123500D01*
X467675Y122280D01*
X467675D01*
Y118738D01*
X467675Y118720D01*
X467702Y118298D01*
X468000Y118000D01*
X475000D01*
X475500Y118500D01*
Y121000D01*
X475916Y121416D01*
X476238Y121172D01*
X476238Y120849D01*
Y117868D01*
X477500D01*
Y118376D01*
X480500D01*
Y117868D01*
X481762D01*
Y121227D01*
X480500D01*
Y120719D01*
X477500D01*
Y121227D01*
X476634D01*
X476292Y121227D01*
X476048Y121548D01*
X476500Y122000D01*
X481848D01*
X482500Y121348D01*
Y117850D01*
X483971Y116754D01*
Y113945D01*
X484067Y113461D01*
Y109850D01*
X487823D01*
Y117150D01*
X487823Y117150D01*
X488165Y118063D01*
X488165D01*
X488165Y118608D01*
Y121228D01*
X485419D01*
X484637Y122203D01*
X484948Y123072D01*
X485311Y123681D01*
X485833D01*
X486051Y123772D01*
X487859D01*
X487900Y123731D01*
X487900Y123731D01*
X488300Y123565D01*
X488386D01*
X488465Y123532D01*
X488545Y123565D01*
X488631D01*
X488631Y123565D01*
X488692Y123626D01*
X488771Y123659D01*
X488771D01*
X489307Y124195D01*
X490806Y125694D01*
X490933Y126000D01*
X490933Y135000D01*
X490806Y135306D01*
X489306Y136806D01*
X489000Y136933D01*
X476216Y136933D01*
X476018Y137131D01*
X475269Y137563D01*
X474433Y137787D01*
D02*
G37*
G36*
X377425Y133642D02*
X372291D01*
Y131029D01*
X370323D01*
Y133150D01*
X366567D01*
Y125850D01*
X366567D01*
Y125150D01*
X366567D01*
Y117850D01*
X370323D01*
Y120226D01*
X371972D01*
X373726Y118472D01*
Y102528D01*
X372264Y101067D01*
X371988Y100653D01*
X371891Y100165D01*
Y99584D01*
X371386D01*
Y92580D01*
X374945D01*
Y99584D01*
D01*
D01*
X374945Y99584D01*
X375115Y100313D01*
X375901Y101099D01*
X376178Y101512D01*
X376274Y102000D01*
Y119000D01*
X376178Y119488D01*
X375901Y119901D01*
X373401Y122401D01*
X372988Y122678D01*
X372500Y122775D01*
X370323D01*
Y125150D01*
X370323D01*
Y125850D01*
X370323D01*
Y127971D01*
X372291D01*
Y125358D01*
X377425D01*
Y133642D01*
D02*
G37*
G36*
X773223Y137050D02*
X769667D01*
Y135000D01*
X770175D01*
Y132000D01*
X769667D01*
Y129950D01*
X773223D01*
Y130256D01*
Y132000D01*
X772715D01*
Y135000D01*
X773223D01*
Y137050D01*
D02*
G37*
G36*
X788500Y141500D02*
X781127D01*
X781081Y140779D01*
X781081Y140762D01*
Y139329D01*
X781062Y137737D01*
X781062Y137737D01*
X780976Y137669D01*
X780874Y137627D01*
X780851Y137569D01*
X780802Y137531D01*
X780621Y137206D01*
X780621Y137206D01*
X780609Y137097D01*
X780567Y136995D01*
X780567Y136995D01*
X780567Y136679D01*
X779786Y135898D01*
X779350Y135323D01*
X779350Y135323D01*
Y131567D01*
X786105D01*
X786138Y131531D01*
Y131531D01*
X786138Y131531D01*
X786205Y131455D01*
X786243Y131361D01*
X786309Y131334D01*
X786355Y131280D01*
X786686Y131113D01*
X786686Y131113D01*
X786787Y131106D01*
X786880Y131067D01*
X786880Y131067D01*
X787560Y131067D01*
X789213D01*
X789437Y130231D01*
X789869Y129481D01*
X790482Y128869D01*
X791231Y128437D01*
X792067Y128213D01*
X792933D01*
X793769Y128437D01*
X794519Y128869D01*
X795131Y129481D01*
X795563Y130231D01*
X795787Y131067D01*
X815000D01*
X815306Y131194D01*
X816306Y132194D01*
X816433Y132500D01*
Y139000D01*
X816306Y139306D01*
X815052Y140561D01*
X814893Y141000D01*
X805352D01*
X805274Y140933D01*
X795889D01*
X795858Y141000D01*
X789000D01*
X788500Y141500D01*
D02*
G37*
G36*
X361833Y134673D02*
X361167D01*
X360552Y134418D01*
X360082Y133948D01*
X359827Y133333D01*
Y133150D01*
X359677D01*
Y125850D01*
X363433D01*
Y126608D01*
Y133150D01*
X363173D01*
Y133333D01*
X362918Y133948D01*
X362448Y134418D01*
X361833Y134673D01*
D02*
G37*
G36*
X382333Y136173D02*
X381667D01*
X381052Y135918D01*
X380581Y135448D01*
X380327Y134833D01*
Y134167D01*
X379976Y133642D01*
X379575D01*
Y125358D01*
X384709D01*
Y133642D01*
D01*
D01*
X384196D01*
X383673Y134167D01*
D01*
D01*
Y134833D01*
X383418Y135448D01*
X382948Y135918D01*
X382333Y136173D01*
D02*
G37*
G36*
X772928Y128778D02*
X769372D01*
Y125222D01*
X772928D01*
Y128778D01*
D02*
G37*
G36*
X339500Y136500D02*
X331000D01*
Y135433D01*
X330694Y135306D01*
X330567Y135000D01*
Y132136D01*
X329000Y131433D01*
X319042D01*
X319023Y131425D01*
X310858D01*
Y130642D01*
X307575D01*
Y124462D01*
X307549Y122872D01*
X307549Y122872D01*
X307467Y122805D01*
X307369Y122764D01*
X306721Y122745D01*
X306500Y122961D01*
Y122745D01*
X305879Y122017D01*
X305484Y122018D01*
X305325Y122458D01*
X305325Y122562D01*
Y125000D01*
X304817D01*
Y128000D01*
X305325D01*
Y130542D01*
X304358D01*
Y130034D01*
X301358D01*
Y130542D01*
X300391D01*
Y128000D01*
X300899D01*
Y125000D01*
X300391D01*
Y122458D01*
X302617D01*
X302868Y121762D01*
Y121762D01*
D01*
Y121747D01*
X302868Y121658D01*
Y120500D01*
X303376D01*
Y117500D01*
X302868D01*
Y116238D01*
X305569Y116238D01*
X305851Y115750D01*
X305569Y115262D01*
X302868D01*
Y114638D01*
D01*
Y114000D01*
X303376D01*
Y111000D01*
X302868D01*
Y109738D01*
X306227Y109738D01*
D01*
D01*
X307067Y108486D01*
Y108334D01*
X306325Y107042D01*
D01*
D01*
X305700Y107042D01*
X305358D01*
Y106534D01*
X302358D01*
Y107042D01*
X301391D01*
Y104500D01*
X301899D01*
Y101500D01*
X301391D01*
Y98958D01*
X302358D01*
Y99466D01*
X305358D01*
Y98958D01*
X305467D01*
X306152Y98958D01*
X306325D01*
D01*
D01*
X307067Y97666D01*
Y97334D01*
X306325Y96042D01*
X306325Y96042D01*
X305700Y96042D01*
X305358D01*
Y95534D01*
X302358D01*
Y96042D01*
X301391D01*
Y93500D01*
X301899D01*
Y90500D01*
X301391D01*
Y87958D01*
X302358D01*
Y88466D01*
X305358D01*
Y87958D01*
X305467D01*
X306152Y87958D01*
X306325D01*
D01*
D01*
X307067Y86666D01*
Y78000D01*
X307194Y77694D01*
X308694Y76194D01*
X309000Y76067D01*
X310454D01*
X311131Y76067D01*
X311131Y76067D01*
X311229Y76108D01*
X311335Y76118D01*
X311335Y76118D01*
X311662Y76293D01*
X311704Y76344D01*
X311764Y76369D01*
X311805Y76467D01*
X311873Y76549D01*
X311873Y76549D01*
X313462Y76575D01*
X319104D01*
X319127Y76549D01*
X319127Y76549D01*
X319195Y76467D01*
X319236Y76369D01*
X319296Y76344D01*
X319338Y76293D01*
X319665Y76118D01*
X319665Y76118D01*
X319771Y76108D01*
X319869Y76067D01*
X319869Y76067D01*
X320546Y76067D01*
X322500D01*
X322806Y76194D01*
X325806Y79194D01*
X325933Y79500D01*
Y79594D01*
X327175Y80458D01*
X327500Y80458D01*
D01*
X328142D01*
Y80966D01*
X331142D01*
Y80458D01*
X332109D01*
Y83000D01*
X331601D01*
Y86000D01*
X332109D01*
Y88542D01*
X331142D01*
Y88034D01*
X328142D01*
Y88542D01*
X327500D01*
D01*
X327175Y88542D01*
X325933Y89406D01*
Y89779D01*
X326273Y91238D01*
X327394Y91238D01*
D01*
X329632D01*
Y92500D01*
X329124D01*
Y95500D01*
X329632D01*
Y96762D01*
X326500D01*
Y98738D01*
X329679D01*
Y100000D01*
X329171D01*
Y103000D01*
X329679D01*
Y104262D01*
X327394D01*
X327394Y104262D01*
X326321D01*
X325933Y105702D01*
Y105821D01*
X329089Y108976D01*
X330694Y108694D01*
X331000Y108567D01*
X338567D01*
Y98500D01*
X338694Y98194D01*
X344694Y92194D01*
X345000Y92067D01*
X355485D01*
X356160Y92067D01*
X356160Y92067D01*
X356261Y92109D01*
X356370Y92121D01*
X356370Y92121D01*
X356695Y92301D01*
X356734Y92350D01*
X356792Y92374D01*
X356834Y92475D01*
X356902Y92560D01*
X356902Y92560D01*
X358494Y92580D01*
X359927D01*
X359945Y92580D01*
X360623Y92623D01*
X360686Y92686D01*
X361486Y92680D01*
X361503D01*
X361503D01*
X361545Y92680D01*
X361667D01*
X361667D01*
X364845D01*
Y94582D01*
X364337D01*
Y97582D01*
X364845D01*
Y99484D01*
X361800D01*
X361486Y99484D01*
X361000Y100083D01*
Y103458D01*
X361358D01*
Y103966D01*
X364358D01*
Y103458D01*
X365325D01*
Y106000D01*
X364817D01*
Y109000D01*
X365325D01*
Y111542D01*
X364358D01*
Y111034D01*
X361358D01*
Y111542D01*
X360433D01*
Y115500D01*
X360306Y115806D01*
X359751Y116361D01*
X360015Y116985D01*
X359850Y117150D01*
X360181Y117950D01*
X360410Y117950D01*
X363333D01*
Y120000D01*
X362825D01*
Y123000D01*
X363333D01*
Y125050D01*
X359777D01*
Y123000D01*
X360285D01*
Y120000D01*
X359777D01*
Y118592D01*
X359777Y118354D01*
X359421Y118207D01*
X358977Y118023D01*
X358811Y118189D01*
X358188Y117924D01*
X355933Y120179D01*
Y128500D01*
X355806Y128806D01*
X354306Y130306D01*
X354000Y130433D01*
X341000D01*
X339933Y131636D01*
Y135000D01*
X339806Y135306D01*
X339500Y135433D01*
X339500D01*
Y136500D01*
D02*
G37*
G36*
X766873Y141500D02*
X759962D01*
X759915Y140779D01*
X759915Y140762D01*
Y137221D01*
X761107D01*
X762677Y137150D01*
Y130356D01*
X762677Y129850D01*
X762677D01*
X762972Y128878D01*
X762972Y128878D01*
Y125122D01*
X763699D01*
X763949Y124748D01*
X767599Y121099D01*
X768012Y120823D01*
X768500Y120726D01*
X778445D01*
X778933Y120823D01*
X779346Y121099D01*
X782924Y124677D01*
X786650D01*
Y128433D01*
X779350D01*
Y124708D01*
X777917Y123275D01*
X769028D01*
X766728Y125574D01*
Y128373D01*
X766728Y128878D01*
X766728D01*
X766433Y129850D01*
X766433Y129850D01*
Y137150D01*
X766919Y137221D01*
Y140762D01*
X766919Y140779D01*
X766873Y141500D01*
D02*
G37*
G36*
X474579Y117180D02*
X472677D01*
Y116671D01*
X469677D01*
Y117180D01*
X467775D01*
Y117121D01*
D01*
Y113821D01*
X469677D01*
Y114329D01*
X472677D01*
Y113821D01*
X474579D01*
Y117180D01*
D02*
G37*
G36*
X480833Y117050D02*
X477277D01*
Y116268D01*
D01*
Y115000D01*
X477785D01*
Y112000D01*
X477277D01*
Y109950D01*
X480833D01*
Y112000D01*
X480325D01*
Y115000D01*
X480833D01*
Y117050D01*
D02*
G37*
G36*
X474925Y103142D02*
X469791D01*
Y100275D01*
X468323D01*
Y102650D01*
X464567D01*
Y95350D01*
X464567D01*
Y94650D01*
X464567D01*
Y87350D01*
X468323D01*
Y89726D01*
X469972D01*
X471726Y87972D01*
Y72028D01*
X470264Y70567D01*
X469988Y70153D01*
X469891Y69665D01*
Y69084D01*
X469386D01*
Y62080D01*
X472945D01*
Y69084D01*
D01*
D01*
X472945Y69084D01*
X473115Y69813D01*
X473901Y70599D01*
X474178Y71012D01*
X474274Y71500D01*
Y88500D01*
X474178Y88988D01*
X473901Y89401D01*
X471401Y91901D01*
X470988Y92177D01*
X470500Y92274D01*
X468323D01*
Y94541D01*
Y94650D01*
X468323D01*
Y95350D01*
X468323D01*
Y97725D01*
X469791D01*
Y94858D01*
X474925D01*
Y103142D01*
D02*
G37*
G36*
X656833Y104673D02*
X656167D01*
X655552Y104419D01*
X655082Y103948D01*
X654827Y103333D01*
Y103150D01*
X654677D01*
Y95850D01*
X658433D01*
Y96608D01*
Y103150D01*
X658173D01*
Y103333D01*
X657919Y103948D01*
X657448Y104419D01*
X656833Y104673D01*
D02*
G37*
G36*
X557833D02*
X557167D01*
X556552Y104419D01*
X556081Y103948D01*
X555827Y103333D01*
Y103150D01*
X555677D01*
Y95850D01*
X559433D01*
Y96608D01*
Y103150D01*
X559173D01*
Y103333D01*
X558919Y103948D01*
X558448Y104419D01*
X557833Y104673D01*
D02*
G37*
G36*
X576833Y106173D02*
X576167D01*
X575552Y105919D01*
X575081Y105448D01*
X574827Y104833D01*
Y104167D01*
X574476Y103642D01*
X574075D01*
Y95358D01*
X579209D01*
Y103642D01*
X578524D01*
X578173Y104167D01*
Y104833D01*
X577918Y105448D01*
X577448Y105919D01*
X576833Y106173D01*
D02*
G37*
G36*
X459833Y104173D02*
X459167D01*
X458552Y103919D01*
X458081Y103448D01*
X457827Y102833D01*
Y102650D01*
X457677D01*
Y95350D01*
X461433D01*
Y96108D01*
Y102650D01*
X461173D01*
Y102833D01*
X460919Y103448D01*
X460448Y103919D01*
X459833Y104173D01*
D02*
G37*
G36*
X762323Y103150D02*
X758567D01*
Y103126D01*
Y95850D01*
X758567D01*
Y95150D01*
X758567D01*
Y87850D01*
X762323D01*
Y90225D01*
X763972D01*
X765726Y88472D01*
Y72528D01*
X764264Y71067D01*
X763988Y70653D01*
X763891Y70165D01*
Y69584D01*
X763386D01*
Y62580D01*
X766945D01*
Y69584D01*
D01*
D01*
X766945Y69584D01*
X767115Y70313D01*
X767901Y71099D01*
X768178Y71512D01*
X768274Y72000D01*
Y89000D01*
X768178Y89488D01*
X767901Y89901D01*
X765401Y92401D01*
X764988Y92677D01*
X764500Y92774D01*
X762323D01*
Y94541D01*
Y95150D01*
X762323D01*
Y95850D01*
X762323D01*
Y98225D01*
X763791D01*
Y94858D01*
X768925D01*
Y103142D01*
X763791D01*
Y100775D01*
X762323D01*
Y103150D01*
D02*
G37*
G36*
X677475Y105531D02*
X676809D01*
X676194Y105277D01*
X675723Y104806D01*
X675469Y104191D01*
Y103525D01*
X675212Y103142D01*
X674575D01*
Y94858D01*
X679709D01*
Y103142D01*
X679071D01*
X678815Y103525D01*
Y104191D01*
X678560Y104806D01*
X678090Y105277D01*
X677475Y105531D01*
D02*
G37*
G36*
X665323Y103150D02*
X661567D01*
Y95850D01*
X661567D01*
Y95150D01*
X661567D01*
Y87850D01*
X665323D01*
Y90225D01*
X666972D01*
X668725Y88472D01*
Y72528D01*
X667264Y71067D01*
X666988Y70653D01*
X666891Y70165D01*
Y69584D01*
X666386D01*
Y62580D01*
X669945D01*
Y69584D01*
D01*
D01*
X669945Y69584D01*
X670116Y70313D01*
X670901Y71099D01*
X671177Y71512D01*
X671275Y72000D01*
Y89000D01*
X671177Y89488D01*
X670901Y89901D01*
X668401Y92401D01*
X667988Y92677D01*
X667500Y92774D01*
X665323D01*
Y95150D01*
X665323D01*
Y95850D01*
X665323D01*
Y98225D01*
X667291D01*
Y94858D01*
X672425D01*
Y103142D01*
X667291D01*
Y100775D01*
X665323D01*
Y103150D01*
D02*
G37*
G36*
X479833Y105673D02*
X479167D01*
X478552Y105419D01*
X478082Y104948D01*
X477827Y104333D01*
Y103667D01*
X477476Y103142D01*
X477075D01*
Y94858D01*
X482209D01*
Y103142D01*
X481524D01*
X481173Y103667D01*
Y104333D01*
X480919Y104948D01*
X480448Y105419D01*
X479833Y105673D01*
D02*
G37*
G36*
X821433Y94787D02*
X820567D01*
X819731Y94563D01*
X818981Y94131D01*
X818784Y93933D01*
X809800Y93933D01*
X809500Y93933D01*
X809500Y93933D01*
X809194Y93806D01*
X809194Y93806D01*
X808636Y93248D01*
X808603Y93168D01*
X808542Y93108D01*
X808542Y93107D01*
X807177Y92539D01*
X806960Y92540D01*
X807000Y92500D01*
Y83000D01*
X806933Y82933D01*
X803500D01*
X803194Y82806D01*
X802194Y81806D01*
X802067Y81500D01*
Y81015D01*
X801680Y80985D01*
X801667Y80985D01*
X798320D01*
Y79083D01*
X798829D01*
Y76083D01*
X798320D01*
Y74181D01*
X801667D01*
X801680Y74181D01*
X802067Y74151D01*
Y73500D01*
X802194Y73194D01*
X802500Y73067D01*
X809094D01*
X809238Y72727D01*
Y72727D01*
D01*
Y72714D01*
X809238Y72667D01*
Y69368D01*
X810500D01*
Y69876D01*
X813500D01*
Y69368D01*
X814762D01*
Y72667D01*
X814762Y72727D01*
X814906Y73067D01*
X815515D01*
X815835Y72874D01*
Y69709D01*
X816000D01*
Y69345D01*
X817016Y68736D01*
X817097Y67135D01*
X816050Y66223D01*
X816000D01*
Y66223D01*
X814000D01*
Y65715D01*
X811000D01*
Y66223D01*
X808950D01*
Y62667D01*
X811000D01*
Y63175D01*
X814000D01*
Y62667D01*
X816000D01*
Y62667D01*
X816050D01*
X816848Y61972D01*
X816880Y60723D01*
X815614Y59433D01*
X808850D01*
Y58830D01*
X806779D01*
Y59919D01*
X803238D01*
X803220Y59919D01*
X802899Y59899D01*
X802500Y59500D01*
Y52962D01*
X803220Y52915D01*
X803238Y52915D01*
X806779D01*
Y56281D01*
X808850D01*
Y55677D01*
X816150D01*
Y56300D01*
X816543Y56378D01*
X816956Y56654D01*
X819401Y59099D01*
X819678Y59512D01*
X819775Y60000D01*
Y69709D01*
X821165D01*
Y71652D01*
X821290Y73021D01*
X822170Y74058D01*
X822806Y74694D01*
X822933Y75000D01*
Y88820D01*
X823018Y88869D01*
X823631Y89482D01*
X824063Y90231D01*
X824287Y91067D01*
Y91933D01*
X824063Y92769D01*
X823631Y93519D01*
X823018Y94131D01*
X822269Y94563D01*
X821433Y94787D01*
D02*
G37*
G36*
X372709Y111642D02*
X367575D01*
Y106736D01*
X367264Y106425D01*
X366988Y106011D01*
X366891Y105524D01*
Y99584D01*
X366386D01*
Y92580D01*
X369945D01*
Y99584D01*
X369440D01*
Y103358D01*
X372709D01*
Y111642D01*
D02*
G37*
G36*
X806325Y92542D02*
X805358D01*
Y92034D01*
X802358D01*
Y92542D01*
X801391D01*
Y90000D01*
X801899D01*
Y87000D01*
X801391D01*
Y84458D01*
X802358D01*
Y84966D01*
X805358D01*
Y84458D01*
X806325D01*
Y87000D01*
X805817D01*
Y90000D01*
X806325D01*
Y92542D01*
D02*
G37*
G36*
X351187Y90215D02*
X349000D01*
Y89707D01*
X346000D01*
Y90215D01*
X343813D01*
Y87732D01*
X344321D01*
Y84732D01*
X343813D01*
Y82249D01*
X346000D01*
Y82758D01*
X349000D01*
Y82249D01*
X351187D01*
Y84732D01*
X350679D01*
Y87732D01*
X351187D01*
Y90215D01*
D02*
G37*
G36*
X796679Y80985D02*
X793321D01*
Y79083D01*
X793829D01*
Y76083D01*
X793321D01*
Y74181D01*
X796679D01*
Y76083D01*
X796171D01*
Y79083D01*
X796679D01*
Y80985D01*
D02*
G37*
G36*
X791780Y81085D02*
X791762Y81085D01*
X788221D01*
Y79112D01*
X786083D01*
X785497Y78996D01*
X785001Y78664D01*
X782419Y76081D01*
X782087Y75585D01*
X781971Y75000D01*
Y60500D01*
X782087Y59915D01*
X782419Y59419D01*
X782862Y58975D01*
X782694Y58806D01*
X782567Y58500D01*
Y46000D01*
X782694Y45694D01*
X783694Y44694D01*
X784000Y44567D01*
X791000D01*
X791306Y44694D01*
X792372Y45759D01*
X793392Y46108D01*
X792933Y46567D01*
Y52985D01*
X793321Y53015D01*
X793333Y53015D01*
X796679D01*
Y54660D01*
Y54917D01*
X796171D01*
Y57917D01*
X796679D01*
Y59819D01*
X793321D01*
Y59530D01*
X792933Y59500D01*
X792806Y59806D01*
X792500Y60112D01*
Y60303D01*
X792035Y60578D01*
X791806Y60806D01*
X791500Y60933D01*
X785230D01*
X785029Y61133D01*
Y74366D01*
X786621Y75958D01*
X788221Y75822D01*
Y74081D01*
X791762D01*
X791780Y74081D01*
X792101Y74101D01*
X792500Y74500D01*
Y81038D01*
X791780Y81085D01*
D02*
G37*
G36*
X319542Y74325D02*
X317000D01*
Y73817D01*
X314000D01*
Y74325D01*
X311458D01*
Y73358D01*
X311966D01*
Y70358D01*
X311458D01*
Y69391D01*
X314000D01*
Y69899D01*
X317000D01*
Y69391D01*
X319542D01*
Y70358D01*
X319034D01*
Y73358D01*
X319542D01*
Y74325D01*
D02*
G37*
G36*
X608933Y108787D02*
X608067D01*
X607231Y108563D01*
X606482Y108131D01*
X605869Y107518D01*
X605437Y106769D01*
X605213Y105933D01*
Y105067D01*
X605437Y104231D01*
X605869Y103481D01*
X606318Y103033D01*
X606217Y102336D01*
X605769Y101433D01*
X605000D01*
X604694Y101306D01*
X602194Y98806D01*
X602067Y98500D01*
Y93014D01*
X601227Y91762D01*
D01*
D01*
X600700Y91762D01*
X597868D01*
Y90500D01*
X598376D01*
Y87500D01*
X597868D01*
Y86238D01*
X600569Y86238D01*
X600851Y85750D01*
X600569Y85262D01*
X597868D01*
Y84000D01*
X598376D01*
Y81000D01*
X597868D01*
Y79738D01*
X601227Y79738D01*
D01*
D01*
X602067Y78486D01*
Y78334D01*
X601325Y77042D01*
D01*
D01*
X600700Y77042D01*
X600358D01*
Y76534D01*
X597358D01*
Y77042D01*
X596391D01*
Y74500D01*
X596899D01*
Y71500D01*
X596391D01*
Y68958D01*
X597358D01*
Y69466D01*
X600358D01*
Y68958D01*
X600467D01*
X601152Y68958D01*
X601325D01*
D01*
D01*
X602067Y67666D01*
Y48000D01*
X602194Y47694D01*
X603694Y46194D01*
X604000Y46067D01*
X617500D01*
X617806Y46194D01*
X620806Y49194D01*
X620933Y49500D01*
Y49594D01*
X622175Y50458D01*
X622500Y50458D01*
D01*
X623142D01*
Y50966D01*
X626142D01*
Y50458D01*
X627109D01*
Y53000D01*
X626601D01*
Y56000D01*
X627109D01*
Y58542D01*
X626142D01*
Y58034D01*
X623142D01*
Y58542D01*
X622500D01*
D01*
X622175Y58542D01*
X620933Y59406D01*
Y59779D01*
X621273Y61238D01*
X622394Y61238D01*
D01*
X624632D01*
Y62500D01*
X624124D01*
Y65500D01*
X624632D01*
Y66762D01*
X621500D01*
Y68738D01*
X624680D01*
Y70000D01*
X624171D01*
Y73000D01*
X624680D01*
Y74262D01*
X622394D01*
X622394Y74262D01*
X621320D01*
X620933Y75702D01*
Y75821D01*
X624089Y78977D01*
X625694Y78694D01*
X626000Y78567D01*
X633567D01*
Y68500D01*
X633694Y68194D01*
X639694Y62194D01*
X640000Y62067D01*
X650485D01*
X651160Y62067D01*
X651160Y62067D01*
X651261Y62109D01*
X651370Y62121D01*
X651370Y62121D01*
X651695Y62301D01*
X651734Y62350D01*
X651792Y62374D01*
X651834Y62475D01*
X651902Y62560D01*
X651902Y62560D01*
X653494Y62580D01*
X654927D01*
X654945Y62580D01*
X655623Y62623D01*
X655686Y62686D01*
X656486Y62680D01*
X656503D01*
X656503D01*
X656545Y62680D01*
X656667D01*
X656667D01*
X659845D01*
Y64582D01*
X659337D01*
Y67582D01*
X659845D01*
Y69484D01*
X656800D01*
X656486Y69484D01*
X656000Y70082D01*
Y73458D01*
X656358D01*
Y73966D01*
X659358D01*
Y73458D01*
X660325D01*
Y76000D01*
X659817D01*
Y79000D01*
X660325D01*
Y81542D01*
X659358D01*
Y81034D01*
X656358D01*
Y81542D01*
X655433D01*
Y85500D01*
X655306Y85806D01*
X654751Y86361D01*
X655015Y86985D01*
X654850Y87150D01*
X655181Y87950D01*
X655410Y87950D01*
X658333D01*
Y90000D01*
X657825D01*
Y93000D01*
X658333D01*
Y95050D01*
X654777D01*
Y93000D01*
X655285D01*
Y90000D01*
X654777D01*
Y88592D01*
X654777Y88354D01*
X654421Y88207D01*
X653977Y88023D01*
X653812Y88188D01*
X653188Y87924D01*
X650933Y90179D01*
Y98500D01*
X650806Y98806D01*
X649306Y100306D01*
X649000Y100433D01*
X636000D01*
X634933Y101636D01*
Y105000D01*
X634806Y105306D01*
X634500Y105433D01*
Y106500D01*
X626000D01*
Y105433D01*
X625694Y105306D01*
X625567Y105000D01*
Y102136D01*
X624000Y101433D01*
X611231D01*
X610783Y102336D01*
X610682Y103033D01*
X611131Y103481D01*
X611563Y104231D01*
X611787Y105067D01*
Y105933D01*
X611563Y106769D01*
X611131Y107518D01*
X610519Y108131D01*
X609769Y108563D01*
X608933Y108787D01*
D02*
G37*
G36*
X387723Y77550D02*
X384167D01*
Y75500D01*
X384675D01*
Y72500D01*
X384167D01*
Y70450D01*
X387723D01*
Y72500D01*
X387215D01*
Y75500D01*
X387723D01*
Y77550D01*
D02*
G37*
G36*
X374945Y78230D02*
X371386D01*
Y71226D01*
X374945D01*
Y73215D01*
X377177D01*
Y73185D01*
D01*
Y70350D01*
X380933D01*
Y77650D01*
X377177D01*
Y74785D01*
Y74785D01*
X374945D01*
Y78230D01*
D02*
G37*
G36*
X566791Y103642D02*
X566323Y103150D01*
X562567D01*
Y95850D01*
X562567D01*
Y95150D01*
X562567D01*
Y87850D01*
X566323D01*
Y90225D01*
X567972D01*
X569726Y88472D01*
Y72528D01*
X568264Y71067D01*
X567988Y70653D01*
X567891Y70165D01*
Y69584D01*
X567386D01*
Y62580D01*
X570945D01*
Y69584D01*
D01*
D01*
X570945Y69584D01*
X571115Y70313D01*
X571901Y71099D01*
X572178Y71512D01*
X572274Y72000D01*
Y89000D01*
X572178Y89488D01*
X571901Y89901D01*
X569401Y92401D01*
X568988Y92677D01*
X568500Y92774D01*
X566323D01*
Y94752D01*
X566720Y95266D01*
X567036Y95358D01*
X571925D01*
Y103642D01*
X566791D01*
Y103642D01*
D02*
G37*
G36*
X764709Y81642D02*
X759575D01*
Y76736D01*
X759264Y76425D01*
X758988Y76011D01*
X758891Y75524D01*
Y69584D01*
X758386D01*
Y62580D01*
X761945D01*
Y69584D01*
X761440D01*
Y73358D01*
X764709D01*
Y81642D01*
D02*
G37*
G36*
X667709D02*
X662575D01*
Y76736D01*
X662264Y76425D01*
X661988Y76011D01*
X661891Y75524D01*
Y69584D01*
X661386D01*
Y62580D01*
X664945D01*
Y69584D01*
X664440D01*
Y73358D01*
X667709D01*
Y81642D01*
D02*
G37*
G36*
X568709D02*
X563575D01*
Y76736D01*
X563264Y76425D01*
X562988Y76011D01*
X562891Y75524D01*
Y69584D01*
X562386D01*
Y62580D01*
X565945D01*
Y69584D01*
X565440D01*
Y73358D01*
X568709D01*
Y81642D01*
D02*
G37*
G36*
X470709Y81142D02*
X465575D01*
Y76236D01*
X465264Y75925D01*
X464988Y75511D01*
X464891Y75024D01*
Y69084D01*
X464386D01*
Y62080D01*
X467945D01*
Y69084D01*
X467440D01*
Y72858D01*
X470709D01*
Y81142D01*
D02*
G37*
G36*
X377632Y65262D02*
X374273D01*
Y64000D01*
X374781D01*
Y61000D01*
X374273D01*
Y59738D01*
X377632D01*
Y61000D01*
X377124D01*
Y64000D01*
X377632D01*
Y65262D01*
D02*
G37*
G36*
X356227D02*
X352868D01*
Y64000D01*
X353376D01*
Y61000D01*
X352868D01*
Y59738D01*
X356227D01*
Y61000D01*
X355719D01*
Y64000D01*
X356227D01*
Y65262D01*
D02*
G37*
G36*
X743187Y60215D02*
X741000D01*
Y59707D01*
X738000D01*
Y60215D01*
X735813D01*
Y57732D01*
X736321D01*
Y54732D01*
X735813D01*
Y52249D01*
X738000D01*
Y52758D01*
X741000D01*
Y52249D01*
X743187D01*
Y54732D01*
X742679D01*
Y57732D01*
X743187D01*
Y60215D01*
D02*
G37*
G36*
X646187D02*
X644000D01*
Y59707D01*
X641000D01*
Y60215D01*
X638813D01*
Y57732D01*
X639321D01*
Y54732D01*
X638813D01*
Y52249D01*
X641000D01*
Y52758D01*
X644000D01*
Y52249D01*
X646187D01*
Y54732D01*
X645679D01*
Y57732D01*
X646187D01*
Y60215D01*
D02*
G37*
G36*
X547187D02*
X545000D01*
Y59707D01*
X542000D01*
Y60215D01*
X539813D01*
Y57732D01*
X540321D01*
Y54732D01*
X539813D01*
Y52249D01*
X542000D01*
Y52758D01*
X545000D01*
Y52249D01*
X547187D01*
Y54732D01*
X546679D01*
Y57732D01*
X547187D01*
Y60215D01*
D02*
G37*
G36*
X449187Y59715D02*
X447000D01*
Y59207D01*
X444000D01*
Y59715D01*
X441813D01*
Y57232D01*
X442321D01*
Y54232D01*
X441813D01*
Y51749D01*
X444000D01*
Y52258D01*
X447000D01*
Y51749D01*
X449187D01*
Y54232D01*
X448679D01*
Y57232D01*
X449187D01*
Y59715D01*
D02*
G37*
G36*
X379467Y56042D02*
X378500D01*
Y55534D01*
X375500D01*
Y56042D01*
X374533D01*
Y53500D01*
X375041D01*
Y50500D01*
X374533D01*
Y47958D01*
X375500D01*
Y48466D01*
X378500D01*
Y47958D01*
X379467D01*
Y50500D01*
X378959D01*
Y53500D01*
X379467D01*
Y56042D01*
D02*
G37*
G36*
X801680Y59819D02*
X798320D01*
Y57917D01*
X798829D01*
Y54917D01*
X798320D01*
Y53015D01*
X801680D01*
Y54917D01*
X801171D01*
Y57917D01*
X801680D01*
Y59819D01*
D02*
G37*
G36*
X797132Y51762D02*
X793773D01*
Y50500D01*
X794281D01*
Y47500D01*
X793773D01*
Y46292D01*
X793643Y46193D01*
X793719Y46219D01*
X794388Y46238D01*
X797132D01*
Y46398D01*
Y46400D01*
Y47500D01*
X796624D01*
Y50500D01*
X797132D01*
Y51762D01*
D02*
G37*
G36*
X779723Y47550D02*
X776167D01*
Y45500D01*
X776675D01*
Y42500D01*
X776167D01*
Y40450D01*
X779723D01*
Y42500D01*
X779215D01*
Y45500D01*
X779723D01*
Y47550D01*
D02*
G37*
G36*
X682723D02*
X679167D01*
Y45500D01*
X679675D01*
Y42500D01*
X679167D01*
Y40450D01*
X682723D01*
Y42500D01*
X682215D01*
Y45500D01*
X682723D01*
Y47550D01*
D02*
G37*
G36*
X583723D02*
X580167D01*
Y45500D01*
X580675D01*
Y42500D01*
X580167D01*
Y40450D01*
X583723D01*
Y42500D01*
X583215D01*
Y45500D01*
X583723D01*
Y47550D01*
D02*
G37*
G36*
X766945Y48230D02*
X763386D01*
Y41226D01*
X766945D01*
Y43943D01*
X769177D01*
Y40350D01*
X772933D01*
Y47650D01*
X769177D01*
Y45512D01*
Y45512D01*
X766945D01*
Y48230D01*
D02*
G37*
G36*
X669945D02*
X666386D01*
Y41226D01*
X669945D01*
Y43215D01*
X672177D01*
Y40350D01*
X675933D01*
Y47650D01*
X672177D01*
Y44785D01*
Y44785D01*
X669945D01*
Y48230D01*
D02*
G37*
G36*
X570945D02*
X567386D01*
Y41226D01*
X570945D01*
Y43943D01*
X573177D01*
Y43912D01*
D01*
Y40350D01*
X576933D01*
Y47650D01*
X573177D01*
Y45512D01*
Y45512D01*
X570945D01*
Y48230D01*
D02*
G37*
G36*
X485723Y47050D02*
X482167D01*
Y45000D01*
X482675D01*
Y42000D01*
X482167D01*
Y39950D01*
X485723D01*
Y42000D01*
X485215D01*
Y45000D01*
X485723D01*
Y47050D01*
D02*
G37*
G36*
X472945Y47730D02*
X469386D01*
Y40726D01*
X472945D01*
Y43443D01*
X475177D01*
Y43412D01*
D01*
Y39850D01*
X478933D01*
Y47150D01*
X475177D01*
Y45012D01*
Y45012D01*
X472945D01*
Y47730D01*
D02*
G37*
G36*
X746833Y35673D02*
X746167D01*
X745552Y35418D01*
X745396Y35262D01*
X744868D01*
Y34431D01*
X744827Y34333D01*
Y34000D01*
X745376D01*
Y31000D01*
X744868D01*
Y29738D01*
X748227D01*
Y31000D01*
X747719D01*
Y34000D01*
X748227D01*
Y35262D01*
X747604D01*
X747448Y35418D01*
X747448D01*
X746833Y35673D01*
D02*
G37*
G36*
X672632Y35262D02*
X669273D01*
Y34000D01*
X669781D01*
Y31000D01*
X669273D01*
Y29738D01*
X672632D01*
Y31000D01*
X672124D01*
Y34000D01*
X672632D01*
Y35262D01*
D02*
G37*
G36*
X651227D02*
X647868D01*
Y34000D01*
X648376D01*
Y31000D01*
X647868D01*
Y29738D01*
X651227D01*
Y31000D01*
X650719D01*
Y34000D01*
X651227D01*
Y35262D01*
D02*
G37*
G36*
X573632D02*
X570273D01*
Y34000D01*
X570781D01*
Y31000D01*
X570273D01*
Y29738D01*
X573632D01*
Y31000D01*
X573124D01*
Y34000D01*
X573632D01*
Y35262D01*
D02*
G37*
G36*
X552227D02*
X548868D01*
Y34000D01*
X549376D01*
Y31000D01*
X548868D01*
Y29738D01*
X552227D01*
Y31000D01*
X551719D01*
Y34000D01*
X552227D01*
Y35262D01*
D02*
G37*
G36*
X768333Y35673D02*
X767667D01*
X767052Y35418D01*
X766896Y35262D01*
X766273D01*
Y34000D01*
X766781D01*
Y31000D01*
X766273D01*
Y29738D01*
X766896D01*
X767052Y29581D01*
X767667Y29327D01*
X768333D01*
X768948Y29581D01*
X769104Y29738D01*
X769632D01*
Y30569D01*
D01*
X769673Y30667D01*
Y31000D01*
X769124D01*
Y34000D01*
X769673D01*
Y34333D01*
X769632Y34431D01*
Y35262D01*
X769104D01*
X768948Y35418D01*
X768333Y35673D01*
D02*
G37*
G36*
X475632Y34762D02*
X472273D01*
Y33500D01*
X472781D01*
Y30500D01*
X472273D01*
Y29238D01*
X475632D01*
Y30500D01*
X475124D01*
Y33500D01*
X475632D01*
Y34762D01*
D02*
G37*
G36*
X454227D02*
X450868D01*
Y33500D01*
X451376D01*
Y30500D01*
X450868D01*
Y29238D01*
X454227D01*
Y30500D01*
X453719D01*
Y33500D01*
X454227D01*
Y34762D01*
D02*
G37*
G36*
X771467Y26042D02*
X770500D01*
Y25534D01*
X767500D01*
Y26042D01*
X766533D01*
Y23500D01*
X767041D01*
Y20500D01*
X766533D01*
Y17958D01*
X767500D01*
Y18466D01*
X770500D01*
Y17958D01*
X771467D01*
Y20500D01*
X770959D01*
Y23500D01*
X771467D01*
Y26042D01*
D02*
G37*
G36*
X674467D02*
X673500D01*
Y25534D01*
X670500D01*
Y26042D01*
X669533D01*
Y23500D01*
X670041D01*
Y20500D01*
X669533D01*
Y17958D01*
X670500D01*
Y18466D01*
X673500D01*
Y17958D01*
X674467D01*
Y20500D01*
X673959D01*
Y23500D01*
X674467D01*
Y26042D01*
D02*
G37*
G36*
X575467D02*
X574500D01*
Y25534D01*
X571500D01*
Y26042D01*
X570533D01*
Y23500D01*
X571041D01*
Y20500D01*
X570533D01*
Y17958D01*
X571500D01*
Y18466D01*
X574500D01*
Y17958D01*
X575467D01*
Y20500D01*
X574959D01*
Y23500D01*
X575467D01*
Y26042D01*
D02*
G37*
G36*
X477467Y25542D02*
X476500D01*
Y25034D01*
X473500D01*
Y25542D01*
X472533D01*
Y23000D01*
X473041D01*
Y20000D01*
X472533D01*
Y17458D01*
X473500D01*
Y17966D01*
X476500D01*
Y17458D01*
X477467D01*
Y20000D01*
X476959D01*
Y23000D01*
X477467D01*
Y25542D01*
D02*
G37*
%LPD*%
G36*
X487000Y197000D02*
Y181500D01*
X482000Y176500D01*
X460000D01*
X449500Y166000D01*
X424112D01*
X423806Y166306D01*
X423500Y166433D01*
X419434D01*
X419303Y166378D01*
X419166Y166340D01*
X418864Y166102D01*
X418851Y166079D01*
X418826Y166068D01*
X418798Y166000D01*
X418251D01*
X417833Y166173D01*
X417167D01*
X416749Y166000D01*
X416000D01*
X415673Y165862D01*
X415373Y165806D01*
X415302Y165777D01*
X415273Y165773D01*
X415208D01*
X415147Y165712D01*
X415067Y165679D01*
X414194Y164806D01*
X414067Y164500D01*
Y153679D01*
X413473Y153086D01*
X413443Y153012D01*
X413369Y152981D01*
X412821Y152433D01*
X409067D01*
X408779Y152720D01*
Y159679D01*
X408500D01*
Y176500D01*
X412343Y180343D01*
X414013Y179896D01*
X416213Y179606D01*
X418432D01*
X420633Y179896D01*
X422776Y180470D01*
X424055Y181000D01*
X449000D01*
X456000Y188000D01*
Y196000D01*
X460000Y200000D01*
X484000D01*
X487000Y197000D01*
D02*
G37*
%LPC*%
G36*
X479400Y196345D02*
X478387D01*
X477427Y196088D01*
X477838Y195677D01*
X475716Y193556D01*
X475306Y193966D01*
X475049Y193006D01*
Y191994D01*
X475306Y191034D01*
X475716Y191444D01*
X477838Y189323D01*
X477427Y188912D01*
X478387Y188655D01*
X479400D01*
X480360Y188912D01*
X479950Y189323D01*
X482071Y191444D01*
X482481Y191034D01*
X482739Y191994D01*
Y193006D01*
X482481Y193966D01*
X482071Y193556D01*
X479950Y195677D01*
X480360Y196088D01*
X479400Y196345D01*
D02*
G37*
G36*
X462967Y197126D02*
X461749D01*
X460573Y196811D01*
X459518Y196202D01*
X458657Y195340D01*
X458047Y194286D01*
X457732Y193109D01*
Y191891D01*
X458047Y190714D01*
X458657Y189660D01*
X459518Y188798D01*
X460573Y188189D01*
X461749Y187874D01*
X462967D01*
X464144Y188189D01*
X465199Y188798D01*
X466060Y189660D01*
X466669Y190714D01*
X466984Y191891D01*
Y193109D01*
X466669Y194286D01*
X466060Y195340D01*
X465199Y196202D01*
X464144Y196811D01*
X462967Y197126D01*
D02*
G37*
%LPD*%
G36*
X791000Y167500D02*
Y153500D01*
X789500Y152000D01*
X788177D01*
X787985Y152321D01*
Y155680D01*
X786083D01*
Y155171D01*
X783083D01*
Y155680D01*
X781181D01*
Y153342D01*
X780811Y153189D01*
X780500Y153500D01*
Y167500D01*
X781500Y168500D01*
X790000D01*
X791000Y167500D01*
D02*
G37*
%LPC*%
G36*
X786132Y163262D02*
X782773D01*
Y162000D01*
X783281D01*
Y159000D01*
X782773D01*
Y157738D01*
X786132D01*
Y159000D01*
X785624D01*
Y162000D01*
X786132D01*
Y163262D01*
D02*
G37*
%LPD*%
G36*
X489000Y136500D02*
X490500Y135000D01*
X490500Y126000D01*
X488465Y123965D01*
X488065Y124131D01*
Y126837D01*
X487000D01*
Y126329D01*
X484000D01*
Y126837D01*
X482935D01*
Y124036D01*
X482563Y123804D01*
X482497Y123848D01*
X482146Y123918D01*
X473677D01*
X473326Y123848D01*
X473028Y123649D01*
X472880Y123500D01*
X468000D01*
Y128720D01*
X474679D01*
Y132280D01*
X468000D01*
Y135000D01*
X469500Y136500D01*
X489000Y136500D01*
D02*
G37*
G36*
X816000Y139000D02*
Y132500D01*
X815000Y131500D01*
X786880D01*
X786550Y131667D01*
Y135223D01*
X784500D01*
Y134715D01*
X781500D01*
Y135223D01*
X780245D01*
X780092Y135592D01*
X781000Y136500D01*
Y136995D01*
X781181Y137320D01*
X783083D01*
Y137829D01*
X786083D01*
Y137320D01*
X787985D01*
Y140500D01*
X814500D01*
X816000Y139000D01*
D02*
G37*
%LPC*%
G36*
X795262Y139727D02*
X794000D01*
Y139219D01*
X791000D01*
Y139727D01*
X789738D01*
Y136368D01*
X791000D01*
Y136876D01*
X794000D01*
Y136368D01*
X795262D01*
Y139727D01*
D02*
G37*
%LPD*%
G36*
X330567Y129433D02*
Y111067D01*
X325500Y106000D01*
Y79500D01*
X322500Y76500D01*
X319869D01*
X319542Y76675D01*
X319542Y76900D01*
Y80336D01*
X319891Y80458D01*
X319942Y80458D01*
X320858D01*
Y80966D01*
X323858D01*
Y80458D01*
X324825D01*
Y83000D01*
X324317D01*
Y86000D01*
X324825D01*
Y88542D01*
X323858D01*
Y88034D01*
X320858D01*
Y88542D01*
X319891D01*
Y86000D01*
X320399D01*
Y83000D01*
X319891D01*
Y81731D01*
X319542Y81609D01*
X319491Y81609D01*
X317000D01*
Y81101D01*
X314000D01*
Y81609D01*
X311458D01*
Y80642D01*
X311966D01*
Y77642D01*
X311458D01*
Y76900D01*
X311458Y76675D01*
X311131Y76500D01*
X309000D01*
X307500Y78000D01*
Y122131D01*
X307675Y122458D01*
X308642D01*
Y122966D01*
X311642D01*
Y122458D01*
X312609D01*
Y126391D01*
X313500D01*
Y126899D01*
X316500D01*
Y126391D01*
X318368D01*
Y123500D01*
X318876D01*
Y120500D01*
X318368D01*
Y115793D01*
X322583D01*
Y116301D01*
X325583D01*
Y115793D01*
X329798D01*
Y120500D01*
X329289D01*
Y123500D01*
X329798D01*
Y128207D01*
X325583D01*
Y127699D01*
X322583D01*
Y128207D01*
X319042D01*
Y131000D01*
X329000D01*
X330567Y129433D01*
D02*
G37*
G36*
X355500Y128500D02*
Y120000D01*
X360000Y115500D01*
Y99819D01*
X359845Y99484D01*
X356486D01*
Y97582D01*
X356994D01*
Y94582D01*
X356486D01*
Y92680D01*
X356160Y92500D01*
X345000D01*
X339000Y98500D01*
Y108567D01*
X339500D01*
X339806Y108694D01*
X339933Y109000D01*
Y128933D01*
X341000Y130000D01*
X354000D01*
X355500Y128500D01*
D02*
G37*
%LPC*%
G36*
X312132Y121762D02*
X308773D01*
Y120500D01*
X309281D01*
Y117500D01*
X308773D01*
Y116238D01*
X312132D01*
Y117500D01*
X311624D01*
Y120500D01*
X312132D01*
Y121762D01*
D02*
G37*
G36*
Y115262D02*
X308773D01*
Y114000D01*
X309281D01*
Y111000D01*
X308773D01*
Y109738D01*
X312132D01*
Y111000D01*
X311624D01*
Y114000D01*
X312132D01*
Y115262D01*
D02*
G37*
G36*
X313609Y107042D02*
X312642D01*
Y106534D01*
X309642D01*
Y107042D01*
X308675D01*
Y104500D01*
X309183D01*
Y101500D01*
X308675D01*
Y98958D01*
X309642D01*
Y99466D01*
X312642D01*
Y98958D01*
X313609D01*
Y101500D01*
X313101D01*
Y104500D01*
X313609D01*
Y107042D01*
D02*
G37*
G36*
X323774Y104262D02*
X320415D01*
Y103000D01*
X320923D01*
Y100000D01*
X320415D01*
Y98738D01*
X323774D01*
Y100000D01*
X323266D01*
Y103000D01*
X323774D01*
Y104262D01*
D02*
G37*
G36*
X313609Y96042D02*
X312642D01*
Y95534D01*
X309642D01*
Y96042D01*
X308675D01*
Y93500D01*
X309183D01*
Y90500D01*
X308675D01*
Y87958D01*
X309642D01*
Y88466D01*
X312642D01*
Y87958D01*
X313609D01*
Y90500D01*
X313101D01*
Y93500D01*
X313609D01*
Y96042D01*
D02*
G37*
G36*
X323727Y96762D02*
X320368D01*
Y95500D01*
X320876D01*
Y92500D01*
X320368D01*
Y91238D01*
X323727D01*
Y92500D01*
X323219D01*
Y95500D01*
X323727D01*
Y96762D01*
D02*
G37*
G36*
X352632Y128207D02*
X348417D01*
Y127699D01*
X345417D01*
Y128207D01*
X341202D01*
Y123500D01*
X341711D01*
Y120500D01*
X341202D01*
Y115793D01*
X345417D01*
Y116301D01*
X348417D01*
Y115793D01*
X352632D01*
Y120500D01*
X352124D01*
Y123500D01*
X352632D01*
Y128207D01*
D02*
G37*
G36*
X351187Y106751D02*
X349000D01*
Y106242D01*
X346000D01*
Y106751D01*
X343813D01*
Y104268D01*
X344321D01*
Y101268D01*
X343813D01*
Y98785D01*
X346000D01*
Y99293D01*
X349000D01*
Y98785D01*
X351187D01*
Y101268D01*
X350679D01*
Y104268D01*
X351187D01*
Y106751D01*
D02*
G37*
%LPD*%
G36*
X822500Y92000D02*
Y75000D01*
X821000Y73500D01*
X802500D01*
Y81500D01*
X803500Y82500D01*
X807112D01*
X808000Y83388D01*
X808000Y92000D01*
X808275Y92275D01*
X808675Y92109D01*
Y90000D01*
X809183D01*
Y87000D01*
X808675D01*
Y84458D01*
X809642D01*
Y84966D01*
X812642D01*
Y84458D01*
X813609D01*
Y87000D01*
X813101D01*
Y90000D01*
X813609D01*
Y92542D01*
X812642D01*
Y92034D01*
X809642D01*
Y92542D01*
X809107D01*
X808942Y92942D01*
X809500Y93500D01*
X821000D01*
X822500Y92000D01*
D02*
G37*
%LPC*%
G36*
X814762Y78632D02*
X813500D01*
Y78124D01*
X810500D01*
Y78632D01*
X809238D01*
Y75273D01*
X810500D01*
Y75781D01*
X813500D01*
Y75273D01*
X814762D01*
Y78632D01*
D02*
G37*
G36*
X821065Y78483D02*
X820000D01*
Y77974D01*
X817000D01*
Y78483D01*
X815935D01*
Y75517D01*
X817000D01*
Y76025D01*
X820000D01*
Y75517D01*
X821065D01*
Y78483D01*
D02*
G37*
G36*
X806680Y80985D02*
X803321D01*
Y79083D01*
X803829D01*
Y76083D01*
X803321D01*
Y74181D01*
X806680D01*
Y76083D01*
X806171D01*
Y79083D01*
X806680D01*
Y80985D01*
D02*
G37*
%LPD*%
G36*
X791852Y60148D02*
X791615Y59819D01*
X791306Y59819D01*
X788320D01*
Y57917D01*
X788829D01*
Y54917D01*
X788320D01*
Y53015D01*
X791679D01*
Y54917D01*
X791171D01*
Y57917D01*
X791679D01*
Y59425D01*
X791680Y59755D01*
X792008Y59992D01*
X792500Y59500D01*
Y46500D01*
X791000Y45000D01*
X784000D01*
X783000Y46000D01*
Y58500D01*
X785000Y60500D01*
X791500D01*
X791852Y60148D01*
D02*
G37*
%LPC*%
G36*
X791227Y51762D02*
X787868D01*
Y50500D01*
X788376D01*
Y47500D01*
X787868D01*
Y46238D01*
X791227D01*
Y47500D01*
X790719D01*
Y50500D01*
X791227D01*
Y51762D01*
D02*
G37*
%LPD*%
G36*
X650500Y98500D02*
Y90000D01*
X655000Y85500D01*
Y69819D01*
X654845Y69484D01*
X651486D01*
Y67582D01*
X651994D01*
Y64582D01*
X651486D01*
Y62680D01*
X651160Y62500D01*
X640000D01*
X634000Y68500D01*
Y78567D01*
X634500D01*
X634806Y78694D01*
X634933Y79000D01*
Y98933D01*
X636000Y100000D01*
X649000D01*
X650500Y98500D01*
D02*
G37*
G36*
X625567Y99433D02*
Y81067D01*
X620500Y76000D01*
Y49500D01*
X617500Y46500D01*
X604000D01*
X602500Y48000D01*
Y98500D01*
X605000Y101000D01*
X624000D01*
X625567Y99433D01*
D02*
G37*
%LPC*%
G36*
X647632Y98207D02*
X643417D01*
Y97699D01*
X640417D01*
Y98207D01*
X636202D01*
Y93500D01*
X636711D01*
Y90500D01*
X636202D01*
Y85793D01*
X640417D01*
Y86301D01*
X643417D01*
Y85793D01*
X647632D01*
Y90500D01*
X647124D01*
Y93500D01*
X647632D01*
Y98207D01*
D02*
G37*
G36*
X646187Y76750D02*
X644000D01*
Y76242D01*
X641000D01*
Y76750D01*
X638813D01*
Y74268D01*
X639321D01*
Y71268D01*
X638813D01*
Y68785D01*
X641000D01*
Y69293D01*
X644000D01*
Y68785D01*
X646187D01*
Y71268D01*
X645679D01*
Y74268D01*
X646187D01*
Y76750D01*
D02*
G37*
G36*
X624798Y98207D02*
X620583D01*
Y97699D01*
X617583D01*
Y98207D01*
X613368D01*
Y93500D01*
X613876D01*
Y90500D01*
X613368D01*
Y85793D01*
X617583D01*
Y86301D01*
X620583D01*
Y85793D01*
X624798D01*
Y90500D01*
X624289D01*
Y93500D01*
X624798D01*
Y98207D01*
D02*
G37*
G36*
X607132Y91762D02*
X603773D01*
Y90500D01*
X604281D01*
Y87500D01*
X603773D01*
Y86238D01*
X607132D01*
Y87500D01*
X606624D01*
Y90500D01*
X607132D01*
Y91762D01*
D02*
G37*
G36*
Y85262D02*
X603773D01*
Y84000D01*
X604281D01*
Y81000D01*
X603773D01*
Y79738D01*
X607132D01*
Y81000D01*
X606624D01*
Y84000D01*
X607132D01*
Y85262D01*
D02*
G37*
G36*
X608609Y77042D02*
X607642D01*
Y76534D01*
X604642D01*
Y77042D01*
X603675D01*
Y74500D01*
X604183D01*
Y71500D01*
X603675D01*
Y68958D01*
X604642D01*
Y69466D01*
X607642D01*
Y68958D01*
X608609D01*
Y71500D01*
X608101D01*
Y74500D01*
X608609D01*
Y77042D01*
D02*
G37*
G36*
X618774Y74262D02*
X615415D01*
Y73000D01*
X615923D01*
Y70000D01*
X615415D01*
Y68738D01*
X618774D01*
Y70000D01*
X618266D01*
Y73000D01*
X618774D01*
Y74262D01*
D02*
G37*
G36*
X618727Y66762D02*
X615368D01*
Y65500D01*
X615876D01*
Y62500D01*
X615368D01*
Y61238D01*
X618727D01*
Y62500D01*
X618219D01*
Y65500D01*
X618727D01*
Y66762D01*
D02*
G37*
G36*
X619825Y58542D02*
X618858D01*
Y58034D01*
X615858D01*
Y58542D01*
X614891D01*
Y56000D01*
X615399D01*
Y53000D01*
X614891D01*
Y50458D01*
X615858D01*
Y50966D01*
X618858D01*
Y50458D01*
X619825D01*
Y53000D01*
X619317D01*
Y56000D01*
X619825D01*
Y58542D01*
D02*
G37*
G36*
X744632Y98207D02*
X740417D01*
Y97699D01*
X737417D01*
Y98207D01*
X733202D01*
Y93500D01*
X733711D01*
Y90500D01*
X733202D01*
Y85793D01*
X737417D01*
Y86301D01*
X740417D01*
Y85793D01*
X744632D01*
Y90500D01*
X744124D01*
Y93500D01*
X744632D01*
Y98207D01*
D02*
G37*
G36*
X743187Y76750D02*
X741000D01*
Y76242D01*
X738000D01*
Y76750D01*
X735813D01*
Y74268D01*
X736321D01*
Y71268D01*
X735813D01*
Y68785D01*
X738000D01*
Y69293D01*
X741000D01*
Y68785D01*
X743187D01*
Y71268D01*
X742679D01*
Y74268D01*
X743187D01*
Y76750D01*
D02*
G37*
G36*
X548632Y98207D02*
X544417D01*
Y97699D01*
X541417D01*
Y98207D01*
X537202D01*
Y93500D01*
X537711D01*
Y90500D01*
X537202D01*
Y85793D01*
X541417D01*
Y86301D01*
X544417D01*
Y85793D01*
X548632D01*
Y90500D01*
X548124D01*
Y93500D01*
X548632D01*
Y98207D01*
D02*
G37*
G36*
X547187Y76750D02*
X545000D01*
Y76242D01*
X542000D01*
Y76750D01*
X539813D01*
Y74268D01*
X540321D01*
Y71268D01*
X539813D01*
Y68785D01*
X542000D01*
Y69293D01*
X545000D01*
Y68785D01*
X547187D01*
Y71268D01*
X546679D01*
Y74268D01*
X547187D01*
Y76750D01*
D02*
G37*
G36*
X450632Y97707D02*
X446417D01*
Y97199D01*
X443417D01*
Y97707D01*
X439202D01*
Y93000D01*
X439711D01*
Y90000D01*
X439202D01*
Y85293D01*
X443417D01*
Y85801D01*
X446417D01*
Y85293D01*
X450632D01*
Y90000D01*
X450124D01*
Y93000D01*
X450632D01*
Y97707D01*
D02*
G37*
G36*
X449187Y76250D02*
X447000D01*
Y75742D01*
X444000D01*
Y76250D01*
X441813D01*
Y73768D01*
X442321D01*
Y70768D01*
X441813D01*
Y68285D01*
X444000D01*
Y68793D01*
X447000D01*
Y68285D01*
X449187D01*
Y70768D01*
X448679D01*
Y73768D01*
X449187D01*
Y76250D01*
D02*
G37*
G36*
X362132Y65262D02*
X358773D01*
Y64000D01*
X359281D01*
Y61000D01*
X358773D01*
Y59738D01*
X362132D01*
Y61000D01*
X361624D01*
Y64000D01*
X362132D01*
Y65262D01*
D02*
G37*
G36*
X363609Y56042D02*
X362642D01*
Y55534D01*
X359642D01*
Y56042D01*
X358675D01*
Y53500D01*
X359183D01*
Y50500D01*
X358675D01*
Y47958D01*
X359642D01*
Y48466D01*
X362642D01*
Y47958D01*
X363609D01*
Y50500D01*
X363101D01*
Y53500D01*
X363609D01*
Y56042D01*
D02*
G37*
G36*
X754132Y35262D02*
X750773D01*
Y34000D01*
X751281D01*
Y31000D01*
X750773D01*
Y29738D01*
X754132D01*
Y31000D01*
X753624D01*
Y34000D01*
X754132D01*
Y35262D01*
D02*
G37*
G36*
X657132D02*
X653773D01*
Y34000D01*
X654281D01*
Y31000D01*
X653773D01*
Y29738D01*
X657132D01*
Y31000D01*
X656624D01*
Y34000D01*
X657132D01*
Y35262D01*
D02*
G37*
G36*
X558132D02*
X554773D01*
Y34000D01*
X555281D01*
Y31000D01*
X554773D01*
Y29738D01*
X558132D01*
Y31000D01*
X557624D01*
Y34000D01*
X558132D01*
Y35262D01*
D02*
G37*
G36*
X460132Y34762D02*
X456773D01*
Y33500D01*
X457281D01*
Y30500D01*
X456773D01*
Y29238D01*
X460132D01*
Y30500D01*
X459624D01*
Y33500D01*
X460132D01*
Y34762D01*
D02*
G37*
G36*
X755609Y26042D02*
X754642D01*
Y25534D01*
X751642D01*
Y26042D01*
X750675D01*
Y23500D01*
X751183D01*
Y20500D01*
X750675D01*
Y17958D01*
X751642D01*
Y18466D01*
X754642D01*
Y17958D01*
X755609D01*
Y20500D01*
X755101D01*
Y23500D01*
X755609D01*
Y26042D01*
D02*
G37*
G36*
X658609D02*
X657642D01*
Y25534D01*
X654642D01*
Y26042D01*
X653675D01*
Y23500D01*
X654183D01*
Y20500D01*
X653675D01*
Y17958D01*
X654642D01*
Y18466D01*
X657642D01*
Y17958D01*
X658609D01*
Y20500D01*
X658101D01*
Y23500D01*
X658609D01*
Y26042D01*
D02*
G37*
G36*
X559609D02*
X558642D01*
Y25534D01*
X555642D01*
Y26042D01*
X554675D01*
Y23500D01*
X555183D01*
Y20500D01*
X554675D01*
Y17958D01*
X555642D01*
Y18466D01*
X558642D01*
Y17958D01*
X559609D01*
Y20500D01*
X559101D01*
Y23500D01*
X559609D01*
Y26042D01*
D02*
G37*
G36*
X461609Y25542D02*
X460642D01*
Y25034D01*
X457642D01*
Y25542D01*
X456675D01*
Y23000D01*
X457183D01*
Y20000D01*
X456675D01*
Y17458D01*
X457642D01*
Y17966D01*
X460642D01*
Y17458D01*
X461609D01*
Y20000D01*
X461101D01*
Y23000D01*
X461609D01*
Y25542D01*
D02*
G37*
G36*
X578613Y196345D02*
X577600D01*
X576640Y196088D01*
X577050Y195677D01*
X574929Y193556D01*
X574519Y193966D01*
X574261Y193006D01*
Y191994D01*
X574519Y191034D01*
X574929Y191444D01*
X577050Y189323D01*
X576640Y188912D01*
X577600Y188655D01*
X578613D01*
X579573Y188912D01*
X579162Y189323D01*
X581284Y191444D01*
X581694Y191034D01*
X581951Y191994D01*
Y193006D01*
X581694Y193966D01*
X581284Y193556D01*
X579162Y195677D01*
X579573Y196088D01*
X578613Y196345D01*
D02*
G37*
G36*
X562077D02*
X561065D01*
X560105Y196088D01*
X560515Y195677D01*
X558394Y193556D01*
X557983Y193966D01*
X557726Y193006D01*
Y191994D01*
X557983Y191034D01*
X558394Y191444D01*
X560515Y189323D01*
X560105Y188912D01*
X561065Y188655D01*
X562077D01*
X563037Y188912D01*
X562627Y189323D01*
X564748Y191444D01*
X565159Y191034D01*
X565416Y191994D01*
Y193006D01*
X565159Y193966D01*
X564748Y193556D01*
X562627Y195677D01*
X563037Y196088D01*
X562077Y196345D01*
D02*
G37*
G36*
X611786Y197126D02*
X610568D01*
X609392Y196811D01*
X608337Y196202D01*
X607476Y195340D01*
X606866Y194286D01*
X606551Y193109D01*
Y191891D01*
X606866Y190714D01*
X607476Y189660D01*
X608337Y188798D01*
X609392Y188189D01*
X610568Y187874D01*
X611786D01*
X612963Y188189D01*
X614018Y188798D01*
X614879Y189660D01*
X615488Y190714D01*
X615803Y191891D01*
Y193109D01*
X615488Y194286D01*
X614879Y195340D01*
X614018Y196202D01*
X612963Y196811D01*
X611786Y197126D01*
D02*
G37*
G36*
X595251D02*
X594033D01*
X592856Y196811D01*
X591801Y196202D01*
X590940Y195340D01*
X590331Y194286D01*
X590016Y193109D01*
Y191891D01*
X590331Y190714D01*
X590940Y189660D01*
X591801Y188798D01*
X592856Y188189D01*
X594033Y187874D01*
X595251D01*
X596427Y188189D01*
X597482Y188798D01*
X598344Y189660D01*
X598952Y190714D01*
X599268Y191891D01*
Y193109D01*
X598952Y194286D01*
X598344Y195340D01*
X597482Y196202D01*
X596427Y196811D01*
X595251Y197126D01*
D02*
G37*
G36*
X629681Y199831D02*
X627898Y199655D01*
X626183Y199135D01*
X624602Y198290D01*
X623217Y197153D01*
X622080Y195768D01*
X621235Y194187D01*
X620715Y192473D01*
X620539Y190689D01*
X620715Y188906D01*
X621235Y187190D01*
X622080Y185610D01*
X623217Y184225D01*
X624602Y183088D01*
X626183Y182243D01*
X627898Y181723D01*
X629681Y181547D01*
X631465Y181723D01*
X633180Y182243D01*
X634760Y183088D01*
X636145Y184225D01*
X637282Y185610D01*
X638127Y187190D01*
X638647Y188906D01*
X638823Y190689D01*
X638647Y192473D01*
X638127Y194187D01*
X637282Y195768D01*
X636145Y197153D01*
X634760Y198290D01*
X633180Y199135D01*
X631465Y199655D01*
X629681Y199831D01*
D02*
G37*
G36*
X721798Y98207D02*
X717583D01*
Y97699D01*
X714583D01*
Y98207D01*
X710368D01*
Y95000D01*
Y93500D01*
X710876D01*
Y90500D01*
X710368D01*
Y85793D01*
X714583D01*
Y86301D01*
X717583D01*
Y85793D01*
X721798D01*
Y90500D01*
X721289D01*
Y93500D01*
X721798D01*
Y98207D01*
D02*
G37*
G36*
X704132Y91762D02*
X700773D01*
Y90500D01*
X701281D01*
Y87500D01*
X700773D01*
Y86238D01*
X704132D01*
Y87500D01*
X703624D01*
Y90500D01*
X704132D01*
Y91762D01*
D02*
G37*
G36*
Y85262D02*
X700773D01*
Y84000D01*
X701281D01*
Y81000D01*
X700773D01*
Y79738D01*
X704132D01*
Y81000D01*
X703624D01*
Y84000D01*
X704132D01*
Y85262D01*
D02*
G37*
G36*
X705609Y77042D02*
X704642D01*
Y76534D01*
X701642D01*
Y77042D01*
X700675D01*
Y74500D01*
X701183D01*
Y71500D01*
X700675D01*
Y68958D01*
X701642D01*
Y69466D01*
X704642D01*
Y68958D01*
X705609D01*
Y71500D01*
X705101D01*
Y74500D01*
X705609D01*
Y77042D01*
D02*
G37*
G36*
X715774Y74262D02*
X712415D01*
Y73000D01*
X712923D01*
Y70000D01*
X712415D01*
Y68738D01*
X715774D01*
Y70000D01*
X715266D01*
Y73000D01*
X715774D01*
Y74262D01*
D02*
G37*
G36*
X715727Y66762D02*
X712368D01*
Y65500D01*
X712876D01*
Y62500D01*
X712368D01*
Y61238D01*
X715727D01*
Y62500D01*
X715219D01*
Y65500D01*
X715727D01*
Y66762D01*
D02*
G37*
G36*
X716825Y58542D02*
X715858D01*
Y58034D01*
X712858D01*
Y58542D01*
X711891D01*
Y56000D01*
X712399D01*
Y53000D01*
X711891D01*
Y50458D01*
X712858D01*
Y50966D01*
X715858D01*
Y50458D01*
X716825D01*
Y53000D01*
X716317D01*
Y56000D01*
X716825D01*
Y58542D01*
D02*
G37*
G36*
X615022Y174691D02*
X612677D01*
Y174183D01*
X609677D01*
Y174691D01*
X607332D01*
Y172346D01*
X607840D01*
Y169346D01*
X607332D01*
Y167002D01*
X609677D01*
Y167510D01*
X612677D01*
Y167002D01*
X615022D01*
Y169346D01*
X614514D01*
Y172346D01*
X615022D01*
Y174691D01*
D02*
G37*
G36*
X525798Y98207D02*
X521583D01*
Y97699D01*
X518583D01*
Y98207D01*
X514368D01*
Y93500D01*
X514876D01*
Y90500D01*
X514368D01*
Y85793D01*
X518583D01*
Y86301D01*
X521583D01*
Y85793D01*
X525798D01*
Y90500D01*
X525289D01*
Y93500D01*
X525798D01*
Y98207D01*
D02*
G37*
G36*
X508132Y91762D02*
X504773D01*
Y90500D01*
X505281D01*
Y87500D01*
X504773D01*
Y86238D01*
X508132D01*
Y87500D01*
X507624D01*
Y90500D01*
X508132D01*
Y91762D01*
D02*
G37*
G36*
Y85262D02*
X504773D01*
Y84000D01*
X505281D01*
Y81000D01*
X504773D01*
Y79738D01*
X508132D01*
Y81000D01*
X507624D01*
Y84000D01*
X508132D01*
Y85262D01*
D02*
G37*
G36*
X509609Y77042D02*
X508642D01*
Y76534D01*
X505642D01*
Y77042D01*
X504675D01*
Y74500D01*
X505183D01*
Y71500D01*
X504675D01*
Y68958D01*
X505642D01*
Y69466D01*
X508642D01*
Y68958D01*
X509609D01*
Y71500D01*
X509101D01*
Y74500D01*
X509609D01*
Y77042D01*
D02*
G37*
G36*
X519774Y74262D02*
X516415D01*
Y73000D01*
X516923D01*
Y70000D01*
X516415D01*
Y68738D01*
X519774D01*
Y70000D01*
X519266D01*
Y73000D01*
X519774D01*
Y74262D01*
D02*
G37*
G36*
X519727Y66762D02*
X516368D01*
Y65500D01*
X516876D01*
Y62500D01*
X516368D01*
Y61238D01*
X519727D01*
Y62500D01*
X519219D01*
Y65500D01*
X519727D01*
Y66762D01*
D02*
G37*
G36*
X520825Y58542D02*
X519858D01*
Y58034D01*
X516858D01*
Y58542D01*
X515891D01*
Y56000D01*
X516399D01*
Y53000D01*
X515891D01*
Y50458D01*
X516858D01*
Y50966D01*
X519858D01*
Y50458D01*
X520825D01*
Y53000D01*
X520317D01*
Y56000D01*
X520825D01*
Y58542D01*
D02*
G37*
%LPD*%
D14*
X25500Y92500D02*
X38657D01*
X16000Y102000D02*
X25500Y92500D01*
X24657Y82657D02*
X38657D01*
X18000Y76000D02*
X24657Y82657D01*
D16*
X350000Y156500D02*
X352500Y154000D01*
X348228Y156500D02*
X350000D01*
D18*
X324083Y122000D02*
D03*
X346917D02*
D03*
X520083Y92000D02*
D03*
X542917D02*
D03*
X738917D02*
D03*
X716083D02*
D03*
X422083Y91500D02*
D03*
X444917D02*
D03*
X619083Y92000D02*
D03*
X641917D02*
D03*
D19*
X359079Y198000D02*
D03*
X368921Y201740D02*
D03*
Y194260D02*
D03*
D20*
X159843Y54000D02*
D03*
Y44000D02*
D03*
X184157Y54000D02*
D03*
Y44000D02*
D03*
D21*
X326772Y186500D02*
D03*
Y181500D02*
D03*
Y176500D02*
D03*
Y171500D02*
D03*
Y166500D02*
D03*
Y161500D02*
D03*
Y156500D02*
D03*
X348228D02*
D03*
Y161500D02*
D03*
Y166500D02*
D03*
Y171500D02*
D03*
Y176500D02*
D03*
Y181500D02*
D03*
Y186500D02*
D03*
X361272Y186000D02*
D03*
Y181000D02*
D03*
Y176000D02*
D03*
Y171000D02*
D03*
Y166000D02*
D03*
Y161000D02*
D03*
X382728Y156000D02*
D03*
Y161000D02*
D03*
Y166000D02*
D03*
Y171000D02*
D03*
Y176000D02*
D03*
Y181000D02*
D03*
Y186000D02*
D03*
X361272Y156000D02*
D03*
D22*
X471177Y130500D02*
D03*
Y125500D02*
D03*
Y120500D02*
D03*
X449823Y115500D02*
D03*
Y120500D02*
D03*
Y125500D02*
D03*
Y130500D02*
D03*
X471177Y115500D02*
D03*
X763417Y139000D02*
D03*
Y154000D02*
D03*
X784583D02*
D03*
Y139000D02*
D03*
X763417Y144000D02*
D03*
Y149000D02*
D03*
X784583Y144000D02*
D03*
Y149000D02*
D03*
D23*
X460500Y123000D02*
D03*
D24*
X543500Y72768D02*
D03*
Y56232D02*
D03*
X739500Y72768D02*
D03*
Y56232D02*
D03*
X445500Y72268D02*
D03*
Y55732D02*
D03*
X347500Y102768D02*
D03*
Y86232D02*
D03*
X642500Y72768D02*
D03*
Y56232D02*
D03*
D25*
X180949Y68500D02*
D03*
X162051D02*
D03*
D26*
X771055Y44000D02*
D03*
X777945D02*
D03*
X760445Y91500D02*
D03*
X753555D02*
D03*
X760445Y99500D02*
D03*
X753555D02*
D03*
X466445Y91000D02*
D03*
X459555D02*
D03*
X368445Y121500D02*
D03*
X361555D02*
D03*
X663445Y91500D02*
D03*
X656555D02*
D03*
X564445D02*
D03*
X557555D02*
D03*
X459555Y99000D02*
D03*
X466445D02*
D03*
X361555Y129500D02*
D03*
X368445D02*
D03*
X656555Y99500D02*
D03*
X663445D02*
D03*
X557555D02*
D03*
X564445D02*
D03*
X477055Y43500D02*
D03*
X483945D02*
D03*
X379055Y74000D02*
D03*
X385945D02*
D03*
X674055Y44000D02*
D03*
X680945D02*
D03*
X575055D02*
D03*
X581945D02*
D03*
X304055Y198000D02*
D03*
X310945D02*
D03*
X304055Y190500D02*
D03*
X310945D02*
D03*
X304055Y183000D02*
D03*
X310945D02*
D03*
X304055Y205500D02*
D03*
X310945D02*
D03*
X485945Y113500D02*
D03*
X479055D02*
D03*
X764555Y133500D02*
D03*
X771445D02*
D03*
X395945Y184500D02*
D03*
X389055D02*
D03*
X395945Y153500D02*
D03*
X389055D02*
D03*
X395945Y161500D02*
D03*
X389055D02*
D03*
X395945Y169500D02*
D03*
X389055D02*
D03*
X395945Y177000D02*
D03*
X389055D02*
D03*
D27*
X818500Y77000D02*
D03*
Y71291D02*
D03*
X392000Y146854D02*
D03*
Y141146D02*
D03*
X428000Y132854D02*
D03*
Y127146D02*
D03*
X485500Y125354D02*
D03*
Y119646D02*
D03*
D28*
X764850Y127000D02*
D03*
X771150D02*
D03*
D29*
X178488Y85500D02*
D03*
X164512D02*
D03*
D30*
X315000Y128858D02*
D03*
Y136142D02*
D03*
X315500Y79142D02*
D03*
Y71858D02*
D03*
D31*
X792500Y138047D02*
D03*
Y143953D02*
D03*
X305500Y171547D02*
D03*
Y177453D02*
D03*
X743500Y45953D02*
D03*
Y40047D02*
D03*
X449500Y45453D02*
D03*
Y39547D02*
D03*
X351500Y75953D02*
D03*
Y70047D02*
D03*
X646500Y45953D02*
D03*
Y40047D02*
D03*
X547500Y45953D02*
D03*
Y40047D02*
D03*
X400000Y136047D02*
D03*
Y141953D02*
D03*
X479000Y125453D02*
D03*
Y119547D02*
D03*
X442500Y120453D02*
D03*
Y114547D02*
D03*
X812000Y76953D02*
D03*
Y71047D02*
D03*
D32*
X312642Y146969D02*
D03*
X305358D02*
D03*
X761717Y22000D02*
D03*
X769000D02*
D03*
X753142D02*
D03*
X745858D02*
D03*
X703142Y73000D02*
D03*
X695858D02*
D03*
X762142Y77500D02*
D03*
X754858D02*
D03*
X714358Y54500D02*
D03*
X721642D02*
D03*
X467717Y21500D02*
D03*
X475000D02*
D03*
X369717Y52000D02*
D03*
X377000D02*
D03*
X664717Y22000D02*
D03*
X672000D02*
D03*
X565717D02*
D03*
X573000D02*
D03*
X459142Y21500D02*
D03*
X451858D02*
D03*
X361142Y52000D02*
D03*
X353858D02*
D03*
X656142Y22000D02*
D03*
X648858D02*
D03*
X557142D02*
D03*
X549858D02*
D03*
X409142Y72500D02*
D03*
X401858D02*
D03*
X311142Y103000D02*
D03*
X303858D02*
D03*
X606142Y73000D02*
D03*
X598858D02*
D03*
X507142D02*
D03*
X499858D02*
D03*
X420358Y54000D02*
D03*
X427642D02*
D03*
X322358Y84500D02*
D03*
X329642D02*
D03*
X617358Y54500D02*
D03*
X624642D02*
D03*
X518358D02*
D03*
X525642D02*
D03*
X468142Y77000D02*
D03*
X460858D02*
D03*
X370142Y107500D02*
D03*
X362858D02*
D03*
X665142Y77500D02*
D03*
X657858D02*
D03*
X566142D02*
D03*
X558858D02*
D03*
X325142Y204000D02*
D03*
X317858D02*
D03*
X811142Y88500D02*
D03*
X803858D02*
D03*
X479642Y99000D02*
D03*
X472358D02*
D03*
X382142Y129500D02*
D03*
X374858D02*
D03*
X677142Y99000D02*
D03*
X669858D02*
D03*
X773642D02*
D03*
X766358D02*
D03*
X576642Y99500D02*
D03*
X569358D02*
D03*
X311142Y92000D02*
D03*
X303858D02*
D03*
X310142Y126500D02*
D03*
X302858D02*
D03*
D33*
X334547Y193500D02*
D03*
X340453D02*
D03*
X380953D02*
D03*
X375047D02*
D03*
X762047Y32500D02*
D03*
X767953D02*
D03*
X752453D02*
D03*
X746547D02*
D03*
X702453Y89000D02*
D03*
X696547D02*
D03*
X714094Y71500D02*
D03*
X720000D02*
D03*
X702453Y82500D02*
D03*
X696547D02*
D03*
X714047Y64000D02*
D03*
X719953D02*
D03*
X468047Y32000D02*
D03*
X473953D02*
D03*
X370047Y62500D02*
D03*
X375953D02*
D03*
X665047Y32500D02*
D03*
X670953D02*
D03*
X566047D02*
D03*
X571953D02*
D03*
X458453Y32000D02*
D03*
X452547D02*
D03*
X360453Y62500D02*
D03*
X354547D02*
D03*
X655453Y32500D02*
D03*
X649547D02*
D03*
X556453D02*
D03*
X550547D02*
D03*
X408453Y88500D02*
D03*
X402547D02*
D03*
X310453Y119000D02*
D03*
X304547D02*
D03*
X605453Y89000D02*
D03*
X599547D02*
D03*
X506453D02*
D03*
X500547D02*
D03*
X420094Y71000D02*
D03*
X426000D02*
D03*
X322094Y101500D02*
D03*
X328000D02*
D03*
X617094Y71500D02*
D03*
X623000D02*
D03*
X518094D02*
D03*
X524000D02*
D03*
X408453Y82000D02*
D03*
X402547D02*
D03*
X310453Y112500D02*
D03*
X304547D02*
D03*
X605453Y82500D02*
D03*
X599547D02*
D03*
X506453D02*
D03*
X500547D02*
D03*
X420047Y63500D02*
D03*
X425953D02*
D03*
X322047Y94000D02*
D03*
X327953D02*
D03*
X617047Y64000D02*
D03*
X622953D02*
D03*
X518047D02*
D03*
X523953D02*
D03*
X411547Y163000D02*
D03*
X417453D02*
D03*
X416953Y128000D02*
D03*
X411047D02*
D03*
X449547Y137500D02*
D03*
X455453D02*
D03*
X789547Y49000D02*
D03*
X795453D02*
D03*
X784453Y160500D02*
D03*
X778547D02*
D03*
D34*
X312740Y156047D02*
D03*
X309000Y165890D02*
D03*
X305260Y156047D02*
D03*
D35*
X750165Y44728D02*
D03*
X755165D02*
D03*
X760165D02*
D03*
X765165D02*
D03*
Y66082D02*
D03*
X760165D02*
D03*
X750165D02*
D03*
X755165D02*
D03*
X456165Y65582D02*
D03*
X466165D02*
D03*
X471165D02*
D03*
Y44228D02*
D03*
X466165D02*
D03*
X461165D02*
D03*
X456165D02*
D03*
X461165Y65582D02*
D03*
X358165Y96082D02*
D03*
X368165D02*
D03*
X373165D02*
D03*
Y74728D02*
D03*
X368165D02*
D03*
X363165D02*
D03*
X358165D02*
D03*
X363165Y96082D02*
D03*
X653165Y66082D02*
D03*
X663165D02*
D03*
X668165D02*
D03*
Y44728D02*
D03*
X663165D02*
D03*
X658165D02*
D03*
X653165D02*
D03*
X658165Y66082D02*
D03*
X554165D02*
D03*
X564165D02*
D03*
X569165D02*
D03*
Y44728D02*
D03*
X564165D02*
D03*
X559165D02*
D03*
X554165D02*
D03*
X559165Y66082D02*
D03*
X407000Y156177D02*
D03*
X412000D02*
D03*
X422000Y134823D02*
D03*
X417000D02*
D03*
X412000D02*
D03*
X407000D02*
D03*
X417000Y156177D02*
D03*
X422000D02*
D03*
X805000Y56417D02*
D03*
X790000D02*
D03*
Y77583D02*
D03*
X805000D02*
D03*
X800000Y56417D02*
D03*
X795000D02*
D03*
Y77583D02*
D03*
X800000D02*
D03*
D36*
X757665Y55405D02*
D03*
X463665Y54905D02*
D03*
X365665Y85405D02*
D03*
X660665Y55405D02*
D03*
X561665D02*
D03*
X414500Y145500D02*
D03*
D37*
X324354Y195000D02*
D03*
X318646D02*
D03*
X449854Y109500D02*
D03*
X444146D02*
D03*
D38*
X812500Y57555D02*
D03*
Y64445D02*
D03*
X783000Y133445D02*
D03*
Y126555D02*
D03*
D75*
X629681Y190689D02*
D03*
X443854D02*
D03*
D79*
X324000Y125541D02*
Y129000D01*
Y122083D02*
Y125541D01*
X619000Y95500D02*
Y99000D01*
Y92083D02*
Y95500D01*
X669358Y99500D02*
X669858Y99000D01*
X663445Y99500D02*
X669358D01*
X397098Y136047D02*
X400000D01*
X392000Y141146D02*
X397098Y136047D01*
X361500Y129555D02*
Y133000D01*
X557500Y99555D02*
Y103000D01*
X656500Y99555D02*
Y103000D01*
X420807Y92775D02*
X422000Y93968D01*
Y98500D01*
X420807Y92775D02*
X422083Y91500D01*
X449547Y137500D02*
X449823Y137224D01*
Y130500D02*
Y137224D01*
X773642Y99000D02*
Y103858D01*
X771500Y106000D02*
X773642Y103858D01*
X756500Y106000D02*
X771500D01*
X753500Y103000D02*
X756500Y106000D01*
X778445Y122000D02*
X783000Y126555D01*
X768500Y122000D02*
X778445D01*
X764850Y125650D02*
X768500Y122000D01*
X375000Y102000D02*
Y119000D01*
X372500Y121500D02*
X375000Y119000D01*
X368445Y121500D02*
X372500D01*
X373165Y100165D02*
X375000Y102000D01*
X373165Y96082D02*
Y100165D01*
X520000Y92083D02*
Y99000D01*
X818500Y60000D02*
Y71291D01*
X816055Y57555D02*
X818500Y60000D01*
X812500Y57555D02*
X816055D01*
X806138D02*
X812500D01*
X805000Y56417D02*
X806138Y57555D01*
X763417Y139000D02*
X764555Y137862D01*
Y133500D02*
Y137862D01*
Y133500D02*
X764850Y133205D01*
Y127000D02*
Y133205D01*
Y125650D02*
Y127000D01*
X716000Y99000D02*
Y106000D01*
X717250Y107250D01*
X749250D01*
X753500Y103000D01*
X765858Y99500D02*
X766358Y99000D01*
X760445Y99500D02*
X765858D01*
X677142Y99000D02*
Y103858D01*
X677000Y104000D02*
X677142Y103858D01*
X576500Y104500D02*
X576642Y104358D01*
Y99500D02*
Y104358D01*
X564445Y99500D02*
X569358D01*
X466445Y99000D02*
X472358D01*
X479642D02*
Y103858D01*
X479500Y104000D02*
X479642Y103858D01*
X466445Y91000D02*
Y99000D01*
Y91000D02*
X470500D01*
X471165Y65582D02*
Y69665D01*
X473000Y71500D01*
X470500Y91000D02*
X473000Y88500D01*
Y71500D02*
Y88500D01*
X449500Y39547D02*
X453047D01*
X456165Y42665D01*
Y44228D01*
X466165Y65582D02*
Y75024D01*
X468142Y77000D01*
X444000Y43000D02*
X446453Y45453D01*
X449500D01*
X544453Y45953D02*
X547500D01*
X542000Y43500D02*
X544453Y45953D01*
X554165Y43165D02*
Y44728D01*
X551047Y40047D02*
X554165Y43165D01*
X547500Y40047D02*
X551047D01*
X564165Y75524D02*
X566142Y77500D01*
X564165Y66082D02*
Y75524D01*
X571000Y72000D02*
Y89000D01*
X569165Y70165D02*
X571000Y72000D01*
X568500Y91500D02*
X571000Y89000D01*
X569165Y66082D02*
Y70165D01*
X564445Y91500D02*
X568500D01*
X564445D02*
Y99500D01*
X557500Y99555D02*
X557555Y99500D01*
X520000Y92083D02*
X520083Y92000D01*
X643453Y45953D02*
X646500D01*
X641000Y43500D02*
X643453Y45953D01*
X653165Y43165D02*
Y44728D01*
X650047Y40047D02*
X653165Y43165D01*
X646500Y40047D02*
X650047D01*
X663165Y75524D02*
X665142Y77500D01*
X663165Y66082D02*
Y75524D01*
X670000Y72000D02*
Y89000D01*
X668165Y70165D02*
X670000Y72000D01*
X667500Y91500D02*
X670000Y89000D01*
X668165Y66082D02*
Y70165D01*
X663445Y91500D02*
X667500D01*
X663445D02*
Y99500D01*
X656500Y99555D02*
X656555Y99500D01*
X619000Y92083D02*
X619083Y92000D01*
X348453Y75953D02*
X351500D01*
X346000Y73500D02*
X348453Y75953D01*
X358165Y73165D02*
Y74728D01*
X355047Y70047D02*
X358165Y73165D01*
X351500Y70047D02*
X355047D01*
X368165Y105524D02*
X370142Y107500D01*
X368165Y96082D02*
Y105524D01*
X368445Y121500D02*
Y129500D01*
X361500Y129555D02*
X361555Y129500D01*
X324000Y122083D02*
X324083Y122000D01*
X743500Y40047D02*
X747047D01*
X738000Y43500D02*
X740453Y45953D01*
X743500D01*
X765165Y66082D02*
Y70165D01*
X767000Y72000D01*
X747047Y40047D02*
X750165Y43165D01*
Y44728D01*
X716000Y92083D02*
Y99000D01*
X767000Y72000D02*
Y89000D01*
X760445Y91500D02*
Y99500D01*
X764500Y91500D02*
X767000Y89000D01*
X760445Y91500D02*
X764500D01*
X760165Y75524D02*
X762142Y77500D01*
X760165Y66082D02*
Y75524D01*
X716000Y92083D02*
X716083Y92000D01*
D80*
X323000Y181500D02*
X326772D01*
X322530Y181030D02*
X323000Y181500D01*
X322530Y174727D02*
Y181030D01*
X333000Y154000D02*
Y171286D01*
X330256Y174030D02*
X333000Y171286D01*
X323227Y174030D02*
X330256D01*
X322530Y174727D02*
X323227Y174030D01*
X333000Y154000D02*
X335500Y151500D01*
X381500D01*
X386146Y146854D01*
X392000D01*
D81*
X326772Y176500D02*
X332500D01*
X342500Y166500D01*
X348228D01*
X357500Y176500D02*
X358000Y176000D01*
X357500Y176500D02*
Y180000D01*
X358500Y181000D01*
X361272D01*
X356500Y174500D02*
X358000Y176000D01*
X356500Y168000D02*
Y174500D01*
Y168000D02*
X358500Y166000D01*
X361272D01*
X309500Y198000D02*
X310945D01*
X307500Y200000D02*
X309500Y198000D01*
X307500Y200000D02*
Y202055D01*
X304055Y205500D02*
X307500Y202055D01*
X310945Y205500D02*
X313000D01*
X314000Y204500D01*
Y199500D02*
Y204500D01*
Y199500D02*
X318500Y195000D01*
X318646D01*
X325142Y203142D02*
Y204000D01*
X318646Y196646D02*
X325142Y203142D01*
X318646Y195000D02*
Y196646D01*
X375000Y179500D02*
X376500Y181000D01*
X382728D01*
X375000Y169000D02*
Y179500D01*
X354000Y167000D02*
Y184000D01*
X356000Y186000D01*
X361272D01*
X353500Y166500D02*
X354000Y167000D01*
X377000Y171000D02*
X382728D01*
X375000Y169000D02*
X377000Y171000D01*
X375000Y163500D02*
X377500Y161000D01*
X382728D01*
X482146Y123000D02*
X485500Y119646D01*
X473677Y123000D02*
X482146D01*
X375000Y163500D02*
Y169000D01*
X356500Y163500D02*
X375000D01*
X353500Y166500D02*
X356500Y163500D01*
X348228Y166500D02*
X353500D01*
X471177Y120500D02*
X473677Y123000D01*
D82*
X305358Y146969D02*
Y155949D01*
X417047Y129500D02*
Y134776D01*
X444000Y120453D02*
X449776D01*
X449823Y120500D01*
X417000Y134823D02*
X417047Y134776D01*
X764500Y164500D02*
X783500D01*
X763417Y163417D02*
X764500Y164500D01*
X763417Y154000D02*
Y163417D01*
X305500Y169390D02*
X309000Y165890D01*
X305500Y169390D02*
Y172047D01*
X783500Y75000D02*
X786083Y77583D01*
X783500Y60500D02*
Y75000D01*
Y60500D02*
X786000Y58000D01*
X786083Y77583D02*
X790000D01*
X382000Y134500D02*
X382142Y134358D01*
X340453Y189547D02*
Y193500D01*
Y189547D02*
X343500Y186500D01*
X348228D01*
X369681Y193500D02*
X375047D01*
X368921Y194260D02*
X369681Y193500D01*
X485500Y113945D02*
X485945Y113500D01*
X485500Y113945D02*
Y119646D01*
X305260Y156047D02*
X305358Y155949D01*
X784453Y160500D02*
Y163547D01*
X783500Y164500D02*
X784453Y163547D01*
X382142Y129500D02*
Y134358D01*
X368445Y129500D02*
X374858D01*
D83*
X376000Y153500D02*
X389055D01*
X369000Y160500D02*
X376000Y153500D01*
X361772Y160500D02*
X369000D01*
X382728Y176000D02*
X386500D01*
X387500Y177000D01*
X389055D01*
X385555Y166000D02*
X389055Y169500D01*
X382728Y166000D02*
X385555D01*
X361272Y161000D02*
X361772Y160500D01*
X387000Y159445D02*
X389055Y161500D01*
X387000Y158000D02*
Y159445D01*
X385000Y156000D02*
X387000Y158000D01*
X382728Y156000D02*
X385000D01*
D84*
X402000Y177000D02*
X404500Y174500D01*
X395945Y177000D02*
X402000D01*
X373165Y74728D02*
X373893Y74000D01*
X379055D01*
X476328Y44228D02*
X477055Y43500D01*
X471165Y44228D02*
X476328D01*
X574328Y44728D02*
X575055Y44000D01*
X569165Y44728D02*
X574328D01*
X668165D02*
X668893Y44000D01*
X674055D01*
X770328Y44728D02*
X771055Y44000D01*
X765165Y44728D02*
X770328D01*
D85*
X426032Y134823D02*
X428000Y132854D01*
X422000Y134823D02*
X426032D01*
D86*
X449823Y115500D02*
X449854Y115468D01*
Y109500D02*
Y115468D01*
X204500Y61000D02*
X263000D01*
X197500Y54000D02*
X204500Y61000D01*
X184157Y54000D02*
X197500D01*
D87*
X222319Y149260D02*
X222323Y149264D01*
X139000Y36000D02*
Y57000D01*
X136500Y59500D02*
X139000Y57000D01*
Y36000D02*
X144000Y31000D01*
X201201D01*
X215500Y45299D01*
X138000Y118500D02*
X191559D01*
X122500Y103000D02*
X138000Y118500D01*
X154941Y137000D02*
X167201Y149260D01*
X113000Y137000D02*
X154941D01*
X95500Y119500D02*
X113000Y137000D01*
X16000Y102000D02*
Y114500D01*
X23000Y121500D01*
X53000D01*
X59500Y115000D01*
Y99512D02*
Y115000D01*
X59287Y99299D02*
X59500Y99512D01*
X59287Y82213D02*
Y99299D01*
Y82213D02*
X82000Y59500D01*
X136500D01*
X68232Y39500D02*
X73287Y34445D01*
X34000Y39500D02*
X68232D01*
X18000Y55500D02*
X34000Y39500D01*
X18000Y55500D02*
Y76000D01*
X215500Y76500D02*
X254000D01*
X122500Y93500D02*
Y103000D01*
X191559Y118500D02*
X222319Y149260D01*
X73287Y93500D02*
X82000D01*
X95500Y107000D01*
Y119500D01*
D88*
X184157Y44000D02*
X190000D01*
X159843D02*
X167000D01*
X215500Y76500D02*
X216000Y77000D01*
Y93500D01*
X210500Y99000D02*
X216000Y93500D01*
X171000Y99000D02*
X210500D01*
X164512Y92512D02*
X171000Y99000D01*
X164512Y85500D02*
Y92512D01*
X178488Y85500D02*
X180949Y83039D01*
Y68500D02*
Y83039D01*
X162051Y56209D02*
Y68500D01*
X159843Y54000D02*
X162051Y56209D01*
D89*
X376000Y145500D02*
D03*
X366000D02*
D03*
X356000D02*
D03*
X336000D02*
D03*
X346000D02*
D03*
D90*
X326000D02*
D03*
D91*
X810500Y136000D02*
D03*
D92*
Y146000D02*
D03*
D93*
X122500Y93500D02*
D03*
D94*
Y34445D02*
D03*
X73287D02*
D03*
Y93500D02*
D03*
D95*
X38657Y92500D02*
D03*
Y82657D02*
D03*
Y72815D02*
D03*
X48500Y92500D02*
D03*
Y72815D02*
D03*
Y82657D02*
D03*
D96*
X51846Y59823D02*
D03*
X35311Y105492D02*
D03*
D97*
X222319Y149260D02*
D03*
X194760D02*
D03*
X167201D02*
D03*
D98*
X215500Y45299D02*
D03*
X254000Y45299D02*
D03*
D99*
X215500Y76500D02*
D03*
X254000D02*
D03*
D100*
X662866Y188500D02*
D03*
X678457D02*
D03*
X756409D02*
D03*
X772000D02*
D03*
X787591D02*
D03*
X725228D02*
D03*
X740819D02*
D03*
X694047D02*
D03*
X709638D02*
D03*
D101*
X611177Y170846D02*
D03*
D102*
X594642D02*
D03*
X578106D02*
D03*
X561571D02*
D03*
X545035D02*
D03*
X528500D02*
D03*
X511965D02*
D03*
X495429D02*
D03*
X478894D02*
D03*
X462358D02*
D03*
X611177Y192500D02*
D03*
X594642D02*
D03*
X578106D02*
D03*
X561571D02*
D03*
X545035D02*
D03*
X528500D02*
D03*
X511965D02*
D03*
X495429D02*
D03*
X478894D02*
D03*
X462358D02*
D03*
D103*
X79500Y141000D02*
D03*
Y121000D02*
D03*
D104*
X814252Y176850D02*
D03*
X417323Y196535D02*
D03*
X62992D02*
D03*
X15748Y15748D02*
D03*
D105*
X474000Y134500D02*
D03*
X319000Y173000D02*
D03*
X320000Y165500D02*
D03*
X376000Y202000D02*
D03*
X495500Y157500D02*
D03*
X640500Y156500D02*
D03*
X439500Y157500D02*
D03*
X462000Y157000D02*
D03*
X479000Y157500D02*
D03*
X512000Y157000D02*
D03*
X561000Y156500D02*
D03*
X538000D02*
D03*
X578500D02*
D03*
X595000Y157000D02*
D03*
X611500Y156500D02*
D03*
X280000Y115500D02*
D03*
X753000Y166500D02*
D03*
X821000Y91500D02*
D03*
X792500Y131500D02*
D03*
X705500Y105000D02*
D03*
X608500Y105500D02*
D03*
X510000Y105000D02*
D03*
X414500Y171000D02*
D03*
X417000Y107500D02*
D03*
X316000Y110000D02*
D03*
X544000Y81500D02*
D03*
X318000Y157500D02*
D03*
X444000Y43000D02*
D03*
X446000Y81000D02*
D03*
X542000Y43500D02*
D03*
X643000Y81500D02*
D03*
X641000Y43500D02*
D03*
X348000Y111500D02*
D03*
X346000Y73500D02*
D03*
X738000Y43500D02*
D03*
X740000Y81500D02*
D03*
D106*
X825000Y160000D02*
D03*
X820000Y150000D02*
D03*
X825000Y140000D02*
D03*
X820000Y130000D02*
D03*
X825000Y120000D02*
D03*
Y60000D02*
D03*
X820000Y50000D02*
D03*
X825000Y40000D02*
D03*
X820000Y30000D02*
D03*
X825000Y20000D02*
D03*
X820000Y10000D02*
D03*
Y-10000D02*
D03*
X815000Y200000D02*
D03*
Y160000D02*
D03*
X810000Y50000D02*
D03*
X815000Y40000D02*
D03*
X810000Y30000D02*
D03*
X815000Y20000D02*
D03*
X810000Y10000D02*
D03*
Y-10000D02*
D03*
X805000Y200000D02*
D03*
X800000Y190000D02*
D03*
X805000Y160000D02*
D03*
X800000Y150000D02*
D03*
Y70000D02*
D03*
X805000Y40000D02*
D03*
X800000Y30000D02*
D03*
X805000Y20000D02*
D03*
X800000Y10000D02*
D03*
X795000Y200000D02*
D03*
Y180000D02*
D03*
Y160000D02*
D03*
Y100000D02*
D03*
X790000Y90000D02*
D03*
X795000Y40000D02*
D03*
X790000Y30000D02*
D03*
X795000Y20000D02*
D03*
X790000Y10000D02*
D03*
X785000Y200000D02*
D03*
X780000Y190000D02*
D03*
X785000Y180000D02*
D03*
Y100000D02*
D03*
X780000Y90000D02*
D03*
Y70000D02*
D03*
Y50000D02*
D03*
X785000Y40000D02*
D03*
X780000Y30000D02*
D03*
X785000Y20000D02*
D03*
X775000Y200000D02*
D03*
Y180000D02*
D03*
X770000Y170000D02*
D03*
Y90000D02*
D03*
X775000Y80000D02*
D03*
X770000Y70000D02*
D03*
X775000Y60000D02*
D03*
X770000Y50000D02*
D03*
X775000Y20000D02*
D03*
X765000Y200000D02*
D03*
Y180000D02*
D03*
X760000Y170000D02*
D03*
Y130000D02*
D03*
X755000Y200000D02*
D03*
Y180000D02*
D03*
Y160000D02*
D03*
X750000Y150000D02*
D03*
X755000Y140000D02*
D03*
Y60000D02*
D03*
X745000Y200000D02*
D03*
X740000Y190000D02*
D03*
X745000Y180000D02*
D03*
X740000Y170000D02*
D03*
X745000Y160000D02*
D03*
X740000Y150000D02*
D03*
Y30000D02*
D03*
X735000Y200000D02*
D03*
Y180000D02*
D03*
X730000Y170000D02*
D03*
X735000Y160000D02*
D03*
X730000Y150000D02*
D03*
Y50000D02*
D03*
Y30000D02*
D03*
X735000Y20000D02*
D03*
X725000Y200000D02*
D03*
Y180000D02*
D03*
X720000Y170000D02*
D03*
X725000Y160000D02*
D03*
Y120000D02*
D03*
X720000Y30000D02*
D03*
X725000Y20000D02*
D03*
X715000Y200000D02*
D03*
X710000Y190000D02*
D03*
X715000Y180000D02*
D03*
X710000Y170000D02*
D03*
X715000Y160000D02*
D03*
X710000Y30000D02*
D03*
X715000Y20000D02*
D03*
X705000Y200000D02*
D03*
Y180000D02*
D03*
X700000Y30000D02*
D03*
X705000Y20000D02*
D03*
X695000Y200000D02*
D03*
Y180000D02*
D03*
Y120000D02*
D03*
X690000Y110000D02*
D03*
X695000Y100000D02*
D03*
X690000Y90000D02*
D03*
Y70000D02*
D03*
X695000Y60000D02*
D03*
X690000Y50000D02*
D03*
Y30000D02*
D03*
X695000Y20000D02*
D03*
X685000Y200000D02*
D03*
Y180000D02*
D03*
Y120000D02*
D03*
X680000Y110000D02*
D03*
X685000Y100000D02*
D03*
Y80000D02*
D03*
Y60000D02*
D03*
X680000Y50000D02*
D03*
Y30000D02*
D03*
X685000Y20000D02*
D03*
X675000Y200000D02*
D03*
Y180000D02*
D03*
Y80000D02*
D03*
Y60000D02*
D03*
X665000Y180000D02*
D03*
X660000Y110000D02*
D03*
X655000Y200000D02*
D03*
Y120000D02*
D03*
X650000Y110000D02*
D03*
Y50000D02*
D03*
X640000Y150000D02*
D03*
X645000Y120000D02*
D03*
X640000Y110000D02*
D03*
Y30000D02*
D03*
X630000Y150000D02*
D03*
X635000Y120000D02*
D03*
X630000Y110000D02*
D03*
Y70000D02*
D03*
X635000Y60000D02*
D03*
X630000Y50000D02*
D03*
Y30000D02*
D03*
X635000Y20000D02*
D03*
X625000Y160000D02*
D03*
X620000Y30000D02*
D03*
X625000Y20000D02*
D03*
X610000Y30000D02*
D03*
X615000Y20000D02*
D03*
X600000Y30000D02*
D03*
X605000Y20000D02*
D03*
X595000Y100000D02*
D03*
X590000Y90000D02*
D03*
X595000Y80000D02*
D03*
X590000Y70000D02*
D03*
X595000Y60000D02*
D03*
X590000Y50000D02*
D03*
Y30000D02*
D03*
X595000Y20000D02*
D03*
X590000Y-10000D02*
D03*
X585000Y100000D02*
D03*
X580000Y90000D02*
D03*
X585000Y80000D02*
D03*
X580000Y70000D02*
D03*
X585000Y60000D02*
D03*
X580000Y50000D02*
D03*
Y30000D02*
D03*
X585000Y20000D02*
D03*
X580000Y-10000D02*
D03*
X570000Y110000D02*
D03*
Y-10000D02*
D03*
X560000Y110000D02*
D03*
X550000D02*
D03*
X555000Y60000D02*
D03*
X550000Y50000D02*
D03*
X540000Y110000D02*
D03*
Y30000D02*
D03*
X545000Y20000D02*
D03*
X530000Y70000D02*
D03*
X535000Y60000D02*
D03*
X530000Y50000D02*
D03*
X535000Y40000D02*
D03*
X530000Y30000D02*
D03*
X535000Y20000D02*
D03*
X525000Y40000D02*
D03*
X520000Y30000D02*
D03*
X525000Y20000D02*
D03*
X515000Y200000D02*
D03*
Y140000D02*
D03*
X510000Y130000D02*
D03*
X515000Y40000D02*
D03*
X510000Y30000D02*
D03*
X515000Y20000D02*
D03*
X505000Y200000D02*
D03*
X500000Y130000D02*
D03*
Y110000D02*
D03*
Y50000D02*
D03*
X505000Y40000D02*
D03*
X500000Y30000D02*
D03*
X505000Y20000D02*
D03*
X495000Y200000D02*
D03*
X490000Y190000D02*
D03*
X495000Y120000D02*
D03*
X490000Y110000D02*
D03*
X495000Y100000D02*
D03*
Y80000D02*
D03*
X490000Y70000D02*
D03*
X495000Y60000D02*
D03*
X490000Y50000D02*
D03*
X495000Y40000D02*
D03*
X490000Y30000D02*
D03*
X495000Y20000D02*
D03*
X485000Y60000D02*
D03*
X480000Y50000D02*
D03*
Y30000D02*
D03*
X485000Y20000D02*
D03*
X465000Y120000D02*
D03*
X460000Y110000D02*
D03*
X455000Y100000D02*
D03*
X450000Y50000D02*
D03*
X440000D02*
D03*
Y30000D02*
D03*
X445000Y20000D02*
D03*
X435000Y200000D02*
D03*
X430000Y70000D02*
D03*
X435000Y60000D02*
D03*
Y40000D02*
D03*
X430000Y30000D02*
D03*
X435000Y20000D02*
D03*
X425000Y40000D02*
D03*
X420000Y30000D02*
D03*
X425000Y20000D02*
D03*
X415000Y40000D02*
D03*
X410000Y30000D02*
D03*
X415000Y20000D02*
D03*
X400000Y190000D02*
D03*
Y50000D02*
D03*
Y30000D02*
D03*
X405000Y20000D02*
D03*
X395000Y200000D02*
D03*
Y80000D02*
D03*
X390000Y70000D02*
D03*
X395000Y60000D02*
D03*
X390000Y50000D02*
D03*
X395000Y40000D02*
D03*
X390000Y30000D02*
D03*
X395000Y20000D02*
D03*
X385000Y140000D02*
D03*
Y40000D02*
D03*
X360000Y190000D02*
D03*
Y10000D02*
D03*
X355000Y40000D02*
D03*
X350000Y30000D02*
D03*
X355000Y20000D02*
D03*
X350000Y10000D02*
D03*
Y-10000D02*
D03*
X345000Y140000D02*
D03*
X340000Y70000D02*
D03*
X345000Y60000D02*
D03*
X340000Y50000D02*
D03*
X345000Y40000D02*
D03*
X340000Y30000D02*
D03*
X345000Y20000D02*
D03*
X340000Y10000D02*
D03*
Y-10000D02*
D03*
X335000Y180000D02*
D03*
X330000Y70000D02*
D03*
X335000Y60000D02*
D03*
X330000Y50000D02*
D03*
X335000Y40000D02*
D03*
X330000Y30000D02*
D03*
X335000Y20000D02*
D03*
X330000Y10000D02*
D03*
X325000Y60000D02*
D03*
X320000Y50000D02*
D03*
X325000Y40000D02*
D03*
X320000Y30000D02*
D03*
X325000Y20000D02*
D03*
X320000Y10000D02*
D03*
X315000Y60000D02*
D03*
X310000Y50000D02*
D03*
X315000Y40000D02*
D03*
X310000Y30000D02*
D03*
X315000Y20000D02*
D03*
X310000Y10000D02*
D03*
X305000Y140000D02*
D03*
X300000Y110000D02*
D03*
X305000Y80000D02*
D03*
X300000Y70000D02*
D03*
X305000Y60000D02*
D03*
X300000Y50000D02*
D03*
X305000Y40000D02*
D03*
X300000Y30000D02*
D03*
X305000Y20000D02*
D03*
X300000Y10000D02*
D03*
X295000Y200000D02*
D03*
Y180000D02*
D03*
Y160000D02*
D03*
X290000Y150000D02*
D03*
X295000Y140000D02*
D03*
X290000Y130000D02*
D03*
X295000Y120000D02*
D03*
X290000Y110000D02*
D03*
X295000Y100000D02*
D03*
X290000Y90000D02*
D03*
X295000Y80000D02*
D03*
X290000Y70000D02*
D03*
X295000Y60000D02*
D03*
X290000Y50000D02*
D03*
X295000Y40000D02*
D03*
X290000Y30000D02*
D03*
X295000Y20000D02*
D03*
X290000Y10000D02*
D03*
X285000Y120000D02*
D03*
X280000Y110000D02*
D03*
X285000Y100000D02*
D03*
X280000Y90000D02*
D03*
X285000Y80000D02*
D03*
X280000Y70000D02*
D03*
X285000Y60000D02*
D03*
X280000Y50000D02*
D03*
X285000Y40000D02*
D03*
X280000Y30000D02*
D03*
X285000Y20000D02*
D03*
X280000Y10000D02*
D03*
X275000Y140000D02*
D03*
Y120000D02*
D03*
Y100000D02*
D03*
Y80000D02*
D03*
Y60000D02*
D03*
Y40000D02*
D03*
Y20000D02*
D03*
X120000Y-10000D02*
D03*
X110000D02*
D03*
X100000D02*
D03*
X656500Y103000D02*
D03*
X677142Y103858D02*
D03*
X361500Y133000D02*
D03*
X382000Y134500D02*
D03*
X327000Y112000D02*
D03*
X326000Y110000D02*
D03*
X324000Y114000D02*
D03*
X325000Y112000D02*
D03*
X324000Y110000D02*
D03*
X323000Y112000D02*
D03*
X322000Y110000D02*
D03*
X323000Y108000D02*
D03*
X321000Y112000D02*
D03*
X320000Y110000D02*
D03*
X321000Y108000D02*
D03*
X318000Y106000D02*
D03*
Y102000D02*
D03*
Y98000D02*
D03*
Y94000D02*
D03*
Y90000D02*
D03*
Y86000D02*
D03*
X316000Y122000D02*
D03*
Y118000D02*
D03*
Y114000D02*
D03*
Y106000D02*
D03*
X317000Y104000D02*
D03*
X316000Y102000D02*
D03*
X317000Y100000D02*
D03*
X316000Y98000D02*
D03*
X317000Y96000D02*
D03*
X316000Y94000D02*
D03*
X317000Y92000D02*
D03*
X316000Y90000D02*
D03*
X317000Y88000D02*
D03*
X316000Y86000D02*
D03*
X317000Y84000D02*
D03*
X315000Y124000D02*
D03*
Y120000D02*
D03*
X314000Y118000D02*
D03*
X315000Y116000D02*
D03*
Y92000D02*
D03*
X314000Y86000D02*
D03*
X315000Y84000D02*
D03*
X312000Y86000D02*
D03*
X313000Y84000D02*
D03*
X310000Y86000D02*
D03*
X311000Y84000D02*
D03*
X619500Y81000D02*
D03*
X618000Y78000D02*
D03*
X616500Y81000D02*
D03*
X615000Y78000D02*
D03*
X612000Y84000D02*
D03*
X613500Y81000D02*
D03*
X612000Y78000D02*
D03*
X613500Y75000D02*
D03*
X612000Y72000D02*
D03*
X613500Y69000D02*
D03*
X612000Y66000D02*
D03*
X613500Y63000D02*
D03*
X612000Y60000D02*
D03*
Y54000D02*
D03*
X610500Y99000D02*
D03*
X609000Y96000D02*
D03*
X610500Y93000D02*
D03*
X609000Y90000D02*
D03*
X610500Y87000D02*
D03*
Y81000D02*
D03*
Y75000D02*
D03*
Y69000D02*
D03*
X609000Y66000D02*
D03*
X610500Y63000D02*
D03*
X609000Y60000D02*
D03*
X610500Y57000D02*
D03*
X609000Y54000D02*
D03*
X610500Y51000D02*
D03*
X607500Y99000D02*
D03*
X606000Y96000D02*
D03*
Y66000D02*
D03*
X607500Y63000D02*
D03*
X606000Y60000D02*
D03*
X607500Y57000D02*
D03*
X606000Y54000D02*
D03*
X607500Y51000D02*
D03*
X485000Y130000D02*
D03*
X483750Y132500D02*
D03*
X482500Y130000D02*
D03*
X481250Y132500D02*
D03*
X480000Y130000D02*
D03*
X478750Y132500D02*
D03*
X477500Y130000D02*
D03*
X476250Y127500D02*
D03*
X780000Y5000D02*
D03*
X777500Y10000D02*
D03*
X775000Y5000D02*
D03*
X772500Y10000D02*
D03*
X770000Y5000D02*
D03*
X767500Y10000D02*
D03*
X765000Y5000D02*
D03*
X760000Y15000D02*
D03*
X762500Y10000D02*
D03*
X760000Y5000D02*
D03*
X757500Y30000D02*
D03*
X755000Y15000D02*
D03*
X757500Y10000D02*
D03*
X755000Y5000D02*
D03*
X752500Y10000D02*
D03*
X750000Y5000D02*
D03*
X747500Y10000D02*
D03*
X745000Y5000D02*
D03*
X742500Y10000D02*
D03*
X740000Y5000D02*
D03*
X737500Y10000D02*
D03*
X735000Y5000D02*
D03*
X732500Y10000D02*
D03*
X730000Y5000D02*
D03*
X727500Y10000D02*
D03*
X725000Y5000D02*
D03*
X722500Y10000D02*
D03*
X720000Y5000D02*
D03*
X717500Y10000D02*
D03*
X715000Y5000D02*
D03*
X712500Y10000D02*
D03*
X710000Y5000D02*
D03*
X707500Y10000D02*
D03*
X705000Y5000D02*
D03*
X702500Y10000D02*
D03*
X700000Y5000D02*
D03*
X697500Y10000D02*
D03*
X695000Y5000D02*
D03*
X692500Y10000D02*
D03*
X690000Y5000D02*
D03*
X687500Y10000D02*
D03*
X685000Y5000D02*
D03*
X682500Y10000D02*
D03*
X680000Y5000D02*
D03*
X677500Y10000D02*
D03*
X675000Y5000D02*
D03*
X672500Y10000D02*
D03*
X670000Y5000D02*
D03*
X667500Y10000D02*
D03*
X665000Y5000D02*
D03*
X660000Y35000D02*
D03*
Y15000D02*
D03*
X662500Y10000D02*
D03*
X660000Y5000D02*
D03*
X657500Y10000D02*
D03*
X655000Y5000D02*
D03*
X652500Y10000D02*
D03*
X650000Y5000D02*
D03*
X647500Y10000D02*
D03*
X645000Y5000D02*
D03*
X642500Y10000D02*
D03*
X640000Y5000D02*
D03*
X637500Y10000D02*
D03*
X635000Y5000D02*
D03*
X632500Y10000D02*
D03*
X630000Y5000D02*
D03*
X627500Y10000D02*
D03*
X625000Y5000D02*
D03*
X622500Y10000D02*
D03*
X620000Y5000D02*
D03*
X617500Y10000D02*
D03*
X615000Y5000D02*
D03*
X612500Y10000D02*
D03*
X610000Y5000D02*
D03*
X607500Y10000D02*
D03*
X605000Y5000D02*
D03*
X602500Y10000D02*
D03*
X600000Y5000D02*
D03*
X597500Y10000D02*
D03*
X595000Y5000D02*
D03*
X592500Y10000D02*
D03*
X590000Y5000D02*
D03*
X587500Y10000D02*
D03*
X585000Y5000D02*
D03*
X582500Y10000D02*
D03*
X580000Y5000D02*
D03*
X577500Y10000D02*
D03*
X575000Y5000D02*
D03*
X572500Y10000D02*
D03*
X570000Y5000D02*
D03*
X567500Y10000D02*
D03*
X565000Y5000D02*
D03*
X560000Y15000D02*
D03*
X562500Y10000D02*
D03*
X560000Y5000D02*
D03*
X557500Y10000D02*
D03*
X555000Y5000D02*
D03*
X552500Y10000D02*
D03*
X550000Y5000D02*
D03*
X547500Y10000D02*
D03*
X545000Y5000D02*
D03*
X542500Y10000D02*
D03*
X540000Y5000D02*
D03*
X537500Y10000D02*
D03*
X535000Y5000D02*
D03*
X532500Y10000D02*
D03*
X530000Y5000D02*
D03*
X527500Y10000D02*
D03*
X525000Y5000D02*
D03*
X522500Y10000D02*
D03*
X520000Y5000D02*
D03*
X517500Y10000D02*
D03*
X515000Y5000D02*
D03*
X512500Y10000D02*
D03*
X510000Y5000D02*
D03*
X507500Y10000D02*
D03*
X505000Y5000D02*
D03*
X502500Y10000D02*
D03*
X500000Y5000D02*
D03*
X497500Y10000D02*
D03*
X495000Y5000D02*
D03*
X492500Y10000D02*
D03*
X490000Y5000D02*
D03*
X487500Y10000D02*
D03*
X485000Y5000D02*
D03*
X482500Y10000D02*
D03*
X480000Y5000D02*
D03*
X477500Y10000D02*
D03*
X475000Y5000D02*
D03*
X472500Y10000D02*
D03*
X470000Y5000D02*
D03*
X465000Y15000D02*
D03*
X467500Y10000D02*
D03*
X465000Y5000D02*
D03*
X462500Y30000D02*
D03*
X460000Y15000D02*
D03*
X462500Y10000D02*
D03*
X460000Y5000D02*
D03*
X457500Y10000D02*
D03*
X455000Y5000D02*
D03*
X452500Y10000D02*
D03*
X450000Y5000D02*
D03*
X447500Y10000D02*
D03*
X445000Y5000D02*
D03*
X442500Y10000D02*
D03*
X440000Y5000D02*
D03*
X437500Y10000D02*
D03*
X435000Y5000D02*
D03*
X432500Y10000D02*
D03*
X430000Y5000D02*
D03*
X427500Y10000D02*
D03*
X425000Y5000D02*
D03*
X422500Y10000D02*
D03*
X420000Y5000D02*
D03*
X417500Y10000D02*
D03*
X415000Y5000D02*
D03*
X412500Y10000D02*
D03*
X410000Y5000D02*
D03*
X407500Y10000D02*
D03*
X405000Y5000D02*
D03*
X402500Y10000D02*
D03*
X400000Y5000D02*
D03*
X397500Y10000D02*
D03*
X395000Y5000D02*
D03*
X390000Y15000D02*
D03*
X392500Y10000D02*
D03*
X390000Y5000D02*
D03*
X385000Y15000D02*
D03*
X387500Y10000D02*
D03*
X385000Y5000D02*
D03*
X380000Y25000D02*
D03*
X382500Y20000D02*
D03*
X380000Y15000D02*
D03*
X382500Y10000D02*
D03*
X380000Y5000D02*
D03*
X375000Y35000D02*
D03*
X377500Y30000D02*
D03*
X375000Y25000D02*
D03*
X377500Y20000D02*
D03*
X375000Y15000D02*
D03*
X377500Y10000D02*
D03*
X375000Y5000D02*
D03*
X370000Y35000D02*
D03*
X372500Y30000D02*
D03*
X370000Y25000D02*
D03*
X372500Y20000D02*
D03*
X370000Y15000D02*
D03*
X372500Y10000D02*
D03*
X365000Y65000D02*
D03*
Y45000D02*
D03*
X367500Y40000D02*
D03*
X365000Y35000D02*
D03*
X367500Y30000D02*
D03*
X365000Y25000D02*
D03*
X367500Y20000D02*
D03*
X365000Y15000D02*
D03*
X362500Y40000D02*
D03*
Y30000D02*
D03*
Y20000D02*
D03*
X616000Y95500D02*
D03*
X746500Y34000D02*
D03*
X746547Y32500D02*
D03*
X746500Y31500D02*
D03*
X746000Y24500D02*
D03*
X745858Y22000D02*
D03*
X746000Y20000D02*
D03*
X769000Y19500D02*
D03*
Y22000D02*
D03*
Y24500D02*
D03*
X768000Y31000D02*
D03*
X767953Y32500D02*
D03*
X768000Y34000D02*
D03*
X753000Y24500D02*
D03*
X753142Y22000D02*
D03*
X753000Y20000D02*
D03*
X762000D02*
D03*
X761717Y22000D02*
D03*
X762000Y24000D02*
D03*
Y31000D02*
D03*
X762047Y32500D02*
D03*
X762000Y34000D02*
D03*
X752500Y31000D02*
D03*
X752453Y32500D02*
D03*
X752500Y34000D02*
D03*
X756500Y41500D02*
D03*
X754500Y43000D02*
D03*
X756000Y45000D02*
D03*
X754500Y47000D02*
D03*
X648500Y19500D02*
D03*
X648858Y22000D02*
D03*
X648500Y24000D02*
D03*
X672000Y19500D02*
D03*
Y22000D02*
D03*
Y24000D02*
D03*
X664500Y24500D02*
D03*
X664717Y22000D02*
D03*
X664500Y19500D02*
D03*
X656000D02*
D03*
X656142Y22000D02*
D03*
X656000Y24000D02*
D03*
X655500Y34000D02*
D03*
X655453Y32500D02*
D03*
X655500Y31000D02*
D03*
X649500D02*
D03*
X649547Y32500D02*
D03*
X649500Y34000D02*
D03*
X671000D02*
D03*
X670953Y32500D02*
D03*
X671000Y31000D02*
D03*
X665000D02*
D03*
X665047Y32500D02*
D03*
X665000Y33500D02*
D03*
X659000Y42000D02*
D03*
X657500Y44000D02*
D03*
X659000Y46000D02*
D03*
X657500Y47500D02*
D03*
X550000Y24500D02*
D03*
X549858Y22000D02*
D03*
X550000Y19500D02*
D03*
X557000Y20000D02*
D03*
X557142Y22000D02*
D03*
X557000Y24500D02*
D03*
X566000D02*
D03*
X565717Y22000D02*
D03*
X566000Y19500D02*
D03*
X573000D02*
D03*
Y22000D02*
D03*
Y24500D02*
D03*
X550500Y31000D02*
D03*
X550547Y32500D02*
D03*
X550500Y34000D02*
D03*
X572000Y31000D02*
D03*
X571953Y32500D02*
D03*
X572000Y34000D02*
D03*
X566000Y31000D02*
D03*
X566047Y32500D02*
D03*
X566000Y34000D02*
D03*
X556500Y31000D02*
D03*
X556453Y32500D02*
D03*
X556500Y34000D02*
D03*
X559000Y42500D02*
D03*
X560000Y44000D02*
D03*
X558500Y45500D02*
D03*
X560000Y47000D02*
D03*
X460000Y46500D02*
D03*
X462000Y45000D02*
D03*
X460000Y43500D02*
D03*
X462000Y42000D02*
D03*
X475000Y23500D02*
D03*
Y21500D02*
D03*
X474500Y19000D02*
D03*
X452000D02*
D03*
X451858Y21500D02*
D03*
X452000Y23500D02*
D03*
X467500Y24000D02*
D03*
X467717Y21500D02*
D03*
X467500Y19000D02*
D03*
X459000Y19500D02*
D03*
X459142Y21500D02*
D03*
X459000Y23500D02*
D03*
X458500Y30500D02*
D03*
X458453Y32000D02*
D03*
X458500Y33500D02*
D03*
X452500Y30500D02*
D03*
X452547Y32000D02*
D03*
X452500Y33500D02*
D03*
X474000D02*
D03*
X473953Y32000D02*
D03*
X474000Y30500D02*
D03*
X468000D02*
D03*
X468047Y32000D02*
D03*
X468000Y33500D02*
D03*
X353858Y52000D02*
D03*
X363165Y74728D02*
D03*
X354500Y61000D02*
D03*
Y64000D02*
D03*
X376000D02*
D03*
Y61000D02*
D03*
X377000Y49500D02*
D03*
Y52000D02*
D03*
Y54000D02*
D03*
X370000Y54500D02*
D03*
X369717Y52000D02*
D03*
X361142D02*
D03*
X370000Y61000D02*
D03*
Y63500D02*
D03*
X360500Y64000D02*
D03*
Y61000D02*
D03*
X306500Y168500D02*
D03*
X305500Y171547D02*
D03*
X309000Y165890D02*
D03*
X354000Y54000D02*
D03*
Y50000D02*
D03*
X354547Y62500D02*
D03*
X363500Y73500D02*
D03*
Y76500D02*
D03*
X361000Y50000D02*
D03*
Y54000D02*
D03*
X369500Y50000D02*
D03*
X479000Y119547D02*
D03*
X479055Y113500D02*
D03*
X471177Y125500D02*
D03*
X479000Y125453D02*
D03*
X485500Y125354D02*
D03*
X318646Y195000D02*
D03*
X304694Y195639D02*
D03*
X305000Y190500D02*
D03*
Y183000D02*
D03*
X310945D02*
D03*
Y190500D02*
D03*
Y198000D02*
D03*
X326772Y171500D02*
D03*
X348228Y176500D02*
D03*
Y181500D02*
D03*
X362500Y171000D02*
D03*
X389055Y184500D02*
D03*
X352500Y154000D02*
D03*
X263000Y61000D02*
D03*
X350000Y171500D02*
D03*
X412000Y134823D02*
D03*
X449823Y125500D02*
D03*
X557500Y103000D02*
D03*
X404500Y174500D02*
D03*
X395945Y184500D02*
D03*
Y169500D02*
D03*
Y161500D02*
D03*
Y153500D02*
D03*
X422000Y98500D02*
D03*
X459500Y102500D02*
D03*
X368165Y74728D02*
D03*
X373165D02*
D03*
X471165Y44228D02*
D03*
X466165D02*
D03*
X564165Y44728D02*
D03*
X569165D02*
D03*
X663165D02*
D03*
X668165D02*
D03*
X760165D02*
D03*
X765165D02*
D03*
X753000Y58500D02*
D03*
X757500D02*
D03*
X762000D02*
D03*
Y55500D02*
D03*
X757665Y55405D02*
D03*
X753000Y55500D02*
D03*
Y52000D02*
D03*
X757500D02*
D03*
X762000D02*
D03*
X656000Y58500D02*
D03*
X660500D02*
D03*
X665000D02*
D03*
Y55500D02*
D03*
X660665Y55405D02*
D03*
X656000Y55500D02*
D03*
Y52000D02*
D03*
X660500D02*
D03*
X665000D02*
D03*
X557000Y58500D02*
D03*
X561500D02*
D03*
X566000D02*
D03*
Y55500D02*
D03*
X561665Y55405D02*
D03*
X557000Y55500D02*
D03*
Y52000D02*
D03*
X561500D02*
D03*
X566000D02*
D03*
X361000Y88500D02*
D03*
X365500D02*
D03*
X370000D02*
D03*
Y85500D02*
D03*
X365665Y85405D02*
D03*
X361000Y85500D02*
D03*
Y82000D02*
D03*
X365500D02*
D03*
X370000D02*
D03*
X468000Y51500D02*
D03*
X463500D02*
D03*
X459000D02*
D03*
Y55000D02*
D03*
X463665Y54905D02*
D03*
X468000Y55000D02*
D03*
Y58000D02*
D03*
X463500D02*
D03*
X459000D02*
D03*
X417000Y129500D02*
D03*
Y127000D02*
D03*
X444000Y120500D02*
D03*
X441000D02*
D03*
Y114500D02*
D03*
X444000D02*
D03*
X471177Y115500D02*
D03*
X464500Y117000D02*
D03*
X455500D02*
D03*
X460000Y121000D02*
D03*
X455500Y124500D02*
D03*
X464500Y125000D02*
D03*
X460000Y128000D02*
D03*
X464500Y131000D02*
D03*
X455500D02*
D03*
Y136000D02*
D03*
Y139000D02*
D03*
X417500Y161500D02*
D03*
Y164500D02*
D03*
X417000Y156177D02*
D03*
X422000D02*
D03*
X400000Y141953D02*
D03*
X409000Y147000D02*
D03*
X422000Y148500D02*
D03*
X416000Y141000D02*
D03*
X411000D02*
D03*
Y126500D02*
D03*
Y129500D02*
D03*
X167000Y44000D02*
D03*
X520000Y99000D02*
D03*
X576500Y104500D02*
D03*
X479500Y104000D02*
D03*
X716000Y99000D02*
D03*
D107*
X324000Y125541D02*
D03*
X324041Y122041D02*
D03*
X324000Y118000D02*
D03*
X327500D02*
D03*
X321000Y118500D02*
D03*
Y122000D02*
D03*
X327000D02*
D03*
Y126000D02*
D03*
X320500D02*
D03*
X622500Y88500D02*
D03*
X619500D02*
D03*
X616000D02*
D03*
Y92000D02*
D03*
X619500D02*
D03*
X622500D02*
D03*
Y95500D02*
D03*
X619000D02*
D03*
D108*
X786000Y49000D02*
D03*
Y53500D02*
D03*
X792500Y148500D02*
D03*
X784000Y166000D02*
D03*
X788500D02*
D03*
X771000Y150500D02*
D03*
X777500Y139500D02*
D03*
X771000Y144000D02*
D03*
X777500Y146500D02*
D03*
Y153500D02*
D03*
X774000Y160500D02*
D03*
X788500D02*
D03*
X812000Y81500D02*
D03*
X819500D02*
D03*
X815500Y83000D02*
D03*
X819500Y86500D02*
D03*
X816500Y90500D02*
D03*
X794500Y88500D02*
D03*
X798000Y85000D02*
D03*
Y90500D02*
D03*
X790000Y70500D02*
D03*
X797000D02*
D03*
X804000D02*
D03*
Y63500D02*
D03*
X797000D02*
D03*
X790000D02*
D03*
X800000Y49500D02*
D03*
X786000Y58000D02*
D03*
X802500Y146000D02*
D03*
M02*
