M48
;Layer_Color=9474304
;FILE_FORMAT=2:4
INCH,TZ
;TYPE=PLATED
T01F00S00C0.0079
T02F00S00C0.0200
T03F00S00C0.0280
T04F00S00C0.0300
T05F00S00C0.0354
T06F00S00C0.0394
T07F00S00C0.0402
T08F00S00C0.0433
T09F00S00C0.0551
T10F00S00C0.0600
T11F00S00C0.0630
T12F00S00C0.0669
T13F00S00C0.0700
T14F00S00C0.1378
;TYPE=NON_PLATED
T15F00S00C0.1181
T16F00S00C0.1417
%
T01
X10000Y-1000
X11000
X12000
X16700Y4400
X27500Y4000
X28500
X29500
X30500
X31000Y5000
X30000
X29000
X28000
X28500Y6000
X29500
X30500
X30000Y7000
X29000
X28000
X28500Y8000
X29500
X30500
X31100Y8400
X31200Y8600
X31000
X29000Y9000
X28000
X28500Y10000
X29500
X30000Y11000
X29000
X28000
X28500Y12000
X29500
X29000Y13000
X29500Y14000
X30500
X29000Y15000
X27500Y14000
Y12000
Y10000
Y8000
Y6000
X26300Y6100
X28000Y3000
X29000
X30000
X31000
X30500Y2000
X29500
X28500
X27500
X28000Y1000
X29000
X30000
X31000
X32000
X33000
X34000
X35000
X36000
X36500Y1500
X37000
X37500
X38000
X38500
X39000
X39250Y1000
X39750
X40250
X40750
X41250
X41750
X42250
X42750
X43250
X43750
X44250
X44750
X45250
X45750
X46250
X46750
X46500Y1500
X46000
X45900Y1950
X45914Y2150
X45900Y2350
X45200
X45186Y2150
X45200Y1900
X44500Y2000
X43500
X42500
X41500
X40500
X39500
X38250
X37750
X37250
X36750
X36250
X35500
X34500
X33500
X32500
X31500
X32000Y3000
X33000
X34000
X35000
X36250
X36750
X37250
X37750
X38000Y2500
X37500
X37000
X36500
Y3500
X37000
X37500
X36750Y4000
X36250
X35500
X34500
X33500
X32500
X31500
X32000Y5000
X33000
X34000
X35400
X35386Y5200
X35400Y5400
X36100
X36114Y5200
X36100Y5000
X36950
X36972Y5200
X37000Y5450
Y6100
Y6350
X36500Y6500
X36050Y6400
Y6100
X35450
X35455Y6250
X35450Y6400
X34500Y6000
X33500
X32500
X31500
Y8400
X31700
X31800Y8600
X31600
X31400
X31300Y8400
X31700Y8800
X31800Y9000
X31600
X31700Y9200
X31500
X31600Y9400
X31800
X31700Y9600
X31800Y9800
X31600
X31700Y10000
X31800Y10200
X31600
X31700Y10400
X31800Y10600
X31600
X32100Y10800
X32300
X32400Y11000
X32600
X32700Y11200
X32500
X32300
X32100
X32200Y11000
X32000
X32400Y11400
Y11800
X32750
X32700Y12200
X32404Y12204
X32100Y12200
Y11850
X31600Y11800
X31400
X31500Y12000
X31600Y12200
X31500Y12400
X32050Y12600
X32400Y12554
X32700Y12600
X31500Y11600
X31600Y11400
X34500Y14000
X35250Y15400
X36150Y13300
X38200Y13450
X38500Y14000
X40000Y14195
X41100Y14100
X41600
X41200Y13482
X41100Y12950
Y12650
X41700Y12700
Y12950
X42200Y14850
Y15618
X41700
X40900Y14700
X39594Y15350
X45550Y13900
Y13600
Y13100
Y12450
X44982Y12550
X44400Y12050
X44100
Y11450
X44400
X45550Y11700
X46000Y12100
X46500Y12000
X46450Y11700
Y12500
Y13100
X46000Y12800
Y11000
X45950Y10250
X45500Y10000
X42200Y9850
X43000Y7000
X43500Y6000
X44000Y5000
X45000
X45900Y5150
Y5500
Y5800
X46350
X46367Y5490
X46350Y5150
X46800
Y5500
Y5800
X46617Y4423
X46200Y4500
Y4200
X46000Y4350
Y4650
X45850Y3350
X45845Y3200
X45850Y3050
X46250Y3000
X46800Y3050
X46805Y3200
X46800Y3350
X46750Y2400
X46772Y2150
X46750Y1900
X46500Y500
X46000
X45500
X45000
X44500
X44000
X43500
X43000
X42500
X42000
X41500
X41000
X40500
X40000
X39500
X39000
X38500
X38000
X37500
X37750Y1000
X38250
X38750
X37250
X39000Y3000
X40000
X41000
X42000
X43000
X44000
X45250Y3050
X45255Y3200
X45250Y3350
X43500Y4000
X42500
X41500
X39500
X38500
X39000Y5000
X40000
X39500Y6000
X39000Y7000
X39500Y8000
X37000Y8200
Y8550
Y8850
X36550
X36567Y8540
X36550Y8200
X36100
Y8550
Y8850
X36350Y7650
X36317Y7473
X36350Y7350
X36817Y7473
X37317
X37600Y6400
Y6100
X37700Y5400
Y5200
Y4950
X36500Y4500
X34000Y7000
X33000
X34000Y-1000
X35000
X47000Y500
X47500
X48000
X48500
X49000
X49500
X50000
X50500
X51000
X51500
X52000
X52500
X53000
X53500
X54000
X54500
X55000
X55500
X56000
X56500
X57000
X57500
X58000
X58500
X59000
X59500
X60000
X60500
X61000
X61500
X62000
X62250Y1000
X61750
X61250
X60750
X60250
X59750
X59250
X58750
X58250
X57750
X57250
X56750
X56250
X55750
X55250
X54750
X54250
X53750
X53250
X52750
X52250
X51750
X51250
X50750
X50250
X49750
X49250
X48750
X48250
X47750
X47250
X47450Y1900
X47500Y2150
Y2350
X47400Y3050
X47395Y3200
X47400Y3350
X48000Y3000
X49000
X50000
X51000
X52000
X53000
X54000
X55050Y3100
X55055Y3250
X55050Y3400
X55650
X55645Y3250
X55650Y3100
X55700Y2450
X55714Y2200
X55700Y2000
X55000Y1950
X54986Y2200
X55000Y2450
X54500Y2000
X53500
X52500
X51500
X50500
X49500
X48500
X49500Y4000
X50500
X51500
X52500
X53500
X53000Y5000
X53500Y6000
X53000Y7000
X55500Y6000
X55700Y5850
Y5550
Y5200
X56150
X56167Y5540
X56150Y5850
X56600
Y5550
Y5200
X56417Y4473
X56000Y4400
X55900Y4250
X55850Y4550
X56000Y4700
X56917Y4473
X57200Y3400
X57195Y3250
X57200Y3100
X56600
X56605Y3250
X56600Y3400
Y2450
X56572Y2200
X56600Y1950
X57300
Y2200
Y2450
X58000Y3000
X59000
X60000
X61000
X62000
X61500Y2000
X60500
X59500
X58500
X56000Y1500
X57000Y-1000
X58000
X59000
Y5000
X58000
X58500Y6000
X59500
X60600
X60900
X61200
X61350Y6300
X61050
X60750
X60900Y6600
X61200
X61350Y6900
X61050
X61200Y7200
X61350Y7500
X61050
X61200Y7800
X61500
X61800
X61950Y8100
X61650
X61350
X61050
X61200Y8400
X61050Y8700
X60900Y9000
X61050Y9300
X60900Y9600
X60600
X60750Y9900
X61050
X61600Y9550
X61900
X62250
Y9200
X61950
Y8850
X62250
X61600
Y9200
X59000Y9000
X58000
X58500Y10000
X59500
Y8000
X58500
X59000Y7000
X58000
X60600Y6600
X60750Y5700
X61050
X61200Y5400
X60900
X60600
X60750Y5100
X61050
X55000Y5000
X50000
X49000
X48000
X47117Y4423
X48500Y6000
X49500
X49000Y7000
X49500Y8000
Y10000
X50000Y11000
X49000
X47906Y11350
X47900Y11955
Y12545
X47625Y12750
X47750Y13000
X48000
X48250
X48500
X48375Y13250
X48125
X47875
X48550Y12535
X47118Y12550
Y11550
X47950Y10400
X49500Y12000
X50000Y13000
X51000
X51500Y14000
X52000Y9900
X54000Y11000
X55000
X56000
X55750Y10300
X57000Y11000
X57650Y10450
X63000Y11000
X64000
X65000
X66000
X65650Y10300
X65500Y12000
X64500
X63500
X64000Y15000
X63000
Y7000
X63500Y6000
X63000Y5000
X65000
X65600Y5200
Y5550
Y5850
X66050
X66067Y5540
X66050Y5200
X66500
Y5550
Y5850
X67500Y6000
X68500
X69500
X69000Y7000
X68500Y8000
X67500
X69000Y9000
X69500Y10000
X68500
X67714Y10386
X68000Y11000
X69000
X69500Y12000
X68500
X72500
X71600Y9900
X77000Y9000
X78000
X77500Y8000
X78000Y7000
X77000
X77500Y6000
X76200Y5850
Y5550
Y5200
X75750
X75767Y5540
X75750Y5850
X75500Y6000
X75300Y5850
Y5550
Y5200
X75450Y4700
X75600Y4500
X75450Y4300
X75650Y4150
X76017Y4473
X76517
X77000Y5000
X78000
Y3000
X76800Y3100
X76795Y3250
X76800Y3400
X76200
X76205Y3250
X76200Y3100
X75750Y3000
X75250Y3100
X75245Y3250
X75250Y3400
X74650
X74655Y3250
X74650Y3150
X74600Y2450
X74586Y2200
X74600Y2000
X75300
X75314Y2200
X75300Y2450
X76200Y2400
X76172Y2200
X76200Y2000
X76000Y1500
X75500
X75750Y1000
X76250
X76750
X77250
X77750
X78000Y500
X77500
X77000
X76500
X76000
X75500
X75000
X74500
X74000
X73500
X73000
X72500
X72000
X71500
X71000
X70500
X70000
X69500
X69000
X68500
X68000
X67500
X67000
X66500
X66000
X65500
X65000
X64500
X64000
X63500
X63000
X62500
X62750Y1000
X63250
X63750
X64250
X64750
X65250
X65750
X66250
X66750
X67250
X67750
X68250
X68750
X69250
X69750
X70250
X70750
X71250
X71750
X72250
X72750
X73250
X73750
X74250
X74750
X75250
X76900Y1950
Y2200
Y2450
X77500Y2000
X73500
X72500
X71500
X70500
X69500
X68500
X67200Y1950
Y2200
Y2400
X66450Y2450
X66472Y2200
X66450Y1950
X65600
X65614Y2200
X65600Y2400
X64850
X64886Y2200
X64850Y1950
X64950Y3100
X64955Y3250
X64950Y3400
X65550
X65545Y3250
X65550Y3100
X66000Y3500
X66500Y3350
X66505Y3250
X66500Y3100
X67100
X67095Y3250
X67100Y3400
X68000Y3000
X69000
X70000
X71000
X72000
X73000
X74000
X73000Y5000
X69000
X68000
X66817Y4473
X66317
X65900Y4600
X65750Y4750
Y4400
X65900Y4200
X66000Y1500
X63500Y2000
X62500
X63000Y3000
X64000
X73000Y15000
X74000
X75000
X75500Y14000
X76000Y13000
X78500Y10000
X79500
X79000Y9000
X80000Y7000
X81000Y5000
X82000
X82500Y6000
Y4000
X81500
X80500
X79500
X78500
X79000Y3000
X80000
X81000
X82000
X82500Y2000
X81500
X80500
X79500
X78500
X79000Y1000
X80000
X81000
X82000
Y-1000
X81000
X82500Y12000
X82000Y13000
X82500Y14000
X82000Y15000
X80000
X80500Y16000
X81500
X82500
X79500
Y18000
X78500
Y20000
X79500
X80500
X81500
X80000Y19000
X78000
X77500Y20000
X76500
X75500
X74500
X73500
X72500
X71500
X70500
X69500
X68500
X67500
Y18000
X68500
X69500
X70500
X71500
X72500
X73500
X74500
X75500
X76500
X77500
X77000Y17000
X76000
X75500Y16000
X74500
X73500
X72500
X71500
X72000Y17000
X73000
X74000
X71000
X66500Y18000
X65500Y20000
X62500Y16000
X51500Y20000
X50500
X49500
X49000Y19000
X43500Y20000
X39500
X40000Y19000
X39594Y18450
X38906
X39594Y16950
Y16150
X40450Y17450
X41750Y16450
Y16150
X36250Y17100
X35000Y17150
X34823Y17650
Y18150
X33500Y18000
X32677Y17150
X31865Y19500
X36000Y19000
X31094Y19050
X30500
X30469Y19564
X31094Y19800
Y18300
X30500
X30550Y17155
X30650Y16850
X30900Y16589
X29500Y16000
Y18000
Y20000
T02
X31600Y11000
X41700Y10750
X51000Y10500
X60850Y10550
X70550Y10500
X77100Y14400
Y15050
X77750Y15350
Y14650
Y13950
X79250Y13150
Y14850
X80250Y14600
X79800Y9050
X79450Y8850
X79800Y8500
X79700Y7050
X79000
Y6350
X79700
X80400
Y7050
X81200Y8150
X81550Y8300
X81950Y8150
Y8650
X82100Y9150
X81650Y9050
X80000Y4950
X78600Y4900
Y5350
Y5800
X78850Y16050
Y16600
X78400
X77400Y16050
X75300Y16650
X64050Y15650
X61150
X59500Y15700
X57850Y15650
X56100
X53800
X51200Y15700
X49550Y15750
X47900
X46200Y15700
X43950Y15750
X41450Y17100
X37600Y20200
T03
X34600Y7350
X34800Y11150
X44600Y8100
X44400Y4300
X54200Y4350
X54400Y8150
X64300
X64100Y4350
X73800
X74000Y8150
X31800Y15750
T04
X28000Y11550
X47400Y13450
X32000Y16550
X31900Y17300
T05
X3866Y7282
Y8266
Y9250
X4850
Y8266
Y7282
T06
X7329Y3444
X12250
Y9350
X7329
T07
X32600Y14550
X33600
X34600
X35600
X36600
X37600
T08
X81050Y13600
Y14600
T09
X5185Y5982
X3531Y10549
X47889Y17085
X49543
X51196
X52850
X54504
X56157
X57811
X59464
X61118
Y19250
X59464
X57811
X56157
X54504
X52850
X51196
X49543
X47889
X46236
Y17085
T10
X78759Y18850
X77200
X75641
X74082
X72523
X70964
X69405
X67846
X66287
T11
X16720Y14926
X19476
X22232
T12
X7950Y12100
Y14100
T13
X21550Y4530
Y7650
X25400
Y4530
T14
X1575Y1575
X81425Y17685
X41732Y19654
X6299
T15
X62968Y19069
X44385
T16
X27350Y17800
X11602
M30
